M48
; DRILL file {KiCad 9.0.1} date 2025-04-11T18:30:43-0400
; FORMAT={-:-/ absolute / metric / decimal}
; #@! TF.CreationDate,2025-04-11T18:30:43-04:00
; #@! TF.GenerationSoftware,Kicad,Pcbnew,9.0.1
; #@! TF.FileFunction,MixedPlating,1,2
FMAT,2
METRIC
; #@! TA.AperFunction,Plated,PTH,ViaDrill
T1C0.400
; #@! TA.AperFunction,Plated,PTH,ComponentDrill
T2C0.800
; #@! TA.AperFunction,Plated,PTH,ComponentDrill
T3C1.000
; #@! TA.AperFunction,NonPlated,NPTH,ComponentDrill
T4C2.500
%
G90
G05
T1
X98.8Y-95.6
X111.4Y-116.5
X117.0Y-73.5
X120.3Y-105.9
X124.3Y-116.5
X139.4Y-100.0
X141.4Y-108.5
X142.8Y-100.0
X143.3Y-106.6
X143.7Y-110.3
X144.2Y-91.4
X144.9Y-118.5
X145.6Y-108.3
X148.8Y-109.6
X148.8Y-112.3
X156.3Y-91.2
X156.3Y-94.4
X165.5Y-109.4
X166.1Y-90.4
X171.9Y-91.0
X171.9Y-102.2
X173.6Y-103.8
X180.5Y-111.0
X182.5Y-58.6
X182.7Y-98.3
X182.7Y-102.2
X192.2Y-108.8
X192.2Y-117.9
X193.8Y-89.4
T2
X114.685Y-105.89
X117.225Y-105.89
X126.6Y-114.0
X126.6Y-116.54
X178.43Y-68.15
X178.43Y-74.9
X178.43Y-81.8
X180.97Y-68.15
X180.97Y-74.9
X180.97Y-81.8
X186.4Y-112.2
X186.4Y-114.74
T3
X102.3Y-90.56
X102.3Y-93.1
X102.3Y-95.64
X102.3Y-98.18
X103.975Y-113.91
X103.975Y-116.45
X113.8Y-114.0
X113.8Y-116.54
X114.0Y-60.84
X114.0Y-63.38
X114.0Y-65.92
X114.0Y-68.46
X114.0Y-71.0
X114.0Y-73.54
X114.0Y-76.08
X114.0Y-78.62
X121.0Y-83.72
X121.0Y-86.26
X121.0Y-88.8
X121.0Y-91.34
X121.0Y-93.88
X121.0Y-96.42
X126.6Y-106.46
X126.6Y-109.0
X134.2Y-116.0
X134.2Y-118.54
X141.2Y-83.76
X141.2Y-86.3
X141.2Y-88.84
X141.2Y-91.38
X141.2Y-93.92
X141.2Y-96.46
X141.6Y-116.0
X141.6Y-118.54
X148.732Y-78.95
X148.732Y-81.49
X148.732Y-84.03
X148.732Y-86.57
X148.732Y-89.11
X148.732Y-91.65
X148.732Y-94.19
X148.732Y-96.73
X148.732Y-99.27
X148.732Y-101.81
X148.732Y-104.35
X148.732Y-106.89
X169.052Y-78.95
X169.052Y-81.49
X169.052Y-84.03
X169.052Y-86.57
X169.052Y-89.11
X169.052Y-91.65
X169.052Y-94.19
X169.052Y-96.73
X169.052Y-99.27
X169.052Y-101.81
X169.052Y-104.35
X169.052Y-106.89
X169.052Y-109.43
X169.052Y-111.97
X169.052Y-114.51
X169.052Y-117.05
X177.6Y-108.4
X177.6Y-110.94
X177.6Y-113.48
X180.82Y-60.675
X183.36Y-60.675
X185.9Y-60.675
X186.4Y-104.86
X186.4Y-107.4
X188.44Y-60.675
X196.3Y-73.26
X196.3Y-75.8
X196.3Y-78.34
X196.3Y-80.88
X196.3Y-83.42
X196.3Y-85.96
X196.3Y-88.5
X196.3Y-91.04
X196.3Y-93.58
X196.3Y-96.12
X196.3Y-98.66
X196.3Y-101.2
X196.3Y-103.74
X196.3Y-110.9
X196.3Y-113.44
T4
X82.2Y-56.8
X82.2Y-120.8
X196.2Y-56.8
X196.2Y-120.8
M30
