%TF.GenerationSoftware,KiCad,Pcbnew,9.0.1*%
%TF.CreationDate,2025-04-11T18:30:47-04:00*%
%TF.ProjectId,ground_station,67726f75-6e64-45f7-9374-6174696f6e2e,rev?*%
%TF.SameCoordinates,Original*%
%TF.FileFunction,Legend,Top*%
%TF.FilePolarity,Positive*%
%FSLAX46Y46*%
G04 Gerber Fmt 4.6, Leading zero omitted, Abs format (unit mm)*
G04 Created by KiCad (PCBNEW 9.0.1) date 2025-04-11 18:30:47*
%MOMM*%
%LPD*%
G01*
G04 APERTURE LIST*
%ADD10C,0.150000*%
%ADD11C,0.200000*%
%ADD12C,0.300000*%
%ADD13C,0.120000*%
%ADD14C,0.000000*%
G04 APERTURE END LIST*
D10*
X174500000Y-117800000D02*
X174400000Y-102300000D01*
X101100000Y-110800000D02*
X101100000Y-120200000D01*
X124400000Y-119400000D02*
X128800000Y-119400000D01*
X107800000Y-108900000D02*
X101100000Y-108900000D01*
X99000000Y-81600000D02*
X99000000Y-59600000D01*
X102400000Y-106220000D02*
X87400000Y-106220000D01*
X101100000Y-120200000D02*
X121100000Y-120200000D01*
X128800000Y-119400000D02*
X128800000Y-104400000D01*
X143700000Y-77700000D02*
X143700000Y-83800000D01*
X118500000Y-77700000D02*
X143700000Y-77700000D01*
X114000000Y-57800000D02*
X99000000Y-57800000D01*
X107800000Y-103000000D02*
X107800000Y-108900000D01*
X143700000Y-102500000D02*
X118500000Y-102500000D01*
X121100000Y-120200000D02*
X121100000Y-103000000D01*
X104300000Y-106220000D02*
X104300000Y-100820000D01*
X87400000Y-106220000D02*
X87400000Y-82520000D01*
X116500000Y-81600000D02*
X99000000Y-81600000D01*
X121100000Y-103000000D02*
X107800000Y-103000000D01*
X102400000Y-106220000D02*
X104300000Y-106220000D01*
X118500000Y-102500000D02*
X118500000Y-88800000D01*
X124400000Y-104400000D02*
X124400000Y-119400000D01*
X116500000Y-78600000D02*
X116500000Y-81600000D01*
X116500000Y-78600000D02*
X116500000Y-57800000D01*
X87400000Y-82520000D02*
X104300000Y-82520000D01*
X174400000Y-102300000D02*
X190400000Y-102300000D01*
X143700000Y-83800000D02*
X143700000Y-102500000D01*
X99000000Y-57800000D02*
X99000000Y-59600000D01*
X118500000Y-77700000D02*
X118500000Y-88800000D01*
X128800000Y-104400000D02*
X124400000Y-104400000D01*
X104300000Y-82520000D02*
X104300000Y-98220000D01*
X104300000Y-98220000D02*
X104300000Y-100820000D01*
X190400000Y-117800000D02*
X174500000Y-117800000D01*
X116500000Y-57800000D02*
X114000000Y-57800000D01*
X101100000Y-108900000D02*
X101100000Y-110800000D01*
X190400000Y-102300000D02*
X190400000Y-117800000D01*
X192360588Y-88217438D02*
X192265350Y-88169819D01*
X192265350Y-88169819D02*
X192122493Y-88169819D01*
X192122493Y-88169819D02*
X191979636Y-88217438D01*
X191979636Y-88217438D02*
X191884398Y-88312676D01*
X191884398Y-88312676D02*
X191836779Y-88407914D01*
X191836779Y-88407914D02*
X191789160Y-88598390D01*
X191789160Y-88598390D02*
X191789160Y-88741247D01*
X191789160Y-88741247D02*
X191836779Y-88931723D01*
X191836779Y-88931723D02*
X191884398Y-89026961D01*
X191884398Y-89026961D02*
X191979636Y-89122200D01*
X191979636Y-89122200D02*
X192122493Y-89169819D01*
X192122493Y-89169819D02*
X192217731Y-89169819D01*
X192217731Y-89169819D02*
X192360588Y-89122200D01*
X192360588Y-89122200D02*
X192408207Y-89074580D01*
X192408207Y-89074580D02*
X192408207Y-88741247D01*
X192408207Y-88741247D02*
X192217731Y-88741247D01*
X192836779Y-89169819D02*
X192836779Y-88169819D01*
X192836779Y-88169819D02*
X193408207Y-89169819D01*
X193408207Y-89169819D02*
X193408207Y-88169819D01*
X193884398Y-89169819D02*
X193884398Y-88169819D01*
X193884398Y-88169819D02*
X194122493Y-88169819D01*
X194122493Y-88169819D02*
X194265350Y-88217438D01*
X194265350Y-88217438D02*
X194360588Y-88312676D01*
X194360588Y-88312676D02*
X194408207Y-88407914D01*
X194408207Y-88407914D02*
X194455826Y-88598390D01*
X194455826Y-88598390D02*
X194455826Y-88741247D01*
X194455826Y-88741247D02*
X194408207Y-88931723D01*
X194408207Y-88931723D02*
X194360588Y-89026961D01*
X194360588Y-89026961D02*
X194265350Y-89122200D01*
X194265350Y-89122200D02*
X194122493Y-89169819D01*
X194122493Y-89169819D02*
X193884398Y-89169819D01*
X185760588Y-116617438D02*
X185665350Y-116569819D01*
X185665350Y-116569819D02*
X185522493Y-116569819D01*
X185522493Y-116569819D02*
X185379636Y-116617438D01*
X185379636Y-116617438D02*
X185284398Y-116712676D01*
X185284398Y-116712676D02*
X185236779Y-116807914D01*
X185236779Y-116807914D02*
X185189160Y-116998390D01*
X185189160Y-116998390D02*
X185189160Y-117141247D01*
X185189160Y-117141247D02*
X185236779Y-117331723D01*
X185236779Y-117331723D02*
X185284398Y-117426961D01*
X185284398Y-117426961D02*
X185379636Y-117522200D01*
X185379636Y-117522200D02*
X185522493Y-117569819D01*
X185522493Y-117569819D02*
X185617731Y-117569819D01*
X185617731Y-117569819D02*
X185760588Y-117522200D01*
X185760588Y-117522200D02*
X185808207Y-117474580D01*
X185808207Y-117474580D02*
X185808207Y-117141247D01*
X185808207Y-117141247D02*
X185617731Y-117141247D01*
X186236779Y-117569819D02*
X186236779Y-116569819D01*
X186236779Y-116569819D02*
X186808207Y-117569819D01*
X186808207Y-117569819D02*
X186808207Y-116569819D01*
X187284398Y-117569819D02*
X187284398Y-116569819D01*
X187284398Y-116569819D02*
X187522493Y-116569819D01*
X187522493Y-116569819D02*
X187665350Y-116617438D01*
X187665350Y-116617438D02*
X187760588Y-116712676D01*
X187760588Y-116712676D02*
X187808207Y-116807914D01*
X187808207Y-116807914D02*
X187855826Y-116998390D01*
X187855826Y-116998390D02*
X187855826Y-117141247D01*
X187855826Y-117141247D02*
X187808207Y-117331723D01*
X187808207Y-117331723D02*
X187760588Y-117426961D01*
X187760588Y-117426961D02*
X187665350Y-117522200D01*
X187665350Y-117522200D02*
X187522493Y-117569819D01*
X187522493Y-117569819D02*
X187284398Y-117569819D01*
D11*
X178786904Y-61136623D02*
X178370238Y-60541385D01*
X178072619Y-61136623D02*
X178072619Y-59886623D01*
X178072619Y-59886623D02*
X178548809Y-59886623D01*
X178548809Y-59886623D02*
X178667857Y-59946147D01*
X178667857Y-59946147D02*
X178727380Y-60005671D01*
X178727380Y-60005671D02*
X178786904Y-60124719D01*
X178786904Y-60124719D02*
X178786904Y-60303290D01*
X178786904Y-60303290D02*
X178727380Y-60422338D01*
X178727380Y-60422338D02*
X178667857Y-60481861D01*
X178667857Y-60481861D02*
X178548809Y-60541385D01*
X178548809Y-60541385D02*
X178072619Y-60541385D01*
D10*
X102936779Y-111969819D02*
X102936779Y-110969819D01*
X102936779Y-110969819D02*
X103174874Y-110969819D01*
X103174874Y-110969819D02*
X103317731Y-111017438D01*
X103317731Y-111017438D02*
X103412969Y-111112676D01*
X103412969Y-111112676D02*
X103460588Y-111207914D01*
X103460588Y-111207914D02*
X103508207Y-111398390D01*
X103508207Y-111398390D02*
X103508207Y-111541247D01*
X103508207Y-111541247D02*
X103460588Y-111731723D01*
X103460588Y-111731723D02*
X103412969Y-111826961D01*
X103412969Y-111826961D02*
X103317731Y-111922200D01*
X103317731Y-111922200D02*
X103174874Y-111969819D01*
X103174874Y-111969819D02*
X102936779Y-111969819D01*
X104460588Y-111969819D02*
X103889160Y-111969819D01*
X104174874Y-111969819D02*
X104174874Y-110969819D01*
X104174874Y-110969819D02*
X104079636Y-111112676D01*
X104079636Y-111112676D02*
X103984398Y-111207914D01*
X103984398Y-111207914D02*
X103889160Y-111255533D01*
X105079636Y-110969819D02*
X105174874Y-110969819D01*
X105174874Y-110969819D02*
X105270112Y-111017438D01*
X105270112Y-111017438D02*
X105317731Y-111065057D01*
X105317731Y-111065057D02*
X105365350Y-111160295D01*
X105365350Y-111160295D02*
X105412969Y-111350771D01*
X105412969Y-111350771D02*
X105412969Y-111588866D01*
X105412969Y-111588866D02*
X105365350Y-111779342D01*
X105365350Y-111779342D02*
X105317731Y-111874580D01*
X105317731Y-111874580D02*
X105270112Y-111922200D01*
X105270112Y-111922200D02*
X105174874Y-111969819D01*
X105174874Y-111969819D02*
X105079636Y-111969819D01*
X105079636Y-111969819D02*
X104984398Y-111922200D01*
X104984398Y-111922200D02*
X104936779Y-111874580D01*
X104936779Y-111874580D02*
X104889160Y-111779342D01*
X104889160Y-111779342D02*
X104841541Y-111588866D01*
X104841541Y-111588866D02*
X104841541Y-111350771D01*
X104841541Y-111350771D02*
X104889160Y-111160295D01*
X104889160Y-111160295D02*
X104936779Y-111065057D01*
X104936779Y-111065057D02*
X104984398Y-111017438D01*
X104984398Y-111017438D02*
X105079636Y-110969819D01*
D11*
X174577381Y-101181861D02*
X174994047Y-101181861D01*
X175172619Y-101836623D02*
X174577381Y-101836623D01*
X174577381Y-101836623D02*
X174577381Y-100586623D01*
X174577381Y-100586623D02*
X175172619Y-100586623D01*
X175708333Y-101003290D02*
X175708333Y-101836623D01*
X175708333Y-101122338D02*
X175767856Y-101062814D01*
X175767856Y-101062814D02*
X175886904Y-101003290D01*
X175886904Y-101003290D02*
X176065475Y-101003290D01*
X176065475Y-101003290D02*
X176184523Y-101062814D01*
X176184523Y-101062814D02*
X176244047Y-101181861D01*
X176244047Y-101181861D02*
X176244047Y-101836623D01*
X177374999Y-101777100D02*
X177255951Y-101836623D01*
X177255951Y-101836623D02*
X177017856Y-101836623D01*
X177017856Y-101836623D02*
X176898808Y-101777100D01*
X176898808Y-101777100D02*
X176839285Y-101717576D01*
X176839285Y-101717576D02*
X176779761Y-101598528D01*
X176779761Y-101598528D02*
X176779761Y-101241385D01*
X176779761Y-101241385D02*
X176839285Y-101122338D01*
X176839285Y-101122338D02*
X176898808Y-101062814D01*
X176898808Y-101062814D02*
X177017856Y-101003290D01*
X177017856Y-101003290D02*
X177255951Y-101003290D01*
X177255951Y-101003290D02*
X177374999Y-101062814D01*
X178089285Y-101836623D02*
X177970237Y-101777100D01*
X177970237Y-101777100D02*
X177910714Y-101717576D01*
X177910714Y-101717576D02*
X177851190Y-101598528D01*
X177851190Y-101598528D02*
X177851190Y-101241385D01*
X177851190Y-101241385D02*
X177910714Y-101122338D01*
X177910714Y-101122338D02*
X177970237Y-101062814D01*
X177970237Y-101062814D02*
X178089285Y-101003290D01*
X178089285Y-101003290D02*
X178267856Y-101003290D01*
X178267856Y-101003290D02*
X178386904Y-101062814D01*
X178386904Y-101062814D02*
X178446428Y-101122338D01*
X178446428Y-101122338D02*
X178505952Y-101241385D01*
X178505952Y-101241385D02*
X178505952Y-101598528D01*
X178505952Y-101598528D02*
X178446428Y-101717576D01*
X178446428Y-101717576D02*
X178386904Y-101777100D01*
X178386904Y-101777100D02*
X178267856Y-101836623D01*
X178267856Y-101836623D02*
X178089285Y-101836623D01*
X179577380Y-101836623D02*
X179577380Y-100586623D01*
X179577380Y-101777100D02*
X179458332Y-101836623D01*
X179458332Y-101836623D02*
X179220237Y-101836623D01*
X179220237Y-101836623D02*
X179101189Y-101777100D01*
X179101189Y-101777100D02*
X179041666Y-101717576D01*
X179041666Y-101717576D02*
X178982142Y-101598528D01*
X178982142Y-101598528D02*
X178982142Y-101241385D01*
X178982142Y-101241385D02*
X179041666Y-101122338D01*
X179041666Y-101122338D02*
X179101189Y-101062814D01*
X179101189Y-101062814D02*
X179220237Y-101003290D01*
X179220237Y-101003290D02*
X179458332Y-101003290D01*
X179458332Y-101003290D02*
X179577380Y-101062814D01*
X180648808Y-101777100D02*
X180529760Y-101836623D01*
X180529760Y-101836623D02*
X180291665Y-101836623D01*
X180291665Y-101836623D02*
X180172618Y-101777100D01*
X180172618Y-101777100D02*
X180113094Y-101658052D01*
X180113094Y-101658052D02*
X180113094Y-101181861D01*
X180113094Y-101181861D02*
X180172618Y-101062814D01*
X180172618Y-101062814D02*
X180291665Y-101003290D01*
X180291665Y-101003290D02*
X180529760Y-101003290D01*
X180529760Y-101003290D02*
X180648808Y-101062814D01*
X180648808Y-101062814D02*
X180708332Y-101181861D01*
X180708332Y-101181861D02*
X180708332Y-101300909D01*
X180708332Y-101300909D02*
X180113094Y-101419957D01*
X181244047Y-101836623D02*
X181244047Y-101003290D01*
X181244047Y-101241385D02*
X181303570Y-101122338D01*
X181303570Y-101122338D02*
X181363094Y-101062814D01*
X181363094Y-101062814D02*
X181482142Y-101003290D01*
X181482142Y-101003290D02*
X181601189Y-101003290D01*
D10*
X192508207Y-104469819D02*
X192174874Y-103993628D01*
X191936779Y-104469819D02*
X191936779Y-103469819D01*
X191936779Y-103469819D02*
X192317731Y-103469819D01*
X192317731Y-103469819D02*
X192412969Y-103517438D01*
X192412969Y-103517438D02*
X192460588Y-103565057D01*
X192460588Y-103565057D02*
X192508207Y-103660295D01*
X192508207Y-103660295D02*
X192508207Y-103803152D01*
X192508207Y-103803152D02*
X192460588Y-103898390D01*
X192460588Y-103898390D02*
X192412969Y-103946009D01*
X192412969Y-103946009D02*
X192317731Y-103993628D01*
X192317731Y-103993628D02*
X191936779Y-103993628D01*
X192889160Y-104422200D02*
X193032017Y-104469819D01*
X193032017Y-104469819D02*
X193270112Y-104469819D01*
X193270112Y-104469819D02*
X193365350Y-104422200D01*
X193365350Y-104422200D02*
X193412969Y-104374580D01*
X193412969Y-104374580D02*
X193460588Y-104279342D01*
X193460588Y-104279342D02*
X193460588Y-104184104D01*
X193460588Y-104184104D02*
X193412969Y-104088866D01*
X193412969Y-104088866D02*
X193365350Y-104041247D01*
X193365350Y-104041247D02*
X193270112Y-103993628D01*
X193270112Y-103993628D02*
X193079636Y-103946009D01*
X193079636Y-103946009D02*
X192984398Y-103898390D01*
X192984398Y-103898390D02*
X192936779Y-103850771D01*
X192936779Y-103850771D02*
X192889160Y-103755533D01*
X192889160Y-103755533D02*
X192889160Y-103660295D01*
X192889160Y-103660295D02*
X192936779Y-103565057D01*
X192936779Y-103565057D02*
X192984398Y-103517438D01*
X192984398Y-103517438D02*
X193079636Y-103469819D01*
X193079636Y-103469819D02*
X193317731Y-103469819D01*
X193317731Y-103469819D02*
X193460588Y-103517438D01*
X193746303Y-103469819D02*
X194317731Y-103469819D01*
X194032017Y-104469819D02*
X194032017Y-103469819D01*
X113060588Y-118617438D02*
X112965350Y-118569819D01*
X112965350Y-118569819D02*
X112822493Y-118569819D01*
X112822493Y-118569819D02*
X112679636Y-118617438D01*
X112679636Y-118617438D02*
X112584398Y-118712676D01*
X112584398Y-118712676D02*
X112536779Y-118807914D01*
X112536779Y-118807914D02*
X112489160Y-118998390D01*
X112489160Y-118998390D02*
X112489160Y-119141247D01*
X112489160Y-119141247D02*
X112536779Y-119331723D01*
X112536779Y-119331723D02*
X112584398Y-119426961D01*
X112584398Y-119426961D02*
X112679636Y-119522200D01*
X112679636Y-119522200D02*
X112822493Y-119569819D01*
X112822493Y-119569819D02*
X112917731Y-119569819D01*
X112917731Y-119569819D02*
X113060588Y-119522200D01*
X113060588Y-119522200D02*
X113108207Y-119474580D01*
X113108207Y-119474580D02*
X113108207Y-119141247D01*
X113108207Y-119141247D02*
X112917731Y-119141247D01*
X113536779Y-119569819D02*
X113536779Y-118569819D01*
X113536779Y-118569819D02*
X114108207Y-119569819D01*
X114108207Y-119569819D02*
X114108207Y-118569819D01*
X114584398Y-119569819D02*
X114584398Y-118569819D01*
X114584398Y-118569819D02*
X114822493Y-118569819D01*
X114822493Y-118569819D02*
X114965350Y-118617438D01*
X114965350Y-118617438D02*
X115060588Y-118712676D01*
X115060588Y-118712676D02*
X115108207Y-118807914D01*
X115108207Y-118807914D02*
X115155826Y-118998390D01*
X115155826Y-118998390D02*
X115155826Y-119141247D01*
X115155826Y-119141247D02*
X115108207Y-119331723D01*
X115108207Y-119331723D02*
X115060588Y-119426961D01*
X115060588Y-119426961D02*
X114965350Y-119522200D01*
X114965350Y-119522200D02*
X114822493Y-119569819D01*
X114822493Y-119569819D02*
X114584398Y-119569819D01*
X191836779Y-94069819D02*
X191836779Y-93069819D01*
X191836779Y-93069819D02*
X192074874Y-93069819D01*
X192074874Y-93069819D02*
X192217731Y-93117438D01*
X192217731Y-93117438D02*
X192312969Y-93212676D01*
X192312969Y-93212676D02*
X192360588Y-93307914D01*
X192360588Y-93307914D02*
X192408207Y-93498390D01*
X192408207Y-93498390D02*
X192408207Y-93641247D01*
X192408207Y-93641247D02*
X192360588Y-93831723D01*
X192360588Y-93831723D02*
X192312969Y-93926961D01*
X192312969Y-93926961D02*
X192217731Y-94022200D01*
X192217731Y-94022200D02*
X192074874Y-94069819D01*
X192074874Y-94069819D02*
X191836779Y-94069819D01*
X192789160Y-93165057D02*
X192836779Y-93117438D01*
X192836779Y-93117438D02*
X192932017Y-93069819D01*
X192932017Y-93069819D02*
X193170112Y-93069819D01*
X193170112Y-93069819D02*
X193265350Y-93117438D01*
X193265350Y-93117438D02*
X193312969Y-93165057D01*
X193312969Y-93165057D02*
X193360588Y-93260295D01*
X193360588Y-93260295D02*
X193360588Y-93355533D01*
X193360588Y-93355533D02*
X193312969Y-93498390D01*
X193312969Y-93498390D02*
X192741541Y-94069819D01*
X192741541Y-94069819D02*
X193360588Y-94069819D01*
X194265350Y-93069819D02*
X193789160Y-93069819D01*
X193789160Y-93069819D02*
X193741541Y-93546009D01*
X193741541Y-93546009D02*
X193789160Y-93498390D01*
X193789160Y-93498390D02*
X193884398Y-93450771D01*
X193884398Y-93450771D02*
X194122493Y-93450771D01*
X194122493Y-93450771D02*
X194217731Y-93498390D01*
X194217731Y-93498390D02*
X194265350Y-93546009D01*
X194265350Y-93546009D02*
X194312969Y-93641247D01*
X194312969Y-93641247D02*
X194312969Y-93879342D01*
X194312969Y-93879342D02*
X194265350Y-93974580D01*
X194265350Y-93974580D02*
X194217731Y-94022200D01*
X194217731Y-94022200D02*
X194122493Y-94069819D01*
X194122493Y-94069819D02*
X193884398Y-94069819D01*
X193884398Y-94069819D02*
X193789160Y-94022200D01*
X193789160Y-94022200D02*
X193741541Y-93974580D01*
X109589160Y-66322200D02*
X109732017Y-66369819D01*
X109732017Y-66369819D02*
X109970112Y-66369819D01*
X109970112Y-66369819D02*
X110065350Y-66322200D01*
X110065350Y-66322200D02*
X110112969Y-66274580D01*
X110112969Y-66274580D02*
X110160588Y-66179342D01*
X110160588Y-66179342D02*
X110160588Y-66084104D01*
X110160588Y-66084104D02*
X110112969Y-65988866D01*
X110112969Y-65988866D02*
X110065350Y-65941247D01*
X110065350Y-65941247D02*
X109970112Y-65893628D01*
X109970112Y-65893628D02*
X109779636Y-65846009D01*
X109779636Y-65846009D02*
X109684398Y-65798390D01*
X109684398Y-65798390D02*
X109636779Y-65750771D01*
X109636779Y-65750771D02*
X109589160Y-65655533D01*
X109589160Y-65655533D02*
X109589160Y-65560295D01*
X109589160Y-65560295D02*
X109636779Y-65465057D01*
X109636779Y-65465057D02*
X109684398Y-65417438D01*
X109684398Y-65417438D02*
X109779636Y-65369819D01*
X109779636Y-65369819D02*
X110017731Y-65369819D01*
X110017731Y-65369819D02*
X110160588Y-65417438D01*
X110589160Y-66369819D02*
X110589160Y-65369819D01*
X110589160Y-65369819D02*
X110827255Y-65369819D01*
X110827255Y-65369819D02*
X110970112Y-65417438D01*
X110970112Y-65417438D02*
X111065350Y-65512676D01*
X111065350Y-65512676D02*
X111112969Y-65607914D01*
X111112969Y-65607914D02*
X111160588Y-65798390D01*
X111160588Y-65798390D02*
X111160588Y-65941247D01*
X111160588Y-65941247D02*
X111112969Y-66131723D01*
X111112969Y-66131723D02*
X111065350Y-66226961D01*
X111065350Y-66226961D02*
X110970112Y-66322200D01*
X110970112Y-66322200D02*
X110827255Y-66369819D01*
X110827255Y-66369819D02*
X110589160Y-66369819D01*
X111541541Y-66084104D02*
X112017731Y-66084104D01*
X111446303Y-66369819D02*
X111779636Y-65369819D01*
X111779636Y-65369819D02*
X112112969Y-66369819D01*
D11*
X104764286Y-56781861D02*
X104942858Y-56841385D01*
X104942858Y-56841385D02*
X105002381Y-56900909D01*
X105002381Y-56900909D02*
X105061905Y-57019957D01*
X105061905Y-57019957D02*
X105061905Y-57198528D01*
X105061905Y-57198528D02*
X105002381Y-57317576D01*
X105002381Y-57317576D02*
X104942858Y-57377100D01*
X104942858Y-57377100D02*
X104823810Y-57436623D01*
X104823810Y-57436623D02*
X104347620Y-57436623D01*
X104347620Y-57436623D02*
X104347620Y-56186623D01*
X104347620Y-56186623D02*
X104764286Y-56186623D01*
X104764286Y-56186623D02*
X104883334Y-56246147D01*
X104883334Y-56246147D02*
X104942858Y-56305671D01*
X104942858Y-56305671D02*
X105002381Y-56424719D01*
X105002381Y-56424719D02*
X105002381Y-56543766D01*
X105002381Y-56543766D02*
X104942858Y-56662814D01*
X104942858Y-56662814D02*
X104883334Y-56722338D01*
X104883334Y-56722338D02*
X104764286Y-56781861D01*
X104764286Y-56781861D02*
X104347620Y-56781861D01*
X105597620Y-57436623D02*
X105597620Y-56186623D01*
X105597620Y-56186623D02*
X106014286Y-57079480D01*
X106014286Y-57079480D02*
X106430953Y-56186623D01*
X106430953Y-56186623D02*
X106430953Y-57436623D01*
X107026191Y-57436623D02*
X107026191Y-56186623D01*
X107026191Y-56186623D02*
X107502381Y-56186623D01*
X107502381Y-56186623D02*
X107621429Y-56246147D01*
X107621429Y-56246147D02*
X107680952Y-56305671D01*
X107680952Y-56305671D02*
X107740476Y-56424719D01*
X107740476Y-56424719D02*
X107740476Y-56603290D01*
X107740476Y-56603290D02*
X107680952Y-56722338D01*
X107680952Y-56722338D02*
X107621429Y-56781861D01*
X107621429Y-56781861D02*
X107502381Y-56841385D01*
X107502381Y-56841385D02*
X107026191Y-56841385D01*
X108157143Y-56186623D02*
X108930952Y-56186623D01*
X108930952Y-56186623D02*
X108514286Y-56662814D01*
X108514286Y-56662814D02*
X108692857Y-56662814D01*
X108692857Y-56662814D02*
X108811905Y-56722338D01*
X108811905Y-56722338D02*
X108871429Y-56781861D01*
X108871429Y-56781861D02*
X108930952Y-56900909D01*
X108930952Y-56900909D02*
X108930952Y-57198528D01*
X108930952Y-57198528D02*
X108871429Y-57317576D01*
X108871429Y-57317576D02*
X108811905Y-57377100D01*
X108811905Y-57377100D02*
X108692857Y-57436623D01*
X108692857Y-57436623D02*
X108335714Y-57436623D01*
X108335714Y-57436623D02*
X108216667Y-57377100D01*
X108216667Y-57377100D02*
X108157143Y-57317576D01*
X109526190Y-57436623D02*
X109764286Y-57436623D01*
X109764286Y-57436623D02*
X109883333Y-57377100D01*
X109883333Y-57377100D02*
X109942857Y-57317576D01*
X109942857Y-57317576D02*
X110061905Y-57139004D01*
X110061905Y-57139004D02*
X110121428Y-56900909D01*
X110121428Y-56900909D02*
X110121428Y-56424719D01*
X110121428Y-56424719D02*
X110061905Y-56305671D01*
X110061905Y-56305671D02*
X110002381Y-56246147D01*
X110002381Y-56246147D02*
X109883333Y-56186623D01*
X109883333Y-56186623D02*
X109645238Y-56186623D01*
X109645238Y-56186623D02*
X109526190Y-56246147D01*
X109526190Y-56246147D02*
X109466667Y-56305671D01*
X109466667Y-56305671D02*
X109407143Y-56424719D01*
X109407143Y-56424719D02*
X109407143Y-56722338D01*
X109407143Y-56722338D02*
X109466667Y-56841385D01*
X109466667Y-56841385D02*
X109526190Y-56900909D01*
X109526190Y-56900909D02*
X109645238Y-56960433D01*
X109645238Y-56960433D02*
X109883333Y-56960433D01*
X109883333Y-56960433D02*
X110002381Y-56900909D01*
X110002381Y-56900909D02*
X110061905Y-56841385D01*
X110061905Y-56841385D02*
X110121428Y-56722338D01*
X110895238Y-56186623D02*
X111014285Y-56186623D01*
X111014285Y-56186623D02*
X111133333Y-56246147D01*
X111133333Y-56246147D02*
X111192857Y-56305671D01*
X111192857Y-56305671D02*
X111252381Y-56424719D01*
X111252381Y-56424719D02*
X111311904Y-56662814D01*
X111311904Y-56662814D02*
X111311904Y-56960433D01*
X111311904Y-56960433D02*
X111252381Y-57198528D01*
X111252381Y-57198528D02*
X111192857Y-57317576D01*
X111192857Y-57317576D02*
X111133333Y-57377100D01*
X111133333Y-57377100D02*
X111014285Y-57436623D01*
X111014285Y-57436623D02*
X110895238Y-57436623D01*
X110895238Y-57436623D02*
X110776190Y-57377100D01*
X110776190Y-57377100D02*
X110716666Y-57317576D01*
X110716666Y-57317576D02*
X110657143Y-57198528D01*
X110657143Y-57198528D02*
X110597619Y-56960433D01*
X110597619Y-56960433D02*
X110597619Y-56662814D01*
X110597619Y-56662814D02*
X110657143Y-56424719D01*
X110657143Y-56424719D02*
X110716666Y-56305671D01*
X110716666Y-56305671D02*
X110776190Y-56246147D01*
X110776190Y-56246147D02*
X110895238Y-56186623D01*
D10*
X191136779Y-78869819D02*
X191136779Y-77869819D01*
X191136779Y-77869819D02*
X191470112Y-78584104D01*
X191470112Y-78584104D02*
X191803445Y-77869819D01*
X191803445Y-77869819D02*
X191803445Y-78869819D01*
X192279636Y-78869819D02*
X192279636Y-77869819D01*
X192708207Y-78822200D02*
X192851064Y-78869819D01*
X192851064Y-78869819D02*
X193089159Y-78869819D01*
X193089159Y-78869819D02*
X193184397Y-78822200D01*
X193184397Y-78822200D02*
X193232016Y-78774580D01*
X193232016Y-78774580D02*
X193279635Y-78679342D01*
X193279635Y-78679342D02*
X193279635Y-78584104D01*
X193279635Y-78584104D02*
X193232016Y-78488866D01*
X193232016Y-78488866D02*
X193184397Y-78441247D01*
X193184397Y-78441247D02*
X193089159Y-78393628D01*
X193089159Y-78393628D02*
X192898683Y-78346009D01*
X192898683Y-78346009D02*
X192803445Y-78298390D01*
X192803445Y-78298390D02*
X192755826Y-78250771D01*
X192755826Y-78250771D02*
X192708207Y-78155533D01*
X192708207Y-78155533D02*
X192708207Y-78060295D01*
X192708207Y-78060295D02*
X192755826Y-77965057D01*
X192755826Y-77965057D02*
X192803445Y-77917438D01*
X192803445Y-77917438D02*
X192898683Y-77869819D01*
X192898683Y-77869819D02*
X193136778Y-77869819D01*
X193136778Y-77869819D02*
X193279635Y-77917438D01*
X193898683Y-77869819D02*
X194089159Y-77869819D01*
X194089159Y-77869819D02*
X194184397Y-77917438D01*
X194184397Y-77917438D02*
X194279635Y-78012676D01*
X194279635Y-78012676D02*
X194327254Y-78203152D01*
X194327254Y-78203152D02*
X194327254Y-78536485D01*
X194327254Y-78536485D02*
X194279635Y-78726961D01*
X194279635Y-78726961D02*
X194184397Y-78822200D01*
X194184397Y-78822200D02*
X194089159Y-78869819D01*
X194089159Y-78869819D02*
X193898683Y-78869819D01*
X193898683Y-78869819D02*
X193803445Y-78822200D01*
X193803445Y-78822200D02*
X193708207Y-78726961D01*
X193708207Y-78726961D02*
X193660588Y-78536485D01*
X193660588Y-78536485D02*
X193660588Y-78203152D01*
X193660588Y-78203152D02*
X193708207Y-78012676D01*
X193708207Y-78012676D02*
X193803445Y-77917438D01*
X193803445Y-77917438D02*
X193898683Y-77869819D01*
X129536779Y-109169819D02*
X129536779Y-108169819D01*
X129536779Y-108169819D02*
X129774874Y-108169819D01*
X129774874Y-108169819D02*
X129917731Y-108217438D01*
X129917731Y-108217438D02*
X130012969Y-108312676D01*
X130012969Y-108312676D02*
X130060588Y-108407914D01*
X130060588Y-108407914D02*
X130108207Y-108598390D01*
X130108207Y-108598390D02*
X130108207Y-108741247D01*
X130108207Y-108741247D02*
X130060588Y-108931723D01*
X130060588Y-108931723D02*
X130012969Y-109026961D01*
X130012969Y-109026961D02*
X129917731Y-109122200D01*
X129917731Y-109122200D02*
X129774874Y-109169819D01*
X129774874Y-109169819D02*
X129536779Y-109169819D01*
X131060588Y-109169819D02*
X130489160Y-109169819D01*
X130774874Y-109169819D02*
X130774874Y-108169819D01*
X130774874Y-108169819D02*
X130679636Y-108312676D01*
X130679636Y-108312676D02*
X130584398Y-108407914D01*
X130584398Y-108407914D02*
X130489160Y-108455533D01*
X131441541Y-108265057D02*
X131489160Y-108217438D01*
X131489160Y-108217438D02*
X131584398Y-108169819D01*
X131584398Y-108169819D02*
X131822493Y-108169819D01*
X131822493Y-108169819D02*
X131917731Y-108217438D01*
X131917731Y-108217438D02*
X131965350Y-108265057D01*
X131965350Y-108265057D02*
X132012969Y-108360295D01*
X132012969Y-108360295D02*
X132012969Y-108455533D01*
X132012969Y-108455533D02*
X131965350Y-108598390D01*
X131965350Y-108598390D02*
X131393922Y-109169819D01*
X131393922Y-109169819D02*
X132012969Y-109169819D01*
X132938095Y-111259875D02*
X132938095Y-112069398D01*
X132938095Y-112069398D02*
X132985714Y-112164636D01*
X132985714Y-112164636D02*
X133033333Y-112212256D01*
X133033333Y-112212256D02*
X133128571Y-112259875D01*
X133128571Y-112259875D02*
X133319047Y-112259875D01*
X133319047Y-112259875D02*
X133414285Y-112212256D01*
X133414285Y-112212256D02*
X133461904Y-112164636D01*
X133461904Y-112164636D02*
X133509523Y-112069398D01*
X133509523Y-112069398D02*
X133509523Y-111259875D01*
X133938095Y-112212256D02*
X134080952Y-112259875D01*
X134080952Y-112259875D02*
X134319047Y-112259875D01*
X134319047Y-112259875D02*
X134414285Y-112212256D01*
X134414285Y-112212256D02*
X134461904Y-112164636D01*
X134461904Y-112164636D02*
X134509523Y-112069398D01*
X134509523Y-112069398D02*
X134509523Y-111974160D01*
X134509523Y-111974160D02*
X134461904Y-111878922D01*
X134461904Y-111878922D02*
X134414285Y-111831303D01*
X134414285Y-111831303D02*
X134319047Y-111783684D01*
X134319047Y-111783684D02*
X134128571Y-111736065D01*
X134128571Y-111736065D02*
X134033333Y-111688446D01*
X134033333Y-111688446D02*
X133985714Y-111640827D01*
X133985714Y-111640827D02*
X133938095Y-111545589D01*
X133938095Y-111545589D02*
X133938095Y-111450351D01*
X133938095Y-111450351D02*
X133985714Y-111355113D01*
X133985714Y-111355113D02*
X134033333Y-111307494D01*
X134033333Y-111307494D02*
X134128571Y-111259875D01*
X134128571Y-111259875D02*
X134366666Y-111259875D01*
X134366666Y-111259875D02*
X134509523Y-111307494D01*
X135271428Y-111736065D02*
X135414285Y-111783684D01*
X135414285Y-111783684D02*
X135461904Y-111831303D01*
X135461904Y-111831303D02*
X135509523Y-111926541D01*
X135509523Y-111926541D02*
X135509523Y-112069398D01*
X135509523Y-112069398D02*
X135461904Y-112164636D01*
X135461904Y-112164636D02*
X135414285Y-112212256D01*
X135414285Y-112212256D02*
X135319047Y-112259875D01*
X135319047Y-112259875D02*
X134938095Y-112259875D01*
X134938095Y-112259875D02*
X134938095Y-111259875D01*
X134938095Y-111259875D02*
X135271428Y-111259875D01*
X135271428Y-111259875D02*
X135366666Y-111307494D01*
X135366666Y-111307494D02*
X135414285Y-111355113D01*
X135414285Y-111355113D02*
X135461904Y-111450351D01*
X135461904Y-111450351D02*
X135461904Y-111545589D01*
X135461904Y-111545589D02*
X135414285Y-111640827D01*
X135414285Y-111640827D02*
X135366666Y-111688446D01*
X135366666Y-111688446D02*
X135271428Y-111736065D01*
X135271428Y-111736065D02*
X134938095Y-111736065D01*
X134009523Y-112869819D02*
X133533333Y-112869819D01*
X133533333Y-112869819D02*
X133485714Y-113346009D01*
X133485714Y-113346009D02*
X133533333Y-113298390D01*
X133533333Y-113298390D02*
X133628571Y-113250771D01*
X133628571Y-113250771D02*
X133866666Y-113250771D01*
X133866666Y-113250771D02*
X133961904Y-113298390D01*
X133961904Y-113298390D02*
X134009523Y-113346009D01*
X134009523Y-113346009D02*
X134057142Y-113441247D01*
X134057142Y-113441247D02*
X134057142Y-113679342D01*
X134057142Y-113679342D02*
X134009523Y-113774580D01*
X134009523Y-113774580D02*
X133961904Y-113822200D01*
X133961904Y-113822200D02*
X133866666Y-113869819D01*
X133866666Y-113869819D02*
X133628571Y-113869819D01*
X133628571Y-113869819D02*
X133533333Y-113822200D01*
X133533333Y-113822200D02*
X133485714Y-113774580D01*
X134342857Y-112869819D02*
X134676190Y-113869819D01*
X134676190Y-113869819D02*
X135009523Y-112869819D01*
X181885714Y-107969819D02*
X181885714Y-106969819D01*
X181885714Y-106969819D02*
X182123809Y-106969819D01*
X182123809Y-106969819D02*
X182266666Y-107017438D01*
X182266666Y-107017438D02*
X182361904Y-107112676D01*
X182361904Y-107112676D02*
X182409523Y-107207914D01*
X182409523Y-107207914D02*
X182457142Y-107398390D01*
X182457142Y-107398390D02*
X182457142Y-107541247D01*
X182457142Y-107541247D02*
X182409523Y-107731723D01*
X182409523Y-107731723D02*
X182361904Y-107826961D01*
X182361904Y-107826961D02*
X182266666Y-107922200D01*
X182266666Y-107922200D02*
X182123809Y-107969819D01*
X182123809Y-107969819D02*
X181885714Y-107969819D01*
X182838095Y-107065057D02*
X182885714Y-107017438D01*
X182885714Y-107017438D02*
X182980952Y-106969819D01*
X182980952Y-106969819D02*
X183219047Y-106969819D01*
X183219047Y-106969819D02*
X183314285Y-107017438D01*
X183314285Y-107017438D02*
X183361904Y-107065057D01*
X183361904Y-107065057D02*
X183409523Y-107160295D01*
X183409523Y-107160295D02*
X183409523Y-107255533D01*
X183409523Y-107255533D02*
X183361904Y-107398390D01*
X183361904Y-107398390D02*
X182790476Y-107969819D01*
X182790476Y-107969819D02*
X183409523Y-107969819D01*
X184266666Y-107303152D02*
X184266666Y-107969819D01*
X184028571Y-106922200D02*
X183790476Y-107636485D01*
X183790476Y-107636485D02*
X184409523Y-107636485D01*
X195560588Y-115417438D02*
X195465350Y-115369819D01*
X195465350Y-115369819D02*
X195322493Y-115369819D01*
X195322493Y-115369819D02*
X195179636Y-115417438D01*
X195179636Y-115417438D02*
X195084398Y-115512676D01*
X195084398Y-115512676D02*
X195036779Y-115607914D01*
X195036779Y-115607914D02*
X194989160Y-115798390D01*
X194989160Y-115798390D02*
X194989160Y-115941247D01*
X194989160Y-115941247D02*
X195036779Y-116131723D01*
X195036779Y-116131723D02*
X195084398Y-116226961D01*
X195084398Y-116226961D02*
X195179636Y-116322200D01*
X195179636Y-116322200D02*
X195322493Y-116369819D01*
X195322493Y-116369819D02*
X195417731Y-116369819D01*
X195417731Y-116369819D02*
X195560588Y-116322200D01*
X195560588Y-116322200D02*
X195608207Y-116274580D01*
X195608207Y-116274580D02*
X195608207Y-115941247D01*
X195608207Y-115941247D02*
X195417731Y-115941247D01*
X196036779Y-116369819D02*
X196036779Y-115369819D01*
X196036779Y-115369819D02*
X196608207Y-116369819D01*
X196608207Y-116369819D02*
X196608207Y-115369819D01*
X197084398Y-116369819D02*
X197084398Y-115369819D01*
X197084398Y-115369819D02*
X197322493Y-115369819D01*
X197322493Y-115369819D02*
X197465350Y-115417438D01*
X197465350Y-115417438D02*
X197560588Y-115512676D01*
X197560588Y-115512676D02*
X197608207Y-115607914D01*
X197608207Y-115607914D02*
X197655826Y-115798390D01*
X197655826Y-115798390D02*
X197655826Y-115941247D01*
X197655826Y-115941247D02*
X197608207Y-116131723D01*
X197608207Y-116131723D02*
X197560588Y-116226961D01*
X197560588Y-116226961D02*
X197465350Y-116322200D01*
X197465350Y-116322200D02*
X197322493Y-116369819D01*
X197322493Y-116369819D02*
X197084398Y-116369819D01*
D12*
X134173558Y-57172131D02*
X134840225Y-57172131D01*
X135125939Y-58219750D02*
X134173558Y-58219750D01*
X134173558Y-58219750D02*
X134173558Y-56219750D01*
X134173558Y-56219750D02*
X135125939Y-56219750D01*
X137125939Y-58029273D02*
X137030701Y-58124512D01*
X137030701Y-58124512D02*
X136744987Y-58219750D01*
X136744987Y-58219750D02*
X136554511Y-58219750D01*
X136554511Y-58219750D02*
X136268796Y-58124512D01*
X136268796Y-58124512D02*
X136078320Y-57934035D01*
X136078320Y-57934035D02*
X135983082Y-57743559D01*
X135983082Y-57743559D02*
X135887844Y-57362607D01*
X135887844Y-57362607D02*
X135887844Y-57076892D01*
X135887844Y-57076892D02*
X135983082Y-56695940D01*
X135983082Y-56695940D02*
X136078320Y-56505464D01*
X136078320Y-56505464D02*
X136268796Y-56314988D01*
X136268796Y-56314988D02*
X136554511Y-56219750D01*
X136554511Y-56219750D02*
X136744987Y-56219750D01*
X136744987Y-56219750D02*
X137030701Y-56314988D01*
X137030701Y-56314988D02*
X137125939Y-56410226D01*
X137983082Y-57172131D02*
X138649749Y-57172131D01*
X138935463Y-58219750D02*
X137983082Y-58219750D01*
X137983082Y-58219750D02*
X137983082Y-56219750D01*
X137983082Y-56219750D02*
X138935463Y-56219750D01*
X140744987Y-56219750D02*
X139792606Y-56219750D01*
X139792606Y-56219750D02*
X139697368Y-57172131D01*
X139697368Y-57172131D02*
X139792606Y-57076892D01*
X139792606Y-57076892D02*
X139983082Y-56981654D01*
X139983082Y-56981654D02*
X140459273Y-56981654D01*
X140459273Y-56981654D02*
X140649749Y-57076892D01*
X140649749Y-57076892D02*
X140744987Y-57172131D01*
X140744987Y-57172131D02*
X140840225Y-57362607D01*
X140840225Y-57362607D02*
X140840225Y-57838797D01*
X140840225Y-57838797D02*
X140744987Y-58029273D01*
X140744987Y-58029273D02*
X140649749Y-58124512D01*
X140649749Y-58124512D02*
X140459273Y-58219750D01*
X140459273Y-58219750D02*
X139983082Y-58219750D01*
X139983082Y-58219750D02*
X139792606Y-58124512D01*
X139792606Y-58124512D02*
X139697368Y-58029273D01*
X142554511Y-56219750D02*
X142173558Y-56219750D01*
X142173558Y-56219750D02*
X141983082Y-56314988D01*
X141983082Y-56314988D02*
X141887844Y-56410226D01*
X141887844Y-56410226D02*
X141697368Y-56695940D01*
X141697368Y-56695940D02*
X141602130Y-57076892D01*
X141602130Y-57076892D02*
X141602130Y-57838797D01*
X141602130Y-57838797D02*
X141697368Y-58029273D01*
X141697368Y-58029273D02*
X141792606Y-58124512D01*
X141792606Y-58124512D02*
X141983082Y-58219750D01*
X141983082Y-58219750D02*
X142364035Y-58219750D01*
X142364035Y-58219750D02*
X142554511Y-58124512D01*
X142554511Y-58124512D02*
X142649749Y-58029273D01*
X142649749Y-58029273D02*
X142744987Y-57838797D01*
X142744987Y-57838797D02*
X142744987Y-57362607D01*
X142744987Y-57362607D02*
X142649749Y-57172131D01*
X142649749Y-57172131D02*
X142554511Y-57076892D01*
X142554511Y-57076892D02*
X142364035Y-56981654D01*
X142364035Y-56981654D02*
X141983082Y-56981654D01*
X141983082Y-56981654D02*
X141792606Y-57076892D01*
X141792606Y-57076892D02*
X141697368Y-57172131D01*
X141697368Y-57172131D02*
X141602130Y-57362607D01*
X143887844Y-57076892D02*
X143697368Y-56981654D01*
X143697368Y-56981654D02*
X143602130Y-56886416D01*
X143602130Y-56886416D02*
X143506892Y-56695940D01*
X143506892Y-56695940D02*
X143506892Y-56600702D01*
X143506892Y-56600702D02*
X143602130Y-56410226D01*
X143602130Y-56410226D02*
X143697368Y-56314988D01*
X143697368Y-56314988D02*
X143887844Y-56219750D01*
X143887844Y-56219750D02*
X144268797Y-56219750D01*
X144268797Y-56219750D02*
X144459273Y-56314988D01*
X144459273Y-56314988D02*
X144554511Y-56410226D01*
X144554511Y-56410226D02*
X144649749Y-56600702D01*
X144649749Y-56600702D02*
X144649749Y-56695940D01*
X144649749Y-56695940D02*
X144554511Y-56886416D01*
X144554511Y-56886416D02*
X144459273Y-56981654D01*
X144459273Y-56981654D02*
X144268797Y-57076892D01*
X144268797Y-57076892D02*
X143887844Y-57076892D01*
X143887844Y-57076892D02*
X143697368Y-57172131D01*
X143697368Y-57172131D02*
X143602130Y-57267369D01*
X143602130Y-57267369D02*
X143506892Y-57457845D01*
X143506892Y-57457845D02*
X143506892Y-57838797D01*
X143506892Y-57838797D02*
X143602130Y-58029273D01*
X143602130Y-58029273D02*
X143697368Y-58124512D01*
X143697368Y-58124512D02*
X143887844Y-58219750D01*
X143887844Y-58219750D02*
X144268797Y-58219750D01*
X144268797Y-58219750D02*
X144459273Y-58124512D01*
X144459273Y-58124512D02*
X144554511Y-58029273D01*
X144554511Y-58029273D02*
X144649749Y-57838797D01*
X144649749Y-57838797D02*
X144649749Y-57457845D01*
X144649749Y-57457845D02*
X144554511Y-57267369D01*
X144554511Y-57267369D02*
X144459273Y-57172131D01*
X144459273Y-57172131D02*
X144268797Y-57076892D01*
X145887844Y-56219750D02*
X146078321Y-56219750D01*
X146078321Y-56219750D02*
X146268797Y-56314988D01*
X146268797Y-56314988D02*
X146364035Y-56410226D01*
X146364035Y-56410226D02*
X146459273Y-56600702D01*
X146459273Y-56600702D02*
X146554511Y-56981654D01*
X146554511Y-56981654D02*
X146554511Y-57457845D01*
X146554511Y-57457845D02*
X146459273Y-57838797D01*
X146459273Y-57838797D02*
X146364035Y-58029273D01*
X146364035Y-58029273D02*
X146268797Y-58124512D01*
X146268797Y-58124512D02*
X146078321Y-58219750D01*
X146078321Y-58219750D02*
X145887844Y-58219750D01*
X145887844Y-58219750D02*
X145697368Y-58124512D01*
X145697368Y-58124512D02*
X145602130Y-58029273D01*
X145602130Y-58029273D02*
X145506892Y-57838797D01*
X145506892Y-57838797D02*
X145411654Y-57457845D01*
X145411654Y-57457845D02*
X145411654Y-56981654D01*
X145411654Y-56981654D02*
X145506892Y-56600702D01*
X145506892Y-56600702D02*
X145602130Y-56410226D01*
X145602130Y-56410226D02*
X145697368Y-56314988D01*
X145697368Y-56314988D02*
X145887844Y-56219750D01*
X147792606Y-56219750D02*
X147983083Y-56219750D01*
X147983083Y-56219750D02*
X148173559Y-56314988D01*
X148173559Y-56314988D02*
X148268797Y-56410226D01*
X148268797Y-56410226D02*
X148364035Y-56600702D01*
X148364035Y-56600702D02*
X148459273Y-56981654D01*
X148459273Y-56981654D02*
X148459273Y-57457845D01*
X148459273Y-57457845D02*
X148364035Y-57838797D01*
X148364035Y-57838797D02*
X148268797Y-58029273D01*
X148268797Y-58029273D02*
X148173559Y-58124512D01*
X148173559Y-58124512D02*
X147983083Y-58219750D01*
X147983083Y-58219750D02*
X147792606Y-58219750D01*
X147792606Y-58219750D02*
X147602130Y-58124512D01*
X147602130Y-58124512D02*
X147506892Y-58029273D01*
X147506892Y-58029273D02*
X147411654Y-57838797D01*
X147411654Y-57838797D02*
X147316416Y-57457845D01*
X147316416Y-57457845D02*
X147316416Y-56981654D01*
X147316416Y-56981654D02*
X147411654Y-56600702D01*
X147411654Y-56600702D02*
X147506892Y-56410226D01*
X147506892Y-56410226D02*
X147602130Y-56314988D01*
X147602130Y-56314988D02*
X147792606Y-56219750D01*
X135221177Y-59534876D02*
X135030701Y-59439638D01*
X135030701Y-59439638D02*
X134744987Y-59439638D01*
X134744987Y-59439638D02*
X134459272Y-59534876D01*
X134459272Y-59534876D02*
X134268796Y-59725352D01*
X134268796Y-59725352D02*
X134173558Y-59915828D01*
X134173558Y-59915828D02*
X134078320Y-60296780D01*
X134078320Y-60296780D02*
X134078320Y-60582495D01*
X134078320Y-60582495D02*
X134173558Y-60963447D01*
X134173558Y-60963447D02*
X134268796Y-61153923D01*
X134268796Y-61153923D02*
X134459272Y-61344400D01*
X134459272Y-61344400D02*
X134744987Y-61439638D01*
X134744987Y-61439638D02*
X134935463Y-61439638D01*
X134935463Y-61439638D02*
X135221177Y-61344400D01*
X135221177Y-61344400D02*
X135316415Y-61249161D01*
X135316415Y-61249161D02*
X135316415Y-60582495D01*
X135316415Y-60582495D02*
X134935463Y-60582495D01*
X136173558Y-61439638D02*
X136173558Y-60106304D01*
X136173558Y-60487257D02*
X136268796Y-60296780D01*
X136268796Y-60296780D02*
X136364034Y-60201542D01*
X136364034Y-60201542D02*
X136554510Y-60106304D01*
X136554510Y-60106304D02*
X136744987Y-60106304D01*
X137697367Y-61439638D02*
X137506891Y-61344400D01*
X137506891Y-61344400D02*
X137411653Y-61249161D01*
X137411653Y-61249161D02*
X137316415Y-61058685D01*
X137316415Y-61058685D02*
X137316415Y-60487257D01*
X137316415Y-60487257D02*
X137411653Y-60296780D01*
X137411653Y-60296780D02*
X137506891Y-60201542D01*
X137506891Y-60201542D02*
X137697367Y-60106304D01*
X137697367Y-60106304D02*
X137983082Y-60106304D01*
X137983082Y-60106304D02*
X138173558Y-60201542D01*
X138173558Y-60201542D02*
X138268796Y-60296780D01*
X138268796Y-60296780D02*
X138364034Y-60487257D01*
X138364034Y-60487257D02*
X138364034Y-61058685D01*
X138364034Y-61058685D02*
X138268796Y-61249161D01*
X138268796Y-61249161D02*
X138173558Y-61344400D01*
X138173558Y-61344400D02*
X137983082Y-61439638D01*
X137983082Y-61439638D02*
X137697367Y-61439638D01*
X140078320Y-60106304D02*
X140078320Y-61439638D01*
X139221177Y-60106304D02*
X139221177Y-61153923D01*
X139221177Y-61153923D02*
X139316415Y-61344400D01*
X139316415Y-61344400D02*
X139506891Y-61439638D01*
X139506891Y-61439638D02*
X139792606Y-61439638D01*
X139792606Y-61439638D02*
X139983082Y-61344400D01*
X139983082Y-61344400D02*
X140078320Y-61249161D01*
X141030701Y-60106304D02*
X141030701Y-61439638D01*
X141030701Y-60296780D02*
X141125939Y-60201542D01*
X141125939Y-60201542D02*
X141316415Y-60106304D01*
X141316415Y-60106304D02*
X141602130Y-60106304D01*
X141602130Y-60106304D02*
X141792606Y-60201542D01*
X141792606Y-60201542D02*
X141887844Y-60392019D01*
X141887844Y-60392019D02*
X141887844Y-61439638D01*
X143697368Y-61439638D02*
X143697368Y-59439638D01*
X143697368Y-61344400D02*
X143506892Y-61439638D01*
X143506892Y-61439638D02*
X143125939Y-61439638D01*
X143125939Y-61439638D02*
X142935463Y-61344400D01*
X142935463Y-61344400D02*
X142840225Y-61249161D01*
X142840225Y-61249161D02*
X142744987Y-61058685D01*
X142744987Y-61058685D02*
X142744987Y-60487257D01*
X142744987Y-60487257D02*
X142840225Y-60296780D01*
X142840225Y-60296780D02*
X142935463Y-60201542D01*
X142935463Y-60201542D02*
X143125939Y-60106304D01*
X143125939Y-60106304D02*
X143506892Y-60106304D01*
X143506892Y-60106304D02*
X143697368Y-60201542D01*
X146078321Y-61344400D02*
X146364035Y-61439638D01*
X146364035Y-61439638D02*
X146840226Y-61439638D01*
X146840226Y-61439638D02*
X147030702Y-61344400D01*
X147030702Y-61344400D02*
X147125940Y-61249161D01*
X147125940Y-61249161D02*
X147221178Y-61058685D01*
X147221178Y-61058685D02*
X147221178Y-60868209D01*
X147221178Y-60868209D02*
X147125940Y-60677733D01*
X147125940Y-60677733D02*
X147030702Y-60582495D01*
X147030702Y-60582495D02*
X146840226Y-60487257D01*
X146840226Y-60487257D02*
X146459273Y-60392019D01*
X146459273Y-60392019D02*
X146268797Y-60296780D01*
X146268797Y-60296780D02*
X146173559Y-60201542D01*
X146173559Y-60201542D02*
X146078321Y-60011066D01*
X146078321Y-60011066D02*
X146078321Y-59820590D01*
X146078321Y-59820590D02*
X146173559Y-59630114D01*
X146173559Y-59630114D02*
X146268797Y-59534876D01*
X146268797Y-59534876D02*
X146459273Y-59439638D01*
X146459273Y-59439638D02*
X146935464Y-59439638D01*
X146935464Y-59439638D02*
X147221178Y-59534876D01*
X147792607Y-60106304D02*
X148554511Y-60106304D01*
X148078321Y-59439638D02*
X148078321Y-61153923D01*
X148078321Y-61153923D02*
X148173559Y-61344400D01*
X148173559Y-61344400D02*
X148364035Y-61439638D01*
X148364035Y-61439638D02*
X148554511Y-61439638D01*
X150078321Y-61439638D02*
X150078321Y-60392019D01*
X150078321Y-60392019D02*
X149983083Y-60201542D01*
X149983083Y-60201542D02*
X149792607Y-60106304D01*
X149792607Y-60106304D02*
X149411654Y-60106304D01*
X149411654Y-60106304D02*
X149221178Y-60201542D01*
X150078321Y-61344400D02*
X149887845Y-61439638D01*
X149887845Y-61439638D02*
X149411654Y-61439638D01*
X149411654Y-61439638D02*
X149221178Y-61344400D01*
X149221178Y-61344400D02*
X149125940Y-61153923D01*
X149125940Y-61153923D02*
X149125940Y-60963447D01*
X149125940Y-60963447D02*
X149221178Y-60772971D01*
X149221178Y-60772971D02*
X149411654Y-60677733D01*
X149411654Y-60677733D02*
X149887845Y-60677733D01*
X149887845Y-60677733D02*
X150078321Y-60582495D01*
X150744988Y-60106304D02*
X151506892Y-60106304D01*
X151030702Y-59439638D02*
X151030702Y-61153923D01*
X151030702Y-61153923D02*
X151125940Y-61344400D01*
X151125940Y-61344400D02*
X151316416Y-61439638D01*
X151316416Y-61439638D02*
X151506892Y-61439638D01*
X152173559Y-61439638D02*
X152173559Y-60106304D01*
X152173559Y-59439638D02*
X152078321Y-59534876D01*
X152078321Y-59534876D02*
X152173559Y-59630114D01*
X152173559Y-59630114D02*
X152268797Y-59534876D01*
X152268797Y-59534876D02*
X152173559Y-59439638D01*
X152173559Y-59439638D02*
X152173559Y-59630114D01*
X153411654Y-61439638D02*
X153221178Y-61344400D01*
X153221178Y-61344400D02*
X153125940Y-61249161D01*
X153125940Y-61249161D02*
X153030702Y-61058685D01*
X153030702Y-61058685D02*
X153030702Y-60487257D01*
X153030702Y-60487257D02*
X153125940Y-60296780D01*
X153125940Y-60296780D02*
X153221178Y-60201542D01*
X153221178Y-60201542D02*
X153411654Y-60106304D01*
X153411654Y-60106304D02*
X153697369Y-60106304D01*
X153697369Y-60106304D02*
X153887845Y-60201542D01*
X153887845Y-60201542D02*
X153983083Y-60296780D01*
X153983083Y-60296780D02*
X154078321Y-60487257D01*
X154078321Y-60487257D02*
X154078321Y-61058685D01*
X154078321Y-61058685D02*
X153983083Y-61249161D01*
X153983083Y-61249161D02*
X153887845Y-61344400D01*
X153887845Y-61344400D02*
X153697369Y-61439638D01*
X153697369Y-61439638D02*
X153411654Y-61439638D01*
X154935464Y-60106304D02*
X154935464Y-61439638D01*
X154935464Y-60296780D02*
X155030702Y-60201542D01*
X155030702Y-60201542D02*
X155221178Y-60106304D01*
X155221178Y-60106304D02*
X155506893Y-60106304D01*
X155506893Y-60106304D02*
X155697369Y-60201542D01*
X155697369Y-60201542D02*
X155792607Y-60392019D01*
X155792607Y-60392019D02*
X155792607Y-61439638D01*
D11*
X148483333Y-71581861D02*
X148066667Y-71581861D01*
X148066667Y-72236623D02*
X148066667Y-70986623D01*
X148066667Y-70986623D02*
X148661905Y-70986623D01*
X149614286Y-72177100D02*
X149495238Y-72236623D01*
X149495238Y-72236623D02*
X149257143Y-72236623D01*
X149257143Y-72236623D02*
X149138096Y-72177100D01*
X149138096Y-72177100D02*
X149078572Y-72058052D01*
X149078572Y-72058052D02*
X149078572Y-71581861D01*
X149078572Y-71581861D02*
X149138096Y-71462814D01*
X149138096Y-71462814D02*
X149257143Y-71403290D01*
X149257143Y-71403290D02*
X149495238Y-71403290D01*
X149495238Y-71403290D02*
X149614286Y-71462814D01*
X149614286Y-71462814D02*
X149673810Y-71581861D01*
X149673810Y-71581861D02*
X149673810Y-71700909D01*
X149673810Y-71700909D02*
X149078572Y-71819957D01*
X150745239Y-72236623D02*
X150745239Y-71581861D01*
X150745239Y-71581861D02*
X150685715Y-71462814D01*
X150685715Y-71462814D02*
X150566667Y-71403290D01*
X150566667Y-71403290D02*
X150328572Y-71403290D01*
X150328572Y-71403290D02*
X150209525Y-71462814D01*
X150745239Y-72177100D02*
X150626191Y-72236623D01*
X150626191Y-72236623D02*
X150328572Y-72236623D01*
X150328572Y-72236623D02*
X150209525Y-72177100D01*
X150209525Y-72177100D02*
X150150001Y-72058052D01*
X150150001Y-72058052D02*
X150150001Y-71939004D01*
X150150001Y-71939004D02*
X150209525Y-71819957D01*
X150209525Y-71819957D02*
X150328572Y-71760433D01*
X150328572Y-71760433D02*
X150626191Y-71760433D01*
X150626191Y-71760433D02*
X150745239Y-71700909D01*
X151161905Y-71403290D02*
X151638096Y-71403290D01*
X151340477Y-70986623D02*
X151340477Y-72058052D01*
X151340477Y-72058052D02*
X151400000Y-72177100D01*
X151400000Y-72177100D02*
X151519048Y-72236623D01*
X151519048Y-72236623D02*
X151638096Y-72236623D01*
X152054763Y-72236623D02*
X152054763Y-70986623D01*
X152590477Y-72236623D02*
X152590477Y-71581861D01*
X152590477Y-71581861D02*
X152530953Y-71462814D01*
X152530953Y-71462814D02*
X152411905Y-71403290D01*
X152411905Y-71403290D02*
X152233334Y-71403290D01*
X152233334Y-71403290D02*
X152114286Y-71462814D01*
X152114286Y-71462814D02*
X152054763Y-71522338D01*
X153661905Y-72177100D02*
X153542857Y-72236623D01*
X153542857Y-72236623D02*
X153304762Y-72236623D01*
X153304762Y-72236623D02*
X153185715Y-72177100D01*
X153185715Y-72177100D02*
X153126191Y-72058052D01*
X153126191Y-72058052D02*
X153126191Y-71581861D01*
X153126191Y-71581861D02*
X153185715Y-71462814D01*
X153185715Y-71462814D02*
X153304762Y-71403290D01*
X153304762Y-71403290D02*
X153542857Y-71403290D01*
X153542857Y-71403290D02*
X153661905Y-71462814D01*
X153661905Y-71462814D02*
X153721429Y-71581861D01*
X153721429Y-71581861D02*
X153721429Y-71700909D01*
X153721429Y-71700909D02*
X153126191Y-71819957D01*
X154257144Y-72236623D02*
X154257144Y-71403290D01*
X154257144Y-71641385D02*
X154316667Y-71522338D01*
X154316667Y-71522338D02*
X154376191Y-71462814D01*
X154376191Y-71462814D02*
X154495239Y-71403290D01*
X154495239Y-71403290D02*
X154614286Y-71403290D01*
X156697620Y-72236623D02*
X156280954Y-71641385D01*
X155983335Y-72236623D02*
X155983335Y-70986623D01*
X155983335Y-70986623D02*
X156459525Y-70986623D01*
X156459525Y-70986623D02*
X156578573Y-71046147D01*
X156578573Y-71046147D02*
X156638096Y-71105671D01*
X156638096Y-71105671D02*
X156697620Y-71224719D01*
X156697620Y-71224719D02*
X156697620Y-71403290D01*
X156697620Y-71403290D02*
X156638096Y-71522338D01*
X156638096Y-71522338D02*
X156578573Y-71581861D01*
X156578573Y-71581861D02*
X156459525Y-71641385D01*
X156459525Y-71641385D02*
X155983335Y-71641385D01*
X157233335Y-72236623D02*
X157233335Y-70986623D01*
X157233335Y-70986623D02*
X157709525Y-70986623D01*
X157709525Y-70986623D02*
X157828573Y-71046147D01*
X157828573Y-71046147D02*
X157888096Y-71105671D01*
X157888096Y-71105671D02*
X157947620Y-71224719D01*
X157947620Y-71224719D02*
X157947620Y-71403290D01*
X157947620Y-71403290D02*
X157888096Y-71522338D01*
X157888096Y-71522338D02*
X157828573Y-71581861D01*
X157828573Y-71581861D02*
X157709525Y-71641385D01*
X157709525Y-71641385D02*
X157233335Y-71641385D01*
X158423811Y-71105671D02*
X158483335Y-71046147D01*
X158483335Y-71046147D02*
X158602382Y-70986623D01*
X158602382Y-70986623D02*
X158900001Y-70986623D01*
X158900001Y-70986623D02*
X159019049Y-71046147D01*
X159019049Y-71046147D02*
X159078573Y-71105671D01*
X159078573Y-71105671D02*
X159138096Y-71224719D01*
X159138096Y-71224719D02*
X159138096Y-71343766D01*
X159138096Y-71343766D02*
X159078573Y-71522338D01*
X159078573Y-71522338D02*
X158364287Y-72236623D01*
X158364287Y-72236623D02*
X159138096Y-72236623D01*
X159911906Y-70986623D02*
X160030953Y-70986623D01*
X160030953Y-70986623D02*
X160150001Y-71046147D01*
X160150001Y-71046147D02*
X160209525Y-71105671D01*
X160209525Y-71105671D02*
X160269049Y-71224719D01*
X160269049Y-71224719D02*
X160328572Y-71462814D01*
X160328572Y-71462814D02*
X160328572Y-71760433D01*
X160328572Y-71760433D02*
X160269049Y-71998528D01*
X160269049Y-71998528D02*
X160209525Y-72117576D01*
X160209525Y-72117576D02*
X160150001Y-72177100D01*
X160150001Y-72177100D02*
X160030953Y-72236623D01*
X160030953Y-72236623D02*
X159911906Y-72236623D01*
X159911906Y-72236623D02*
X159792858Y-72177100D01*
X159792858Y-72177100D02*
X159733334Y-72117576D01*
X159733334Y-72117576D02*
X159673811Y-71998528D01*
X159673811Y-71998528D02*
X159614287Y-71760433D01*
X159614287Y-71760433D02*
X159614287Y-71462814D01*
X159614287Y-71462814D02*
X159673811Y-71224719D01*
X159673811Y-71224719D02*
X159733334Y-71105671D01*
X159733334Y-71105671D02*
X159792858Y-71046147D01*
X159792858Y-71046147D02*
X159911906Y-70986623D01*
X161400001Y-71403290D02*
X161400001Y-72236623D01*
X161102382Y-70927100D02*
X160804763Y-71819957D01*
X160804763Y-71819957D02*
X161578572Y-71819957D01*
X162292858Y-70986623D02*
X162411905Y-70986623D01*
X162411905Y-70986623D02*
X162530953Y-71046147D01*
X162530953Y-71046147D02*
X162590477Y-71105671D01*
X162590477Y-71105671D02*
X162650001Y-71224719D01*
X162650001Y-71224719D02*
X162709524Y-71462814D01*
X162709524Y-71462814D02*
X162709524Y-71760433D01*
X162709524Y-71760433D02*
X162650001Y-71998528D01*
X162650001Y-71998528D02*
X162590477Y-72117576D01*
X162590477Y-72117576D02*
X162530953Y-72177100D01*
X162530953Y-72177100D02*
X162411905Y-72236623D01*
X162411905Y-72236623D02*
X162292858Y-72236623D01*
X162292858Y-72236623D02*
X162173810Y-72177100D01*
X162173810Y-72177100D02*
X162114286Y-72117576D01*
X162114286Y-72117576D02*
X162054763Y-71998528D01*
X162054763Y-71998528D02*
X161995239Y-71760433D01*
X161995239Y-71760433D02*
X161995239Y-71462814D01*
X161995239Y-71462814D02*
X162054763Y-71224719D01*
X162054763Y-71224719D02*
X162114286Y-71105671D01*
X162114286Y-71105671D02*
X162173810Y-71046147D01*
X162173810Y-71046147D02*
X162292858Y-70986623D01*
X164911905Y-72236623D02*
X164495239Y-71641385D01*
X164197620Y-72236623D02*
X164197620Y-70986623D01*
X164197620Y-70986623D02*
X164673810Y-70986623D01*
X164673810Y-70986623D02*
X164792858Y-71046147D01*
X164792858Y-71046147D02*
X164852381Y-71105671D01*
X164852381Y-71105671D02*
X164911905Y-71224719D01*
X164911905Y-71224719D02*
X164911905Y-71403290D01*
X164911905Y-71403290D02*
X164852381Y-71522338D01*
X164852381Y-71522338D02*
X164792858Y-71581861D01*
X164792858Y-71581861D02*
X164673810Y-71641385D01*
X164673810Y-71641385D02*
X164197620Y-71641385D01*
X165864286Y-71581861D02*
X165447620Y-71581861D01*
X165447620Y-72236623D02*
X165447620Y-70986623D01*
X165447620Y-70986623D02*
X166042858Y-70986623D01*
X166519049Y-72236623D02*
X166519049Y-70986623D01*
X166519049Y-70986623D02*
X166935715Y-71879480D01*
X166935715Y-71879480D02*
X167352382Y-70986623D01*
X167352382Y-70986623D02*
X167352382Y-72236623D01*
X168007143Y-72236623D02*
X168245239Y-72236623D01*
X168245239Y-72236623D02*
X168364286Y-72177100D01*
X168364286Y-72177100D02*
X168423810Y-72117576D01*
X168423810Y-72117576D02*
X168542858Y-71939004D01*
X168542858Y-71939004D02*
X168602381Y-71700909D01*
X168602381Y-71700909D02*
X168602381Y-71224719D01*
X168602381Y-71224719D02*
X168542858Y-71105671D01*
X168542858Y-71105671D02*
X168483334Y-71046147D01*
X168483334Y-71046147D02*
X168364286Y-70986623D01*
X168364286Y-70986623D02*
X168126191Y-70986623D01*
X168126191Y-70986623D02*
X168007143Y-71046147D01*
X168007143Y-71046147D02*
X167947620Y-71105671D01*
X167947620Y-71105671D02*
X167888096Y-71224719D01*
X167888096Y-71224719D02*
X167888096Y-71522338D01*
X167888096Y-71522338D02*
X167947620Y-71641385D01*
X167947620Y-71641385D02*
X168007143Y-71700909D01*
X168007143Y-71700909D02*
X168126191Y-71760433D01*
X168126191Y-71760433D02*
X168364286Y-71760433D01*
X168364286Y-71760433D02*
X168483334Y-71700909D01*
X168483334Y-71700909D02*
X168542858Y-71641385D01*
X168542858Y-71641385D02*
X168602381Y-71522338D01*
X169733334Y-70986623D02*
X169138096Y-70986623D01*
X169138096Y-70986623D02*
X169078572Y-71581861D01*
X169078572Y-71581861D02*
X169138096Y-71522338D01*
X169138096Y-71522338D02*
X169257143Y-71462814D01*
X169257143Y-71462814D02*
X169554762Y-71462814D01*
X169554762Y-71462814D02*
X169673810Y-71522338D01*
X169673810Y-71522338D02*
X169733334Y-71581861D01*
X169733334Y-71581861D02*
X169792857Y-71700909D01*
X169792857Y-71700909D02*
X169792857Y-71998528D01*
X169792857Y-71998528D02*
X169733334Y-72117576D01*
X169733334Y-72117576D02*
X169673810Y-72177100D01*
X169673810Y-72177100D02*
X169554762Y-72236623D01*
X169554762Y-72236623D02*
X169257143Y-72236623D01*
X169257143Y-72236623D02*
X169138096Y-72177100D01*
X169138096Y-72177100D02*
X169078572Y-72117576D01*
D10*
X97341541Y-97669819D02*
X97960588Y-97669819D01*
X97960588Y-97669819D02*
X97627255Y-98050771D01*
X97627255Y-98050771D02*
X97770112Y-98050771D01*
X97770112Y-98050771D02*
X97865350Y-98098390D01*
X97865350Y-98098390D02*
X97912969Y-98146009D01*
X97912969Y-98146009D02*
X97960588Y-98241247D01*
X97960588Y-98241247D02*
X97960588Y-98479342D01*
X97960588Y-98479342D02*
X97912969Y-98574580D01*
X97912969Y-98574580D02*
X97865350Y-98622200D01*
X97865350Y-98622200D02*
X97770112Y-98669819D01*
X97770112Y-98669819D02*
X97484398Y-98669819D01*
X97484398Y-98669819D02*
X97389160Y-98622200D01*
X97389160Y-98622200D02*
X97341541Y-98574580D01*
X98389160Y-98574580D02*
X98436779Y-98622200D01*
X98436779Y-98622200D02*
X98389160Y-98669819D01*
X98389160Y-98669819D02*
X98341541Y-98622200D01*
X98341541Y-98622200D02*
X98389160Y-98574580D01*
X98389160Y-98574580D02*
X98389160Y-98669819D01*
X98770112Y-97669819D02*
X99389159Y-97669819D01*
X99389159Y-97669819D02*
X99055826Y-98050771D01*
X99055826Y-98050771D02*
X99198683Y-98050771D01*
X99198683Y-98050771D02*
X99293921Y-98098390D01*
X99293921Y-98098390D02*
X99341540Y-98146009D01*
X99341540Y-98146009D02*
X99389159Y-98241247D01*
X99389159Y-98241247D02*
X99389159Y-98479342D01*
X99389159Y-98479342D02*
X99341540Y-98574580D01*
X99341540Y-98574580D02*
X99293921Y-98622200D01*
X99293921Y-98622200D02*
X99198683Y-98669819D01*
X99198683Y-98669819D02*
X98912969Y-98669819D01*
X98912969Y-98669819D02*
X98817731Y-98622200D01*
X98817731Y-98622200D02*
X98770112Y-98574580D01*
X99674874Y-97669819D02*
X100008207Y-98669819D01*
X100008207Y-98669819D02*
X100341540Y-97669819D01*
X180360588Y-110117438D02*
X180265350Y-110069819D01*
X180265350Y-110069819D02*
X180122493Y-110069819D01*
X180122493Y-110069819D02*
X179979636Y-110117438D01*
X179979636Y-110117438D02*
X179884398Y-110212676D01*
X179884398Y-110212676D02*
X179836779Y-110307914D01*
X179836779Y-110307914D02*
X179789160Y-110498390D01*
X179789160Y-110498390D02*
X179789160Y-110641247D01*
X179789160Y-110641247D02*
X179836779Y-110831723D01*
X179836779Y-110831723D02*
X179884398Y-110926961D01*
X179884398Y-110926961D02*
X179979636Y-111022200D01*
X179979636Y-111022200D02*
X180122493Y-111069819D01*
X180122493Y-111069819D02*
X180217731Y-111069819D01*
X180217731Y-111069819D02*
X180360588Y-111022200D01*
X180360588Y-111022200D02*
X180408207Y-110974580D01*
X180408207Y-110974580D02*
X180408207Y-110641247D01*
X180408207Y-110641247D02*
X180217731Y-110641247D01*
X180836779Y-111069819D02*
X180836779Y-110069819D01*
X180836779Y-110069819D02*
X181408207Y-111069819D01*
X181408207Y-111069819D02*
X181408207Y-110069819D01*
X181884398Y-111069819D02*
X181884398Y-110069819D01*
X181884398Y-110069819D02*
X182122493Y-110069819D01*
X182122493Y-110069819D02*
X182265350Y-110117438D01*
X182265350Y-110117438D02*
X182360588Y-110212676D01*
X182360588Y-110212676D02*
X182408207Y-110307914D01*
X182408207Y-110307914D02*
X182455826Y-110498390D01*
X182455826Y-110498390D02*
X182455826Y-110641247D01*
X182455826Y-110641247D02*
X182408207Y-110831723D01*
X182408207Y-110831723D02*
X182360588Y-110926961D01*
X182360588Y-110926961D02*
X182265350Y-111022200D01*
X182265350Y-111022200D02*
X182122493Y-111069819D01*
X182122493Y-111069819D02*
X181884398Y-111069819D01*
X193408207Y-76369819D02*
X193074874Y-75893628D01*
X192836779Y-76369819D02*
X192836779Y-75369819D01*
X192836779Y-75369819D02*
X193217731Y-75369819D01*
X193217731Y-75369819D02*
X193312969Y-75417438D01*
X193312969Y-75417438D02*
X193360588Y-75465057D01*
X193360588Y-75465057D02*
X193408207Y-75560295D01*
X193408207Y-75560295D02*
X193408207Y-75703152D01*
X193408207Y-75703152D02*
X193360588Y-75798390D01*
X193360588Y-75798390D02*
X193312969Y-75846009D01*
X193312969Y-75846009D02*
X193217731Y-75893628D01*
X193217731Y-75893628D02*
X192836779Y-75893628D01*
X193741541Y-76369819D02*
X194265350Y-75703152D01*
X193741541Y-75703152D02*
X194265350Y-76369819D01*
X110060588Y-73117438D02*
X109965350Y-73069819D01*
X109965350Y-73069819D02*
X109822493Y-73069819D01*
X109822493Y-73069819D02*
X109679636Y-73117438D01*
X109679636Y-73117438D02*
X109584398Y-73212676D01*
X109584398Y-73212676D02*
X109536779Y-73307914D01*
X109536779Y-73307914D02*
X109489160Y-73498390D01*
X109489160Y-73498390D02*
X109489160Y-73641247D01*
X109489160Y-73641247D02*
X109536779Y-73831723D01*
X109536779Y-73831723D02*
X109584398Y-73926961D01*
X109584398Y-73926961D02*
X109679636Y-74022200D01*
X109679636Y-74022200D02*
X109822493Y-74069819D01*
X109822493Y-74069819D02*
X109917731Y-74069819D01*
X109917731Y-74069819D02*
X110060588Y-74022200D01*
X110060588Y-74022200D02*
X110108207Y-73974580D01*
X110108207Y-73974580D02*
X110108207Y-73641247D01*
X110108207Y-73641247D02*
X109917731Y-73641247D01*
X110536779Y-74069819D02*
X110536779Y-73069819D01*
X110536779Y-73069819D02*
X111108207Y-74069819D01*
X111108207Y-74069819D02*
X111108207Y-73069819D01*
X111584398Y-74069819D02*
X111584398Y-73069819D01*
X111584398Y-73069819D02*
X111822493Y-73069819D01*
X111822493Y-73069819D02*
X111965350Y-73117438D01*
X111965350Y-73117438D02*
X112060588Y-73212676D01*
X112060588Y-73212676D02*
X112108207Y-73307914D01*
X112108207Y-73307914D02*
X112155826Y-73498390D01*
X112155826Y-73498390D02*
X112155826Y-73641247D01*
X112155826Y-73641247D02*
X112108207Y-73831723D01*
X112108207Y-73831723D02*
X112060588Y-73926961D01*
X112060588Y-73926961D02*
X111965350Y-74022200D01*
X111965350Y-74022200D02*
X111822493Y-74069819D01*
X111822493Y-74069819D02*
X111584398Y-74069819D01*
D11*
X88380952Y-81779480D02*
X88976190Y-81779480D01*
X88261904Y-82136623D02*
X88678571Y-80886623D01*
X88678571Y-80886623D02*
X89095237Y-82136623D01*
X89511905Y-82136623D02*
X89511905Y-80886623D01*
X89511905Y-81481861D02*
X90226190Y-81481861D01*
X90226190Y-82136623D02*
X90226190Y-80886623D01*
X90642857Y-80886623D02*
X91357143Y-80886623D01*
X91000000Y-82136623D02*
X91000000Y-80886623D01*
X91714286Y-81005671D02*
X91773810Y-80946147D01*
X91773810Y-80946147D02*
X91892857Y-80886623D01*
X91892857Y-80886623D02*
X92190476Y-80886623D01*
X92190476Y-80886623D02*
X92309524Y-80946147D01*
X92309524Y-80946147D02*
X92369048Y-81005671D01*
X92369048Y-81005671D02*
X92428571Y-81124719D01*
X92428571Y-81124719D02*
X92428571Y-81243766D01*
X92428571Y-81243766D02*
X92369048Y-81422338D01*
X92369048Y-81422338D02*
X91654762Y-82136623D01*
X91654762Y-82136623D02*
X92428571Y-82136623D01*
X93202381Y-80886623D02*
X93321428Y-80886623D01*
X93321428Y-80886623D02*
X93440476Y-80946147D01*
X93440476Y-80946147D02*
X93500000Y-81005671D01*
X93500000Y-81005671D02*
X93559524Y-81124719D01*
X93559524Y-81124719D02*
X93619047Y-81362814D01*
X93619047Y-81362814D02*
X93619047Y-81660433D01*
X93619047Y-81660433D02*
X93559524Y-81898528D01*
X93559524Y-81898528D02*
X93500000Y-82017576D01*
X93500000Y-82017576D02*
X93440476Y-82077100D01*
X93440476Y-82077100D02*
X93321428Y-82136623D01*
X93321428Y-82136623D02*
X93202381Y-82136623D01*
X93202381Y-82136623D02*
X93083333Y-82077100D01*
X93083333Y-82077100D02*
X93023809Y-82017576D01*
X93023809Y-82017576D02*
X92964286Y-81898528D01*
X92964286Y-81898528D02*
X92904762Y-81660433D01*
X92904762Y-81660433D02*
X92904762Y-81362814D01*
X92904762Y-81362814D02*
X92964286Y-81124719D01*
X92964286Y-81124719D02*
X93023809Y-81005671D01*
X93023809Y-81005671D02*
X93083333Y-80946147D01*
X93083333Y-80946147D02*
X93202381Y-80886623D01*
D10*
X140761904Y-113446009D02*
X140904761Y-113493628D01*
X140904761Y-113493628D02*
X140952380Y-113541247D01*
X140952380Y-113541247D02*
X140999999Y-113636485D01*
X140999999Y-113636485D02*
X140999999Y-113779342D01*
X140999999Y-113779342D02*
X140952380Y-113874580D01*
X140952380Y-113874580D02*
X140904761Y-113922200D01*
X140904761Y-113922200D02*
X140809523Y-113969819D01*
X140809523Y-113969819D02*
X140428571Y-113969819D01*
X140428571Y-113969819D02*
X140428571Y-112969819D01*
X140428571Y-112969819D02*
X140761904Y-112969819D01*
X140761904Y-112969819D02*
X140857142Y-113017438D01*
X140857142Y-113017438D02*
X140904761Y-113065057D01*
X140904761Y-113065057D02*
X140952380Y-113160295D01*
X140952380Y-113160295D02*
X140952380Y-113255533D01*
X140952380Y-113255533D02*
X140904761Y-113350771D01*
X140904761Y-113350771D02*
X140857142Y-113398390D01*
X140857142Y-113398390D02*
X140761904Y-113446009D01*
X140761904Y-113446009D02*
X140428571Y-113446009D01*
X141380952Y-113684104D02*
X141857142Y-113684104D01*
X141285714Y-113969819D02*
X141619047Y-112969819D01*
X141619047Y-112969819D02*
X141952380Y-113969819D01*
X142142857Y-112969819D02*
X142714285Y-112969819D01*
X142428571Y-113969819D02*
X142428571Y-112969819D01*
X192693922Y-72669819D02*
X193265350Y-72669819D01*
X192979636Y-73669819D02*
X192979636Y-72669819D01*
X193503446Y-73669819D02*
X194027255Y-73003152D01*
X193503446Y-73003152D02*
X194027255Y-73669819D01*
D11*
X105800000Y-101681861D02*
X105978572Y-101741385D01*
X105978572Y-101741385D02*
X106038095Y-101800909D01*
X106038095Y-101800909D02*
X106097619Y-101919957D01*
X106097619Y-101919957D02*
X106097619Y-102098528D01*
X106097619Y-102098528D02*
X106038095Y-102217576D01*
X106038095Y-102217576D02*
X105978572Y-102277100D01*
X105978572Y-102277100D02*
X105859524Y-102336623D01*
X105859524Y-102336623D02*
X105383334Y-102336623D01*
X105383334Y-102336623D02*
X105383334Y-101086623D01*
X105383334Y-101086623D02*
X105800000Y-101086623D01*
X105800000Y-101086623D02*
X105919048Y-101146147D01*
X105919048Y-101146147D02*
X105978572Y-101205671D01*
X105978572Y-101205671D02*
X106038095Y-101324719D01*
X106038095Y-101324719D02*
X106038095Y-101443766D01*
X106038095Y-101443766D02*
X105978572Y-101562814D01*
X105978572Y-101562814D02*
X105919048Y-101622338D01*
X105919048Y-101622338D02*
X105800000Y-101681861D01*
X105800000Y-101681861D02*
X105383334Y-101681861D01*
X106633334Y-102336623D02*
X106633334Y-101503290D01*
X106633334Y-101086623D02*
X106573810Y-101146147D01*
X106573810Y-101146147D02*
X106633334Y-101205671D01*
X106633334Y-101205671D02*
X106692857Y-101146147D01*
X106692857Y-101146147D02*
X106633334Y-101086623D01*
X106633334Y-101086623D02*
X106633334Y-101205671D01*
X107764286Y-101503290D02*
X107764286Y-102515195D01*
X107764286Y-102515195D02*
X107704762Y-102634242D01*
X107704762Y-102634242D02*
X107645238Y-102693766D01*
X107645238Y-102693766D02*
X107526191Y-102753290D01*
X107526191Y-102753290D02*
X107347619Y-102753290D01*
X107347619Y-102753290D02*
X107228572Y-102693766D01*
X107764286Y-102277100D02*
X107645238Y-102336623D01*
X107645238Y-102336623D02*
X107407143Y-102336623D01*
X107407143Y-102336623D02*
X107288095Y-102277100D01*
X107288095Y-102277100D02*
X107228572Y-102217576D01*
X107228572Y-102217576D02*
X107169048Y-102098528D01*
X107169048Y-102098528D02*
X107169048Y-101741385D01*
X107169048Y-101741385D02*
X107228572Y-101622338D01*
X107228572Y-101622338D02*
X107288095Y-101562814D01*
X107288095Y-101562814D02*
X107407143Y-101503290D01*
X107407143Y-101503290D02*
X107645238Y-101503290D01*
X107645238Y-101503290D02*
X107764286Y-101562814D01*
X110026190Y-102336623D02*
X109609524Y-101741385D01*
X109311905Y-102336623D02*
X109311905Y-101086623D01*
X109311905Y-101086623D02*
X109788095Y-101086623D01*
X109788095Y-101086623D02*
X109907143Y-101146147D01*
X109907143Y-101146147D02*
X109966666Y-101205671D01*
X109966666Y-101205671D02*
X110026190Y-101324719D01*
X110026190Y-101324719D02*
X110026190Y-101503290D01*
X110026190Y-101503290D02*
X109966666Y-101622338D01*
X109966666Y-101622338D02*
X109907143Y-101681861D01*
X109907143Y-101681861D02*
X109788095Y-101741385D01*
X109788095Y-101741385D02*
X109311905Y-101741385D01*
X111038095Y-102277100D02*
X110919047Y-102336623D01*
X110919047Y-102336623D02*
X110680952Y-102336623D01*
X110680952Y-102336623D02*
X110561905Y-102277100D01*
X110561905Y-102277100D02*
X110502381Y-102158052D01*
X110502381Y-102158052D02*
X110502381Y-101681861D01*
X110502381Y-101681861D02*
X110561905Y-101562814D01*
X110561905Y-101562814D02*
X110680952Y-101503290D01*
X110680952Y-101503290D02*
X110919047Y-101503290D01*
X110919047Y-101503290D02*
X111038095Y-101562814D01*
X111038095Y-101562814D02*
X111097619Y-101681861D01*
X111097619Y-101681861D02*
X111097619Y-101800909D01*
X111097619Y-101800909D02*
X110502381Y-101919957D01*
X112169048Y-102336623D02*
X112169048Y-101086623D01*
X112169048Y-102277100D02*
X112050000Y-102336623D01*
X112050000Y-102336623D02*
X111811905Y-102336623D01*
X111811905Y-102336623D02*
X111692857Y-102277100D01*
X111692857Y-102277100D02*
X111633334Y-102217576D01*
X111633334Y-102217576D02*
X111573810Y-102098528D01*
X111573810Y-102098528D02*
X111573810Y-101741385D01*
X111573810Y-101741385D02*
X111633334Y-101622338D01*
X111633334Y-101622338D02*
X111692857Y-101562814D01*
X111692857Y-101562814D02*
X111811905Y-101503290D01*
X111811905Y-101503290D02*
X112050000Y-101503290D01*
X112050000Y-101503290D02*
X112169048Y-101562814D01*
X114133333Y-101681861D02*
X114311905Y-101741385D01*
X114311905Y-101741385D02*
X114371428Y-101800909D01*
X114371428Y-101800909D02*
X114430952Y-101919957D01*
X114430952Y-101919957D02*
X114430952Y-102098528D01*
X114430952Y-102098528D02*
X114371428Y-102217576D01*
X114371428Y-102217576D02*
X114311905Y-102277100D01*
X114311905Y-102277100D02*
X114192857Y-102336623D01*
X114192857Y-102336623D02*
X113716667Y-102336623D01*
X113716667Y-102336623D02*
X113716667Y-101086623D01*
X113716667Y-101086623D02*
X114133333Y-101086623D01*
X114133333Y-101086623D02*
X114252381Y-101146147D01*
X114252381Y-101146147D02*
X114311905Y-101205671D01*
X114311905Y-101205671D02*
X114371428Y-101324719D01*
X114371428Y-101324719D02*
X114371428Y-101443766D01*
X114371428Y-101443766D02*
X114311905Y-101562814D01*
X114311905Y-101562814D02*
X114252381Y-101622338D01*
X114252381Y-101622338D02*
X114133333Y-101681861D01*
X114133333Y-101681861D02*
X113716667Y-101681861D01*
X114788095Y-101503290D02*
X115264286Y-101503290D01*
X114966667Y-101086623D02*
X114966667Y-102158052D01*
X114966667Y-102158052D02*
X115026190Y-102277100D01*
X115026190Y-102277100D02*
X115145238Y-102336623D01*
X115145238Y-102336623D02*
X115264286Y-102336623D01*
X115680953Y-101503290D02*
X115680953Y-102336623D01*
X115680953Y-101622338D02*
X115740476Y-101562814D01*
X115740476Y-101562814D02*
X115859524Y-101503290D01*
X115859524Y-101503290D02*
X116038095Y-101503290D01*
X116038095Y-101503290D02*
X116157143Y-101562814D01*
X116157143Y-101562814D02*
X116216667Y-101681861D01*
X116216667Y-101681861D02*
X116216667Y-102336623D01*
D10*
X181441541Y-104269819D02*
X182060588Y-104269819D01*
X182060588Y-104269819D02*
X181727255Y-104650771D01*
X181727255Y-104650771D02*
X181870112Y-104650771D01*
X181870112Y-104650771D02*
X181965350Y-104698390D01*
X181965350Y-104698390D02*
X182012969Y-104746009D01*
X182012969Y-104746009D02*
X182060588Y-104841247D01*
X182060588Y-104841247D02*
X182060588Y-105079342D01*
X182060588Y-105079342D02*
X182012969Y-105174580D01*
X182012969Y-105174580D02*
X181965350Y-105222200D01*
X181965350Y-105222200D02*
X181870112Y-105269819D01*
X181870112Y-105269819D02*
X181584398Y-105269819D01*
X181584398Y-105269819D02*
X181489160Y-105222200D01*
X181489160Y-105222200D02*
X181441541Y-105174580D01*
X182489160Y-105174580D02*
X182536779Y-105222200D01*
X182536779Y-105222200D02*
X182489160Y-105269819D01*
X182489160Y-105269819D02*
X182441541Y-105222200D01*
X182441541Y-105222200D02*
X182489160Y-105174580D01*
X182489160Y-105174580D02*
X182489160Y-105269819D01*
X182870112Y-104269819D02*
X183489159Y-104269819D01*
X183489159Y-104269819D02*
X183155826Y-104650771D01*
X183155826Y-104650771D02*
X183298683Y-104650771D01*
X183298683Y-104650771D02*
X183393921Y-104698390D01*
X183393921Y-104698390D02*
X183441540Y-104746009D01*
X183441540Y-104746009D02*
X183489159Y-104841247D01*
X183489159Y-104841247D02*
X183489159Y-105079342D01*
X183489159Y-105079342D02*
X183441540Y-105174580D01*
X183441540Y-105174580D02*
X183393921Y-105222200D01*
X183393921Y-105222200D02*
X183298683Y-105269819D01*
X183298683Y-105269819D02*
X183012969Y-105269819D01*
X183012969Y-105269819D02*
X182917731Y-105222200D01*
X182917731Y-105222200D02*
X182870112Y-105174580D01*
X183774874Y-104269819D02*
X184108207Y-105269819D01*
X184108207Y-105269819D02*
X184441540Y-104269819D01*
X137160588Y-90817438D02*
X137065350Y-90769819D01*
X137065350Y-90769819D02*
X136922493Y-90769819D01*
X136922493Y-90769819D02*
X136779636Y-90817438D01*
X136779636Y-90817438D02*
X136684398Y-90912676D01*
X136684398Y-90912676D02*
X136636779Y-91007914D01*
X136636779Y-91007914D02*
X136589160Y-91198390D01*
X136589160Y-91198390D02*
X136589160Y-91341247D01*
X136589160Y-91341247D02*
X136636779Y-91531723D01*
X136636779Y-91531723D02*
X136684398Y-91626961D01*
X136684398Y-91626961D02*
X136779636Y-91722200D01*
X136779636Y-91722200D02*
X136922493Y-91769819D01*
X136922493Y-91769819D02*
X137017731Y-91769819D01*
X137017731Y-91769819D02*
X137160588Y-91722200D01*
X137160588Y-91722200D02*
X137208207Y-91674580D01*
X137208207Y-91674580D02*
X137208207Y-91341247D01*
X137208207Y-91341247D02*
X137017731Y-91341247D01*
X137636779Y-91769819D02*
X137636779Y-90769819D01*
X137636779Y-90769819D02*
X138208207Y-91769819D01*
X138208207Y-91769819D02*
X138208207Y-90769819D01*
X138684398Y-91769819D02*
X138684398Y-90769819D01*
X138684398Y-90769819D02*
X138922493Y-90769819D01*
X138922493Y-90769819D02*
X139065350Y-90817438D01*
X139065350Y-90817438D02*
X139160588Y-90912676D01*
X139160588Y-90912676D02*
X139208207Y-91007914D01*
X139208207Y-91007914D02*
X139255826Y-91198390D01*
X139255826Y-91198390D02*
X139255826Y-91341247D01*
X139255826Y-91341247D02*
X139208207Y-91531723D01*
X139208207Y-91531723D02*
X139160588Y-91626961D01*
X139160588Y-91626961D02*
X139065350Y-91722200D01*
X139065350Y-91722200D02*
X138922493Y-91769819D01*
X138922493Y-91769819D02*
X138684398Y-91769819D01*
X192736779Y-96046009D02*
X193070112Y-96046009D01*
X193212969Y-96569819D02*
X192736779Y-96569819D01*
X192736779Y-96569819D02*
X192736779Y-95569819D01*
X192736779Y-95569819D02*
X193212969Y-95569819D01*
X193641541Y-96569819D02*
X193641541Y-95569819D01*
X193641541Y-95569819D02*
X194212969Y-96569819D01*
X194212969Y-96569819D02*
X194212969Y-95569819D01*
X85208207Y-66814916D02*
X85160588Y-66862536D01*
X85160588Y-66862536D02*
X85017731Y-66910155D01*
X85017731Y-66910155D02*
X84922493Y-66910155D01*
X84922493Y-66910155D02*
X84779636Y-66862536D01*
X84779636Y-66862536D02*
X84684398Y-66767297D01*
X84684398Y-66767297D02*
X84636779Y-66672059D01*
X84636779Y-66672059D02*
X84589160Y-66481583D01*
X84589160Y-66481583D02*
X84589160Y-66338726D01*
X84589160Y-66338726D02*
X84636779Y-66148250D01*
X84636779Y-66148250D02*
X84684398Y-66053012D01*
X84684398Y-66053012D02*
X84779636Y-65957774D01*
X84779636Y-65957774D02*
X84922493Y-65910155D01*
X84922493Y-65910155D02*
X85017731Y-65910155D01*
X85017731Y-65910155D02*
X85160588Y-65957774D01*
X85160588Y-65957774D02*
X85208207Y-66005393D01*
X85636779Y-66910155D02*
X85636779Y-65910155D01*
X86065350Y-66910155D02*
X86065350Y-66386345D01*
X86065350Y-66386345D02*
X86017731Y-66291107D01*
X86017731Y-66291107D02*
X85922493Y-66243488D01*
X85922493Y-66243488D02*
X85779636Y-66243488D01*
X85779636Y-66243488D02*
X85684398Y-66291107D01*
X85684398Y-66291107D02*
X85636779Y-66338726D01*
X86541541Y-66910155D02*
X86541541Y-66243488D01*
X86541541Y-66433964D02*
X86589160Y-66338726D01*
X86589160Y-66338726D02*
X86636779Y-66291107D01*
X86636779Y-66291107D02*
X86732017Y-66243488D01*
X86732017Y-66243488D02*
X86827255Y-66243488D01*
X87160589Y-66910155D02*
X87160589Y-66243488D01*
X87160589Y-65910155D02*
X87112970Y-65957774D01*
X87112970Y-65957774D02*
X87160589Y-66005393D01*
X87160589Y-66005393D02*
X87208208Y-65957774D01*
X87208208Y-65957774D02*
X87160589Y-65910155D01*
X87160589Y-65910155D02*
X87160589Y-66005393D01*
X87589160Y-66862536D02*
X87684398Y-66910155D01*
X87684398Y-66910155D02*
X87874874Y-66910155D01*
X87874874Y-66910155D02*
X87970112Y-66862536D01*
X87970112Y-66862536D02*
X88017731Y-66767297D01*
X88017731Y-66767297D02*
X88017731Y-66719678D01*
X88017731Y-66719678D02*
X87970112Y-66624440D01*
X87970112Y-66624440D02*
X87874874Y-66576821D01*
X87874874Y-66576821D02*
X87732017Y-66576821D01*
X87732017Y-66576821D02*
X87636779Y-66529202D01*
X87636779Y-66529202D02*
X87589160Y-66433964D01*
X87589160Y-66433964D02*
X87589160Y-66386345D01*
X87589160Y-66386345D02*
X87636779Y-66291107D01*
X87636779Y-66291107D02*
X87732017Y-66243488D01*
X87732017Y-66243488D02*
X87874874Y-66243488D01*
X87874874Y-66243488D02*
X87970112Y-66291107D01*
X89160589Y-66862536D02*
X89303446Y-66910155D01*
X89303446Y-66910155D02*
X89541541Y-66910155D01*
X89541541Y-66910155D02*
X89636779Y-66862536D01*
X89636779Y-66862536D02*
X89684398Y-66814916D01*
X89684398Y-66814916D02*
X89732017Y-66719678D01*
X89732017Y-66719678D02*
X89732017Y-66624440D01*
X89732017Y-66624440D02*
X89684398Y-66529202D01*
X89684398Y-66529202D02*
X89636779Y-66481583D01*
X89636779Y-66481583D02*
X89541541Y-66433964D01*
X89541541Y-66433964D02*
X89351065Y-66386345D01*
X89351065Y-66386345D02*
X89255827Y-66338726D01*
X89255827Y-66338726D02*
X89208208Y-66291107D01*
X89208208Y-66291107D02*
X89160589Y-66195869D01*
X89160589Y-66195869D02*
X89160589Y-66100631D01*
X89160589Y-66100631D02*
X89208208Y-66005393D01*
X89208208Y-66005393D02*
X89255827Y-65957774D01*
X89255827Y-65957774D02*
X89351065Y-65910155D01*
X89351065Y-65910155D02*
X89589160Y-65910155D01*
X89589160Y-65910155D02*
X89732017Y-65957774D01*
X90160589Y-66910155D02*
X90160589Y-66243488D01*
X90160589Y-65910155D02*
X90112970Y-65957774D01*
X90112970Y-65957774D02*
X90160589Y-66005393D01*
X90160589Y-66005393D02*
X90208208Y-65957774D01*
X90208208Y-65957774D02*
X90160589Y-65910155D01*
X90160589Y-65910155D02*
X90160589Y-66005393D01*
X90779636Y-66910155D02*
X90684398Y-66862536D01*
X90684398Y-66862536D02*
X90636779Y-66767297D01*
X90636779Y-66767297D02*
X90636779Y-65910155D01*
X91160589Y-66910155D02*
X91160589Y-66243488D01*
X91160589Y-66338726D02*
X91208208Y-66291107D01*
X91208208Y-66291107D02*
X91303446Y-66243488D01*
X91303446Y-66243488D02*
X91446303Y-66243488D01*
X91446303Y-66243488D02*
X91541541Y-66291107D01*
X91541541Y-66291107D02*
X91589160Y-66386345D01*
X91589160Y-66386345D02*
X91589160Y-66910155D01*
X91589160Y-66386345D02*
X91636779Y-66291107D01*
X91636779Y-66291107D02*
X91732017Y-66243488D01*
X91732017Y-66243488D02*
X91874874Y-66243488D01*
X91874874Y-66243488D02*
X91970113Y-66291107D01*
X91970113Y-66291107D02*
X92017732Y-66386345D01*
X92017732Y-66386345D02*
X92017732Y-66910155D01*
X92922493Y-66910155D02*
X92922493Y-66386345D01*
X92922493Y-66386345D02*
X92874874Y-66291107D01*
X92874874Y-66291107D02*
X92779636Y-66243488D01*
X92779636Y-66243488D02*
X92589160Y-66243488D01*
X92589160Y-66243488D02*
X92493922Y-66291107D01*
X92922493Y-66862536D02*
X92827255Y-66910155D01*
X92827255Y-66910155D02*
X92589160Y-66910155D01*
X92589160Y-66910155D02*
X92493922Y-66862536D01*
X92493922Y-66862536D02*
X92446303Y-66767297D01*
X92446303Y-66767297D02*
X92446303Y-66672059D01*
X92446303Y-66672059D02*
X92493922Y-66576821D01*
X92493922Y-66576821D02*
X92589160Y-66529202D01*
X92589160Y-66529202D02*
X92827255Y-66529202D01*
X92827255Y-66529202D02*
X92922493Y-66481583D01*
X93398684Y-66243488D02*
X93398684Y-66910155D01*
X93398684Y-66338726D02*
X93446303Y-66291107D01*
X93446303Y-66291107D02*
X93541541Y-66243488D01*
X93541541Y-66243488D02*
X93684398Y-66243488D01*
X93684398Y-66243488D02*
X93779636Y-66291107D01*
X93779636Y-66291107D02*
X93827255Y-66386345D01*
X93827255Y-66386345D02*
X93827255Y-66910155D01*
X85208207Y-68424860D02*
X85160588Y-68472480D01*
X85160588Y-68472480D02*
X85017731Y-68520099D01*
X85017731Y-68520099D02*
X84922493Y-68520099D01*
X84922493Y-68520099D02*
X84779636Y-68472480D01*
X84779636Y-68472480D02*
X84684398Y-68377241D01*
X84684398Y-68377241D02*
X84636779Y-68282003D01*
X84636779Y-68282003D02*
X84589160Y-68091527D01*
X84589160Y-68091527D02*
X84589160Y-67948670D01*
X84589160Y-67948670D02*
X84636779Y-67758194D01*
X84636779Y-67758194D02*
X84684398Y-67662956D01*
X84684398Y-67662956D02*
X84779636Y-67567718D01*
X84779636Y-67567718D02*
X84922493Y-67520099D01*
X84922493Y-67520099D02*
X85017731Y-67520099D01*
X85017731Y-67520099D02*
X85160588Y-67567718D01*
X85160588Y-67567718D02*
X85208207Y-67615337D01*
X85779636Y-68520099D02*
X85684398Y-68472480D01*
X85684398Y-68472480D02*
X85636779Y-68424860D01*
X85636779Y-68424860D02*
X85589160Y-68329622D01*
X85589160Y-68329622D02*
X85589160Y-68043908D01*
X85589160Y-68043908D02*
X85636779Y-67948670D01*
X85636779Y-67948670D02*
X85684398Y-67901051D01*
X85684398Y-67901051D02*
X85779636Y-67853432D01*
X85779636Y-67853432D02*
X85922493Y-67853432D01*
X85922493Y-67853432D02*
X86017731Y-67901051D01*
X86017731Y-67901051D02*
X86065350Y-67948670D01*
X86065350Y-67948670D02*
X86112969Y-68043908D01*
X86112969Y-68043908D02*
X86112969Y-68329622D01*
X86112969Y-68329622D02*
X86065350Y-68424860D01*
X86065350Y-68424860D02*
X86017731Y-68472480D01*
X86017731Y-68472480D02*
X85922493Y-68520099D01*
X85922493Y-68520099D02*
X85779636Y-68520099D01*
X86684398Y-68520099D02*
X86589160Y-68472480D01*
X86589160Y-68472480D02*
X86541541Y-68377241D01*
X86541541Y-68377241D02*
X86541541Y-67520099D01*
X87065351Y-68520099D02*
X87065351Y-67853432D01*
X87065351Y-67520099D02*
X87017732Y-67567718D01*
X87017732Y-67567718D02*
X87065351Y-67615337D01*
X87065351Y-67615337D02*
X87112970Y-67567718D01*
X87112970Y-67567718D02*
X87065351Y-67520099D01*
X87065351Y-67520099D02*
X87065351Y-67615337D01*
X87541541Y-67853432D02*
X87541541Y-68520099D01*
X87541541Y-67948670D02*
X87589160Y-67901051D01*
X87589160Y-67901051D02*
X87684398Y-67853432D01*
X87684398Y-67853432D02*
X87827255Y-67853432D01*
X87827255Y-67853432D02*
X87922493Y-67901051D01*
X87922493Y-67901051D02*
X87970112Y-67996289D01*
X87970112Y-67996289D02*
X87970112Y-68520099D01*
X89208208Y-68520099D02*
X89208208Y-67520099D01*
X89208208Y-67520099D02*
X89541541Y-68234384D01*
X89541541Y-68234384D02*
X89874874Y-67520099D01*
X89874874Y-67520099D02*
X89874874Y-68520099D01*
X90779636Y-68472480D02*
X90684398Y-68520099D01*
X90684398Y-68520099D02*
X90493922Y-68520099D01*
X90493922Y-68520099D02*
X90398684Y-68472480D01*
X90398684Y-68472480D02*
X90351065Y-68424860D01*
X90351065Y-68424860D02*
X90303446Y-68329622D01*
X90303446Y-68329622D02*
X90303446Y-68043908D01*
X90303446Y-68043908D02*
X90351065Y-67948670D01*
X90351065Y-67948670D02*
X90398684Y-67901051D01*
X90398684Y-67901051D02*
X90493922Y-67853432D01*
X90493922Y-67853432D02*
X90684398Y-67853432D01*
X90684398Y-67853432D02*
X90779636Y-67901051D01*
X91208208Y-68520099D02*
X91208208Y-67520099D01*
X91779636Y-68520099D02*
X91351065Y-67948670D01*
X91779636Y-67520099D02*
X91208208Y-68091527D01*
X92208208Y-68520099D02*
X92208208Y-67853432D01*
X92208208Y-67520099D02*
X92160589Y-67567718D01*
X92160589Y-67567718D02*
X92208208Y-67615337D01*
X92208208Y-67615337D02*
X92255827Y-67567718D01*
X92255827Y-67567718D02*
X92208208Y-67520099D01*
X92208208Y-67520099D02*
X92208208Y-67615337D01*
X92684398Y-67853432D02*
X92684398Y-68520099D01*
X92684398Y-67948670D02*
X92732017Y-67901051D01*
X92732017Y-67901051D02*
X92827255Y-67853432D01*
X92827255Y-67853432D02*
X92970112Y-67853432D01*
X92970112Y-67853432D02*
X93065350Y-67901051D01*
X93065350Y-67901051D02*
X93112969Y-67996289D01*
X93112969Y-67996289D02*
X93112969Y-68520099D01*
X93589160Y-67853432D02*
X93589160Y-68520099D01*
X93589160Y-67948670D02*
X93636779Y-67901051D01*
X93636779Y-67901051D02*
X93732017Y-67853432D01*
X93732017Y-67853432D02*
X93874874Y-67853432D01*
X93874874Y-67853432D02*
X93970112Y-67901051D01*
X93970112Y-67901051D02*
X94017731Y-67996289D01*
X94017731Y-67996289D02*
X94017731Y-68520099D01*
X94874874Y-68472480D02*
X94779636Y-68520099D01*
X94779636Y-68520099D02*
X94589160Y-68520099D01*
X94589160Y-68520099D02*
X94493922Y-68472480D01*
X94493922Y-68472480D02*
X94446303Y-68377241D01*
X94446303Y-68377241D02*
X94446303Y-67996289D01*
X94446303Y-67996289D02*
X94493922Y-67901051D01*
X94493922Y-67901051D02*
X94589160Y-67853432D01*
X94589160Y-67853432D02*
X94779636Y-67853432D01*
X94779636Y-67853432D02*
X94874874Y-67901051D01*
X94874874Y-67901051D02*
X94922493Y-67996289D01*
X94922493Y-67996289D02*
X94922493Y-68091527D01*
X94922493Y-68091527D02*
X94446303Y-68186765D01*
X95255827Y-67853432D02*
X95493922Y-68520099D01*
X95732017Y-67853432D02*
X95493922Y-68520099D01*
X95493922Y-68520099D02*
X95398684Y-68758194D01*
X95398684Y-68758194D02*
X95351065Y-68805813D01*
X95351065Y-68805813D02*
X95255827Y-68853432D01*
X85208207Y-70034804D02*
X85160588Y-70082424D01*
X85160588Y-70082424D02*
X85017731Y-70130043D01*
X85017731Y-70130043D02*
X84922493Y-70130043D01*
X84922493Y-70130043D02*
X84779636Y-70082424D01*
X84779636Y-70082424D02*
X84684398Y-69987185D01*
X84684398Y-69987185D02*
X84636779Y-69891947D01*
X84636779Y-69891947D02*
X84589160Y-69701471D01*
X84589160Y-69701471D02*
X84589160Y-69558614D01*
X84589160Y-69558614D02*
X84636779Y-69368138D01*
X84636779Y-69368138D02*
X84684398Y-69272900D01*
X84684398Y-69272900D02*
X84779636Y-69177662D01*
X84779636Y-69177662D02*
X84922493Y-69130043D01*
X84922493Y-69130043D02*
X85017731Y-69130043D01*
X85017731Y-69130043D02*
X85160588Y-69177662D01*
X85160588Y-69177662D02*
X85208207Y-69225281D01*
X85636779Y-70130043D02*
X85636779Y-69130043D01*
X86065350Y-70130043D02*
X86065350Y-69606233D01*
X86065350Y-69606233D02*
X86017731Y-69510995D01*
X86017731Y-69510995D02*
X85922493Y-69463376D01*
X85922493Y-69463376D02*
X85779636Y-69463376D01*
X85779636Y-69463376D02*
X85684398Y-69510995D01*
X85684398Y-69510995D02*
X85636779Y-69558614D01*
X86970112Y-70130043D02*
X86970112Y-69606233D01*
X86970112Y-69606233D02*
X86922493Y-69510995D01*
X86922493Y-69510995D02*
X86827255Y-69463376D01*
X86827255Y-69463376D02*
X86636779Y-69463376D01*
X86636779Y-69463376D02*
X86541541Y-69510995D01*
X86970112Y-70082424D02*
X86874874Y-70130043D01*
X86874874Y-70130043D02*
X86636779Y-70130043D01*
X86636779Y-70130043D02*
X86541541Y-70082424D01*
X86541541Y-70082424D02*
X86493922Y-69987185D01*
X86493922Y-69987185D02*
X86493922Y-69891947D01*
X86493922Y-69891947D02*
X86541541Y-69796709D01*
X86541541Y-69796709D02*
X86636779Y-69749090D01*
X86636779Y-69749090D02*
X86874874Y-69749090D01*
X86874874Y-69749090D02*
X86970112Y-69701471D01*
X87398684Y-70082424D02*
X87493922Y-70130043D01*
X87493922Y-70130043D02*
X87684398Y-70130043D01*
X87684398Y-70130043D02*
X87779636Y-70082424D01*
X87779636Y-70082424D02*
X87827255Y-69987185D01*
X87827255Y-69987185D02*
X87827255Y-69939566D01*
X87827255Y-69939566D02*
X87779636Y-69844328D01*
X87779636Y-69844328D02*
X87684398Y-69796709D01*
X87684398Y-69796709D02*
X87541541Y-69796709D01*
X87541541Y-69796709D02*
X87446303Y-69749090D01*
X87446303Y-69749090D02*
X87398684Y-69653852D01*
X87398684Y-69653852D02*
X87398684Y-69606233D01*
X87398684Y-69606233D02*
X87446303Y-69510995D01*
X87446303Y-69510995D02*
X87541541Y-69463376D01*
X87541541Y-69463376D02*
X87684398Y-69463376D01*
X87684398Y-69463376D02*
X87779636Y-69510995D01*
X88636779Y-70082424D02*
X88541541Y-70130043D01*
X88541541Y-70130043D02*
X88351065Y-70130043D01*
X88351065Y-70130043D02*
X88255827Y-70082424D01*
X88255827Y-70082424D02*
X88208208Y-69987185D01*
X88208208Y-69987185D02*
X88208208Y-69606233D01*
X88208208Y-69606233D02*
X88255827Y-69510995D01*
X88255827Y-69510995D02*
X88351065Y-69463376D01*
X88351065Y-69463376D02*
X88541541Y-69463376D01*
X88541541Y-69463376D02*
X88636779Y-69510995D01*
X88636779Y-69510995D02*
X88684398Y-69606233D01*
X88684398Y-69606233D02*
X88684398Y-69701471D01*
X88684398Y-69701471D02*
X88208208Y-69796709D01*
X89874875Y-69606233D02*
X90208208Y-69606233D01*
X90351065Y-70130043D02*
X89874875Y-70130043D01*
X89874875Y-70130043D02*
X89874875Y-69130043D01*
X89874875Y-69130043D02*
X90351065Y-69130043D01*
X90779637Y-69463376D02*
X90779637Y-70130043D01*
X90779637Y-69558614D02*
X90827256Y-69510995D01*
X90827256Y-69510995D02*
X90922494Y-69463376D01*
X90922494Y-69463376D02*
X91065351Y-69463376D01*
X91065351Y-69463376D02*
X91160589Y-69510995D01*
X91160589Y-69510995D02*
X91208208Y-69606233D01*
X91208208Y-69606233D02*
X91208208Y-70130043D01*
X92112970Y-69463376D02*
X92112970Y-70272900D01*
X92112970Y-70272900D02*
X92065351Y-70368138D01*
X92065351Y-70368138D02*
X92017732Y-70415757D01*
X92017732Y-70415757D02*
X91922494Y-70463376D01*
X91922494Y-70463376D02*
X91779637Y-70463376D01*
X91779637Y-70463376D02*
X91684399Y-70415757D01*
X92112970Y-70082424D02*
X92017732Y-70130043D01*
X92017732Y-70130043D02*
X91827256Y-70130043D01*
X91827256Y-70130043D02*
X91732018Y-70082424D01*
X91732018Y-70082424D02*
X91684399Y-70034804D01*
X91684399Y-70034804D02*
X91636780Y-69939566D01*
X91636780Y-69939566D02*
X91636780Y-69653852D01*
X91636780Y-69653852D02*
X91684399Y-69558614D01*
X91684399Y-69558614D02*
X91732018Y-69510995D01*
X91732018Y-69510995D02*
X91827256Y-69463376D01*
X91827256Y-69463376D02*
X92017732Y-69463376D01*
X92017732Y-69463376D02*
X92112970Y-69510995D01*
X92732018Y-70130043D02*
X92636780Y-70082424D01*
X92636780Y-70082424D02*
X92589161Y-69987185D01*
X92589161Y-69987185D02*
X92589161Y-69130043D01*
X93493923Y-70082424D02*
X93398685Y-70130043D01*
X93398685Y-70130043D02*
X93208209Y-70130043D01*
X93208209Y-70130043D02*
X93112971Y-70082424D01*
X93112971Y-70082424D02*
X93065352Y-69987185D01*
X93065352Y-69987185D02*
X93065352Y-69606233D01*
X93065352Y-69606233D02*
X93112971Y-69510995D01*
X93112971Y-69510995D02*
X93208209Y-69463376D01*
X93208209Y-69463376D02*
X93398685Y-69463376D01*
X93398685Y-69463376D02*
X93493923Y-69510995D01*
X93493923Y-69510995D02*
X93541542Y-69606233D01*
X93541542Y-69606233D02*
X93541542Y-69701471D01*
X93541542Y-69701471D02*
X93065352Y-69796709D01*
X85208207Y-71644748D02*
X85160588Y-71692368D01*
X85160588Y-71692368D02*
X85017731Y-71739987D01*
X85017731Y-71739987D02*
X84922493Y-71739987D01*
X84922493Y-71739987D02*
X84779636Y-71692368D01*
X84779636Y-71692368D02*
X84684398Y-71597129D01*
X84684398Y-71597129D02*
X84636779Y-71501891D01*
X84636779Y-71501891D02*
X84589160Y-71311415D01*
X84589160Y-71311415D02*
X84589160Y-71168558D01*
X84589160Y-71168558D02*
X84636779Y-70978082D01*
X84636779Y-70978082D02*
X84684398Y-70882844D01*
X84684398Y-70882844D02*
X84779636Y-70787606D01*
X84779636Y-70787606D02*
X84922493Y-70739987D01*
X84922493Y-70739987D02*
X85017731Y-70739987D01*
X85017731Y-70739987D02*
X85160588Y-70787606D01*
X85160588Y-70787606D02*
X85208207Y-70835225D01*
X85779636Y-71739987D02*
X85684398Y-71692368D01*
X85684398Y-71692368D02*
X85636779Y-71644748D01*
X85636779Y-71644748D02*
X85589160Y-71549510D01*
X85589160Y-71549510D02*
X85589160Y-71263796D01*
X85589160Y-71263796D02*
X85636779Y-71168558D01*
X85636779Y-71168558D02*
X85684398Y-71120939D01*
X85684398Y-71120939D02*
X85779636Y-71073320D01*
X85779636Y-71073320D02*
X85922493Y-71073320D01*
X85922493Y-71073320D02*
X86017731Y-71120939D01*
X86017731Y-71120939D02*
X86065350Y-71168558D01*
X86065350Y-71168558D02*
X86112969Y-71263796D01*
X86112969Y-71263796D02*
X86112969Y-71549510D01*
X86112969Y-71549510D02*
X86065350Y-71644748D01*
X86065350Y-71644748D02*
X86017731Y-71692368D01*
X86017731Y-71692368D02*
X85922493Y-71739987D01*
X85922493Y-71739987D02*
X85779636Y-71739987D01*
X86684398Y-71739987D02*
X86589160Y-71692368D01*
X86589160Y-71692368D02*
X86541541Y-71597129D01*
X86541541Y-71597129D02*
X86541541Y-70739987D01*
X87208208Y-71739987D02*
X87112970Y-71692368D01*
X87112970Y-71692368D02*
X87065351Y-71597129D01*
X87065351Y-71597129D02*
X87065351Y-70739987D01*
X87589161Y-71739987D02*
X87589161Y-71073320D01*
X87589161Y-70739987D02*
X87541542Y-70787606D01*
X87541542Y-70787606D02*
X87589161Y-70835225D01*
X87589161Y-70835225D02*
X87636780Y-70787606D01*
X87636780Y-70787606D02*
X87589161Y-70739987D01*
X87589161Y-70739987D02*
X87589161Y-70835225D01*
X88065351Y-71073320D02*
X88065351Y-71739987D01*
X88065351Y-71168558D02*
X88112970Y-71120939D01*
X88112970Y-71120939D02*
X88208208Y-71073320D01*
X88208208Y-71073320D02*
X88351065Y-71073320D01*
X88351065Y-71073320D02*
X88446303Y-71120939D01*
X88446303Y-71120939D02*
X88493922Y-71216177D01*
X88493922Y-71216177D02*
X88493922Y-71739987D01*
X89732018Y-71739987D02*
X89732018Y-70739987D01*
X89732018Y-71216177D02*
X90303446Y-71216177D01*
X90303446Y-71739987D02*
X90303446Y-70739987D01*
X90922494Y-71739987D02*
X90827256Y-71692368D01*
X90827256Y-71692368D02*
X90779637Y-71644748D01*
X90779637Y-71644748D02*
X90732018Y-71549510D01*
X90732018Y-71549510D02*
X90732018Y-71263796D01*
X90732018Y-71263796D02*
X90779637Y-71168558D01*
X90779637Y-71168558D02*
X90827256Y-71120939D01*
X90827256Y-71120939D02*
X90922494Y-71073320D01*
X90922494Y-71073320D02*
X91065351Y-71073320D01*
X91065351Y-71073320D02*
X91160589Y-71120939D01*
X91160589Y-71120939D02*
X91208208Y-71168558D01*
X91208208Y-71168558D02*
X91255827Y-71263796D01*
X91255827Y-71263796D02*
X91255827Y-71549510D01*
X91255827Y-71549510D02*
X91208208Y-71644748D01*
X91208208Y-71644748D02*
X91160589Y-71692368D01*
X91160589Y-71692368D02*
X91065351Y-71739987D01*
X91065351Y-71739987D02*
X90922494Y-71739987D01*
X91541542Y-71073320D02*
X91922494Y-71073320D01*
X91684399Y-71739987D02*
X91684399Y-70882844D01*
X91684399Y-70882844D02*
X91732018Y-70787606D01*
X91732018Y-70787606D02*
X91827256Y-70739987D01*
X91827256Y-70739987D02*
X91922494Y-70739987D01*
X92112971Y-71073320D02*
X92493923Y-71073320D01*
X92255828Y-71739987D02*
X92255828Y-70882844D01*
X92255828Y-70882844D02*
X92303447Y-70787606D01*
X92303447Y-70787606D02*
X92398685Y-70739987D01*
X92398685Y-70739987D02*
X92493923Y-70739987D01*
X92827257Y-71739987D02*
X92827257Y-71073320D01*
X92827257Y-71168558D02*
X92874876Y-71120939D01*
X92874876Y-71120939D02*
X92970114Y-71073320D01*
X92970114Y-71073320D02*
X93112971Y-71073320D01*
X93112971Y-71073320D02*
X93208209Y-71120939D01*
X93208209Y-71120939D02*
X93255828Y-71216177D01*
X93255828Y-71216177D02*
X93255828Y-71739987D01*
X93255828Y-71216177D02*
X93303447Y-71120939D01*
X93303447Y-71120939D02*
X93398685Y-71073320D01*
X93398685Y-71073320D02*
X93541542Y-71073320D01*
X93541542Y-71073320D02*
X93636781Y-71120939D01*
X93636781Y-71120939D02*
X93684400Y-71216177D01*
X93684400Y-71216177D02*
X93684400Y-71739987D01*
X94589161Y-71739987D02*
X94589161Y-71216177D01*
X94589161Y-71216177D02*
X94541542Y-71120939D01*
X94541542Y-71120939D02*
X94446304Y-71073320D01*
X94446304Y-71073320D02*
X94255828Y-71073320D01*
X94255828Y-71073320D02*
X94160590Y-71120939D01*
X94589161Y-71692368D02*
X94493923Y-71739987D01*
X94493923Y-71739987D02*
X94255828Y-71739987D01*
X94255828Y-71739987D02*
X94160590Y-71692368D01*
X94160590Y-71692368D02*
X94112971Y-71597129D01*
X94112971Y-71597129D02*
X94112971Y-71501891D01*
X94112971Y-71501891D02*
X94160590Y-71406653D01*
X94160590Y-71406653D02*
X94255828Y-71359034D01*
X94255828Y-71359034D02*
X94493923Y-71359034D01*
X94493923Y-71359034D02*
X94589161Y-71311415D01*
X95065352Y-71073320D02*
X95065352Y-71739987D01*
X95065352Y-71168558D02*
X95112971Y-71120939D01*
X95112971Y-71120939D02*
X95208209Y-71073320D01*
X95208209Y-71073320D02*
X95351066Y-71073320D01*
X95351066Y-71073320D02*
X95446304Y-71120939D01*
X95446304Y-71120939D02*
X95493923Y-71216177D01*
X95493923Y-71216177D02*
X95493923Y-71739987D01*
X85208207Y-73254692D02*
X85160588Y-73302312D01*
X85160588Y-73302312D02*
X85017731Y-73349931D01*
X85017731Y-73349931D02*
X84922493Y-73349931D01*
X84922493Y-73349931D02*
X84779636Y-73302312D01*
X84779636Y-73302312D02*
X84684398Y-73207073D01*
X84684398Y-73207073D02*
X84636779Y-73111835D01*
X84636779Y-73111835D02*
X84589160Y-72921359D01*
X84589160Y-72921359D02*
X84589160Y-72778502D01*
X84589160Y-72778502D02*
X84636779Y-72588026D01*
X84636779Y-72588026D02*
X84684398Y-72492788D01*
X84684398Y-72492788D02*
X84779636Y-72397550D01*
X84779636Y-72397550D02*
X84922493Y-72349931D01*
X84922493Y-72349931D02*
X85017731Y-72349931D01*
X85017731Y-72349931D02*
X85160588Y-72397550D01*
X85160588Y-72397550D02*
X85208207Y-72445169D01*
X85779636Y-73349931D02*
X85684398Y-73302312D01*
X85684398Y-73302312D02*
X85636779Y-73254692D01*
X85636779Y-73254692D02*
X85589160Y-73159454D01*
X85589160Y-73159454D02*
X85589160Y-72873740D01*
X85589160Y-72873740D02*
X85636779Y-72778502D01*
X85636779Y-72778502D02*
X85684398Y-72730883D01*
X85684398Y-72730883D02*
X85779636Y-72683264D01*
X85779636Y-72683264D02*
X85922493Y-72683264D01*
X85922493Y-72683264D02*
X86017731Y-72730883D01*
X86017731Y-72730883D02*
X86065350Y-72778502D01*
X86065350Y-72778502D02*
X86112969Y-72873740D01*
X86112969Y-72873740D02*
X86112969Y-73159454D01*
X86112969Y-73159454D02*
X86065350Y-73254692D01*
X86065350Y-73254692D02*
X86017731Y-73302312D01*
X86017731Y-73302312D02*
X85922493Y-73349931D01*
X85922493Y-73349931D02*
X85779636Y-73349931D01*
X86684398Y-73349931D02*
X86589160Y-73302312D01*
X86589160Y-73302312D02*
X86541541Y-73207073D01*
X86541541Y-73207073D02*
X86541541Y-72349931D01*
X87446303Y-73302312D02*
X87351065Y-73349931D01*
X87351065Y-73349931D02*
X87160589Y-73349931D01*
X87160589Y-73349931D02*
X87065351Y-73302312D01*
X87065351Y-73302312D02*
X87017732Y-73207073D01*
X87017732Y-73207073D02*
X87017732Y-72826121D01*
X87017732Y-72826121D02*
X87065351Y-72730883D01*
X87065351Y-72730883D02*
X87160589Y-72683264D01*
X87160589Y-72683264D02*
X87351065Y-72683264D01*
X87351065Y-72683264D02*
X87446303Y-72730883D01*
X87446303Y-72730883D02*
X87493922Y-72826121D01*
X87493922Y-72826121D02*
X87493922Y-72921359D01*
X87493922Y-72921359D02*
X87017732Y-73016597D01*
X88541542Y-72349931D02*
X89112970Y-72349931D01*
X88827256Y-73349931D02*
X88827256Y-72349931D01*
X89446304Y-73349931D02*
X89446304Y-72349931D01*
X89874875Y-73349931D02*
X89874875Y-72826121D01*
X89874875Y-72826121D02*
X89827256Y-72730883D01*
X89827256Y-72730883D02*
X89732018Y-72683264D01*
X89732018Y-72683264D02*
X89589161Y-72683264D01*
X89589161Y-72683264D02*
X89493923Y-72730883D01*
X89493923Y-72730883D02*
X89446304Y-72778502D01*
X90493923Y-73349931D02*
X90398685Y-73302312D01*
X90398685Y-73302312D02*
X90351066Y-73254692D01*
X90351066Y-73254692D02*
X90303447Y-73159454D01*
X90303447Y-73159454D02*
X90303447Y-72873740D01*
X90303447Y-72873740D02*
X90351066Y-72778502D01*
X90351066Y-72778502D02*
X90398685Y-72730883D01*
X90398685Y-72730883D02*
X90493923Y-72683264D01*
X90493923Y-72683264D02*
X90636780Y-72683264D01*
X90636780Y-72683264D02*
X90732018Y-72730883D01*
X90732018Y-72730883D02*
X90779637Y-72778502D01*
X90779637Y-72778502D02*
X90827256Y-72873740D01*
X90827256Y-72873740D02*
X90827256Y-73159454D01*
X90827256Y-73159454D02*
X90779637Y-73254692D01*
X90779637Y-73254692D02*
X90732018Y-73302312D01*
X90732018Y-73302312D02*
X90636780Y-73349931D01*
X90636780Y-73349931D02*
X90493923Y-73349931D01*
X91255828Y-73349931D02*
X91255828Y-72683264D01*
X91255828Y-72873740D02*
X91303447Y-72778502D01*
X91303447Y-72778502D02*
X91351066Y-72730883D01*
X91351066Y-72730883D02*
X91446304Y-72683264D01*
X91446304Y-72683264D02*
X91541542Y-72683264D01*
X91874876Y-72683264D02*
X91874876Y-73349931D01*
X91874876Y-72778502D02*
X91922495Y-72730883D01*
X91922495Y-72730883D02*
X92017733Y-72683264D01*
X92017733Y-72683264D02*
X92160590Y-72683264D01*
X92160590Y-72683264D02*
X92255828Y-72730883D01*
X92255828Y-72730883D02*
X92303447Y-72826121D01*
X92303447Y-72826121D02*
X92303447Y-73349931D01*
X92636781Y-72683264D02*
X93017733Y-72683264D01*
X92779638Y-72349931D02*
X92779638Y-73207073D01*
X92779638Y-73207073D02*
X92827257Y-73302312D01*
X92827257Y-73302312D02*
X92922495Y-73349931D01*
X92922495Y-73349931D02*
X93017733Y-73349931D01*
X93493924Y-73349931D02*
X93398686Y-73302312D01*
X93398686Y-73302312D02*
X93351067Y-73254692D01*
X93351067Y-73254692D02*
X93303448Y-73159454D01*
X93303448Y-73159454D02*
X93303448Y-72873740D01*
X93303448Y-72873740D02*
X93351067Y-72778502D01*
X93351067Y-72778502D02*
X93398686Y-72730883D01*
X93398686Y-72730883D02*
X93493924Y-72683264D01*
X93493924Y-72683264D02*
X93636781Y-72683264D01*
X93636781Y-72683264D02*
X93732019Y-72730883D01*
X93732019Y-72730883D02*
X93779638Y-72778502D01*
X93779638Y-72778502D02*
X93827257Y-72873740D01*
X93827257Y-72873740D02*
X93827257Y-73159454D01*
X93827257Y-73159454D02*
X93779638Y-73254692D01*
X93779638Y-73254692D02*
X93732019Y-73302312D01*
X93732019Y-73302312D02*
X93636781Y-73349931D01*
X93636781Y-73349931D02*
X93493924Y-73349931D01*
X94255829Y-72683264D02*
X94255829Y-73349931D01*
X94255829Y-72778502D02*
X94303448Y-72730883D01*
X94303448Y-72730883D02*
X94398686Y-72683264D01*
X94398686Y-72683264D02*
X94541543Y-72683264D01*
X94541543Y-72683264D02*
X94636781Y-72730883D01*
X94636781Y-72730883D02*
X94684400Y-72826121D01*
X94684400Y-72826121D02*
X94684400Y-73349931D01*
X84970112Y-74436065D02*
X85112969Y-74483684D01*
X85112969Y-74483684D02*
X85160588Y-74531303D01*
X85160588Y-74531303D02*
X85208207Y-74626541D01*
X85208207Y-74626541D02*
X85208207Y-74769398D01*
X85208207Y-74769398D02*
X85160588Y-74864636D01*
X85160588Y-74864636D02*
X85112969Y-74912256D01*
X85112969Y-74912256D02*
X85017731Y-74959875D01*
X85017731Y-74959875D02*
X84636779Y-74959875D01*
X84636779Y-74959875D02*
X84636779Y-73959875D01*
X84636779Y-73959875D02*
X84970112Y-73959875D01*
X84970112Y-73959875D02*
X85065350Y-74007494D01*
X85065350Y-74007494D02*
X85112969Y-74055113D01*
X85112969Y-74055113D02*
X85160588Y-74150351D01*
X85160588Y-74150351D02*
X85160588Y-74245589D01*
X85160588Y-74245589D02*
X85112969Y-74340827D01*
X85112969Y-74340827D02*
X85065350Y-74388446D01*
X85065350Y-74388446D02*
X84970112Y-74436065D01*
X84970112Y-74436065D02*
X84636779Y-74436065D01*
X85636779Y-74959875D02*
X85636779Y-74293208D01*
X85636779Y-74483684D02*
X85684398Y-74388446D01*
X85684398Y-74388446D02*
X85732017Y-74340827D01*
X85732017Y-74340827D02*
X85827255Y-74293208D01*
X85827255Y-74293208D02*
X85922493Y-74293208D01*
X86684398Y-74959875D02*
X86684398Y-74436065D01*
X86684398Y-74436065D02*
X86636779Y-74340827D01*
X86636779Y-74340827D02*
X86541541Y-74293208D01*
X86541541Y-74293208D02*
X86351065Y-74293208D01*
X86351065Y-74293208D02*
X86255827Y-74340827D01*
X86684398Y-74912256D02*
X86589160Y-74959875D01*
X86589160Y-74959875D02*
X86351065Y-74959875D01*
X86351065Y-74959875D02*
X86255827Y-74912256D01*
X86255827Y-74912256D02*
X86208208Y-74817017D01*
X86208208Y-74817017D02*
X86208208Y-74721779D01*
X86208208Y-74721779D02*
X86255827Y-74626541D01*
X86255827Y-74626541D02*
X86351065Y-74578922D01*
X86351065Y-74578922D02*
X86589160Y-74578922D01*
X86589160Y-74578922D02*
X86684398Y-74531303D01*
X87160589Y-74293208D02*
X87160589Y-74959875D01*
X87160589Y-74388446D02*
X87208208Y-74340827D01*
X87208208Y-74340827D02*
X87303446Y-74293208D01*
X87303446Y-74293208D02*
X87446303Y-74293208D01*
X87446303Y-74293208D02*
X87541541Y-74340827D01*
X87541541Y-74340827D02*
X87589160Y-74436065D01*
X87589160Y-74436065D02*
X87589160Y-74959875D01*
X88493922Y-74959875D02*
X88493922Y-73959875D01*
X88493922Y-74912256D02*
X88398684Y-74959875D01*
X88398684Y-74959875D02*
X88208208Y-74959875D01*
X88208208Y-74959875D02*
X88112970Y-74912256D01*
X88112970Y-74912256D02*
X88065351Y-74864636D01*
X88065351Y-74864636D02*
X88017732Y-74769398D01*
X88017732Y-74769398D02*
X88017732Y-74483684D01*
X88017732Y-74483684D02*
X88065351Y-74388446D01*
X88065351Y-74388446D02*
X88112970Y-74340827D01*
X88112970Y-74340827D02*
X88208208Y-74293208D01*
X88208208Y-74293208D02*
X88398684Y-74293208D01*
X88398684Y-74293208D02*
X88493922Y-74340827D01*
X89112970Y-74959875D02*
X89017732Y-74912256D01*
X89017732Y-74912256D02*
X88970113Y-74864636D01*
X88970113Y-74864636D02*
X88922494Y-74769398D01*
X88922494Y-74769398D02*
X88922494Y-74483684D01*
X88922494Y-74483684D02*
X88970113Y-74388446D01*
X88970113Y-74388446D02*
X89017732Y-74340827D01*
X89017732Y-74340827D02*
X89112970Y-74293208D01*
X89112970Y-74293208D02*
X89255827Y-74293208D01*
X89255827Y-74293208D02*
X89351065Y-74340827D01*
X89351065Y-74340827D02*
X89398684Y-74388446D01*
X89398684Y-74388446D02*
X89446303Y-74483684D01*
X89446303Y-74483684D02*
X89446303Y-74769398D01*
X89446303Y-74769398D02*
X89398684Y-74864636D01*
X89398684Y-74864636D02*
X89351065Y-74912256D01*
X89351065Y-74912256D02*
X89255827Y-74959875D01*
X89255827Y-74959875D02*
X89112970Y-74959875D01*
X89874875Y-74293208D02*
X89874875Y-74959875D01*
X89874875Y-74388446D02*
X89922494Y-74340827D01*
X89922494Y-74340827D02*
X90017732Y-74293208D01*
X90017732Y-74293208D02*
X90160589Y-74293208D01*
X90160589Y-74293208D02*
X90255827Y-74340827D01*
X90255827Y-74340827D02*
X90303446Y-74436065D01*
X90303446Y-74436065D02*
X90303446Y-74959875D01*
X92112970Y-74864636D02*
X92065351Y-74912256D01*
X92065351Y-74912256D02*
X91922494Y-74959875D01*
X91922494Y-74959875D02*
X91827256Y-74959875D01*
X91827256Y-74959875D02*
X91684399Y-74912256D01*
X91684399Y-74912256D02*
X91589161Y-74817017D01*
X91589161Y-74817017D02*
X91541542Y-74721779D01*
X91541542Y-74721779D02*
X91493923Y-74531303D01*
X91493923Y-74531303D02*
X91493923Y-74388446D01*
X91493923Y-74388446D02*
X91541542Y-74197970D01*
X91541542Y-74197970D02*
X91589161Y-74102732D01*
X91589161Y-74102732D02*
X91684399Y-74007494D01*
X91684399Y-74007494D02*
X91827256Y-73959875D01*
X91827256Y-73959875D02*
X91922494Y-73959875D01*
X91922494Y-73959875D02*
X92065351Y-74007494D01*
X92065351Y-74007494D02*
X92112970Y-74055113D01*
X92541542Y-74959875D02*
X92541542Y-74293208D01*
X92541542Y-74483684D02*
X92589161Y-74388446D01*
X92589161Y-74388446D02*
X92636780Y-74340827D01*
X92636780Y-74340827D02*
X92732018Y-74293208D01*
X92732018Y-74293208D02*
X92827256Y-74293208D01*
X93589161Y-74293208D02*
X93589161Y-74959875D01*
X93160590Y-74293208D02*
X93160590Y-74817017D01*
X93160590Y-74817017D02*
X93208209Y-74912256D01*
X93208209Y-74912256D02*
X93303447Y-74959875D01*
X93303447Y-74959875D02*
X93446304Y-74959875D01*
X93446304Y-74959875D02*
X93541542Y-74912256D01*
X93541542Y-74912256D02*
X93589161Y-74864636D01*
X94493923Y-74959875D02*
X94493923Y-73959875D01*
X94493923Y-74912256D02*
X94398685Y-74959875D01*
X94398685Y-74959875D02*
X94208209Y-74959875D01*
X94208209Y-74959875D02*
X94112971Y-74912256D01*
X94112971Y-74912256D02*
X94065352Y-74864636D01*
X94065352Y-74864636D02*
X94017733Y-74769398D01*
X94017733Y-74769398D02*
X94017733Y-74483684D01*
X94017733Y-74483684D02*
X94065352Y-74388446D01*
X94065352Y-74388446D02*
X94112971Y-74340827D01*
X94112971Y-74340827D02*
X94208209Y-74293208D01*
X94208209Y-74293208D02*
X94398685Y-74293208D01*
X94398685Y-74293208D02*
X94493923Y-74340827D01*
X95351066Y-74912256D02*
X95255828Y-74959875D01*
X95255828Y-74959875D02*
X95065352Y-74959875D01*
X95065352Y-74959875D02*
X94970114Y-74912256D01*
X94970114Y-74912256D02*
X94922495Y-74817017D01*
X94922495Y-74817017D02*
X94922495Y-74436065D01*
X94922495Y-74436065D02*
X94970114Y-74340827D01*
X94970114Y-74340827D02*
X95065352Y-74293208D01*
X95065352Y-74293208D02*
X95255828Y-74293208D01*
X95255828Y-74293208D02*
X95351066Y-74340827D01*
X95351066Y-74340827D02*
X95398685Y-74436065D01*
X95398685Y-74436065D02*
X95398685Y-74531303D01*
X95398685Y-74531303D02*
X94922495Y-74626541D01*
X95970114Y-74959875D02*
X95874876Y-74912256D01*
X95874876Y-74912256D02*
X95827257Y-74817017D01*
X95827257Y-74817017D02*
X95827257Y-73959875D01*
X96732019Y-74912256D02*
X96636781Y-74959875D01*
X96636781Y-74959875D02*
X96446305Y-74959875D01*
X96446305Y-74959875D02*
X96351067Y-74912256D01*
X96351067Y-74912256D02*
X96303448Y-74817017D01*
X96303448Y-74817017D02*
X96303448Y-74436065D01*
X96303448Y-74436065D02*
X96351067Y-74340827D01*
X96351067Y-74340827D02*
X96446305Y-74293208D01*
X96446305Y-74293208D02*
X96636781Y-74293208D01*
X96636781Y-74293208D02*
X96732019Y-74340827D01*
X96732019Y-74340827D02*
X96779638Y-74436065D01*
X96779638Y-74436065D02*
X96779638Y-74531303D01*
X96779638Y-74531303D02*
X96303448Y-74626541D01*
X84541541Y-75569819D02*
X84779636Y-76569819D01*
X84779636Y-76569819D02*
X84970112Y-75855533D01*
X84970112Y-75855533D02*
X85160588Y-76569819D01*
X85160588Y-76569819D02*
X85398684Y-75569819D01*
X85779636Y-76569819D02*
X85779636Y-75903152D01*
X85779636Y-75569819D02*
X85732017Y-75617438D01*
X85732017Y-75617438D02*
X85779636Y-75665057D01*
X85779636Y-75665057D02*
X85827255Y-75617438D01*
X85827255Y-75617438D02*
X85779636Y-75569819D01*
X85779636Y-75569819D02*
X85779636Y-75665057D01*
X86398683Y-76569819D02*
X86303445Y-76522200D01*
X86303445Y-76522200D02*
X86255826Y-76426961D01*
X86255826Y-76426961D02*
X86255826Y-75569819D01*
X86922493Y-76569819D02*
X86827255Y-76522200D01*
X86827255Y-76522200D02*
X86779636Y-76426961D01*
X86779636Y-76426961D02*
X86779636Y-75569819D01*
X87303446Y-76569819D02*
X87303446Y-75903152D01*
X87303446Y-75569819D02*
X87255827Y-75617438D01*
X87255827Y-75617438D02*
X87303446Y-75665057D01*
X87303446Y-75665057D02*
X87351065Y-75617438D01*
X87351065Y-75617438D02*
X87303446Y-75569819D01*
X87303446Y-75569819D02*
X87303446Y-75665057D01*
X88208207Y-76569819D02*
X88208207Y-76046009D01*
X88208207Y-76046009D02*
X88160588Y-75950771D01*
X88160588Y-75950771D02*
X88065350Y-75903152D01*
X88065350Y-75903152D02*
X87874874Y-75903152D01*
X87874874Y-75903152D02*
X87779636Y-75950771D01*
X88208207Y-76522200D02*
X88112969Y-76569819D01*
X88112969Y-76569819D02*
X87874874Y-76569819D01*
X87874874Y-76569819D02*
X87779636Y-76522200D01*
X87779636Y-76522200D02*
X87732017Y-76426961D01*
X87732017Y-76426961D02*
X87732017Y-76331723D01*
X87732017Y-76331723D02*
X87779636Y-76236485D01*
X87779636Y-76236485D02*
X87874874Y-76188866D01*
X87874874Y-76188866D02*
X88112969Y-76188866D01*
X88112969Y-76188866D02*
X88208207Y-76141247D01*
X88684398Y-76569819D02*
X88684398Y-75903152D01*
X88684398Y-75998390D02*
X88732017Y-75950771D01*
X88732017Y-75950771D02*
X88827255Y-75903152D01*
X88827255Y-75903152D02*
X88970112Y-75903152D01*
X88970112Y-75903152D02*
X89065350Y-75950771D01*
X89065350Y-75950771D02*
X89112969Y-76046009D01*
X89112969Y-76046009D02*
X89112969Y-76569819D01*
X89112969Y-76046009D02*
X89160588Y-75950771D01*
X89160588Y-75950771D02*
X89255826Y-75903152D01*
X89255826Y-75903152D02*
X89398683Y-75903152D01*
X89398683Y-75903152D02*
X89493922Y-75950771D01*
X89493922Y-75950771D02*
X89541541Y-76046009D01*
X89541541Y-76046009D02*
X89541541Y-76569819D01*
X91255826Y-76569819D02*
X90779636Y-76569819D01*
X90779636Y-76569819D02*
X90779636Y-75569819D01*
X91589160Y-76569819D02*
X91589160Y-75903152D01*
X91589160Y-75569819D02*
X91541541Y-75617438D01*
X91541541Y-75617438D02*
X91589160Y-75665057D01*
X91589160Y-75665057D02*
X91636779Y-75617438D01*
X91636779Y-75617438D02*
X91589160Y-75569819D01*
X91589160Y-75569819D02*
X91589160Y-75665057D01*
X136341541Y-95869819D02*
X136960588Y-95869819D01*
X136960588Y-95869819D02*
X136627255Y-96250771D01*
X136627255Y-96250771D02*
X136770112Y-96250771D01*
X136770112Y-96250771D02*
X136865350Y-96298390D01*
X136865350Y-96298390D02*
X136912969Y-96346009D01*
X136912969Y-96346009D02*
X136960588Y-96441247D01*
X136960588Y-96441247D02*
X136960588Y-96679342D01*
X136960588Y-96679342D02*
X136912969Y-96774580D01*
X136912969Y-96774580D02*
X136865350Y-96822200D01*
X136865350Y-96822200D02*
X136770112Y-96869819D01*
X136770112Y-96869819D02*
X136484398Y-96869819D01*
X136484398Y-96869819D02*
X136389160Y-96822200D01*
X136389160Y-96822200D02*
X136341541Y-96774580D01*
X137389160Y-96774580D02*
X137436779Y-96822200D01*
X137436779Y-96822200D02*
X137389160Y-96869819D01*
X137389160Y-96869819D02*
X137341541Y-96822200D01*
X137341541Y-96822200D02*
X137389160Y-96774580D01*
X137389160Y-96774580D02*
X137389160Y-96869819D01*
X137770112Y-95869819D02*
X138389159Y-95869819D01*
X138389159Y-95869819D02*
X138055826Y-96250771D01*
X138055826Y-96250771D02*
X138198683Y-96250771D01*
X138198683Y-96250771D02*
X138293921Y-96298390D01*
X138293921Y-96298390D02*
X138341540Y-96346009D01*
X138341540Y-96346009D02*
X138389159Y-96441247D01*
X138389159Y-96441247D02*
X138389159Y-96679342D01*
X138389159Y-96679342D02*
X138341540Y-96774580D01*
X138341540Y-96774580D02*
X138293921Y-96822200D01*
X138293921Y-96822200D02*
X138198683Y-96869819D01*
X138198683Y-96869819D02*
X137912969Y-96869819D01*
X137912969Y-96869819D02*
X137817731Y-96822200D01*
X137817731Y-96822200D02*
X137770112Y-96774580D01*
X138674874Y-95869819D02*
X139008207Y-96869819D01*
X139008207Y-96869819D02*
X139341540Y-95869819D01*
D11*
X183896429Y-58336623D02*
X183301191Y-58336623D01*
X183301191Y-58336623D02*
X183301191Y-57086623D01*
X184313096Y-57681861D02*
X184729762Y-57681861D01*
X184908334Y-58336623D02*
X184313096Y-58336623D01*
X184313096Y-58336623D02*
X184313096Y-57086623D01*
X184313096Y-57086623D02*
X184908334Y-57086623D01*
X185444048Y-58336623D02*
X185444048Y-57086623D01*
X185444048Y-57086623D02*
X185741667Y-57086623D01*
X185741667Y-57086623D02*
X185920238Y-57146147D01*
X185920238Y-57146147D02*
X186039286Y-57265195D01*
X186039286Y-57265195D02*
X186098809Y-57384242D01*
X186098809Y-57384242D02*
X186158333Y-57622338D01*
X186158333Y-57622338D02*
X186158333Y-57800909D01*
X186158333Y-57800909D02*
X186098809Y-58039004D01*
X186098809Y-58039004D02*
X186039286Y-58158052D01*
X186039286Y-58158052D02*
X185920238Y-58277100D01*
X185920238Y-58277100D02*
X185741667Y-58336623D01*
X185741667Y-58336623D02*
X185444048Y-58336623D01*
D10*
X112541541Y-110869819D02*
X113160588Y-110869819D01*
X113160588Y-110869819D02*
X112827255Y-111250771D01*
X112827255Y-111250771D02*
X112970112Y-111250771D01*
X112970112Y-111250771D02*
X113065350Y-111298390D01*
X113065350Y-111298390D02*
X113112969Y-111346009D01*
X113112969Y-111346009D02*
X113160588Y-111441247D01*
X113160588Y-111441247D02*
X113160588Y-111679342D01*
X113160588Y-111679342D02*
X113112969Y-111774580D01*
X113112969Y-111774580D02*
X113065350Y-111822200D01*
X113065350Y-111822200D02*
X112970112Y-111869819D01*
X112970112Y-111869819D02*
X112684398Y-111869819D01*
X112684398Y-111869819D02*
X112589160Y-111822200D01*
X112589160Y-111822200D02*
X112541541Y-111774580D01*
X113589160Y-111774580D02*
X113636779Y-111822200D01*
X113636779Y-111822200D02*
X113589160Y-111869819D01*
X113589160Y-111869819D02*
X113541541Y-111822200D01*
X113541541Y-111822200D02*
X113589160Y-111774580D01*
X113589160Y-111774580D02*
X113589160Y-111869819D01*
X113970112Y-110869819D02*
X114589159Y-110869819D01*
X114589159Y-110869819D02*
X114255826Y-111250771D01*
X114255826Y-111250771D02*
X114398683Y-111250771D01*
X114398683Y-111250771D02*
X114493921Y-111298390D01*
X114493921Y-111298390D02*
X114541540Y-111346009D01*
X114541540Y-111346009D02*
X114589159Y-111441247D01*
X114589159Y-111441247D02*
X114589159Y-111679342D01*
X114589159Y-111679342D02*
X114541540Y-111774580D01*
X114541540Y-111774580D02*
X114493921Y-111822200D01*
X114493921Y-111822200D02*
X114398683Y-111869819D01*
X114398683Y-111869819D02*
X114112969Y-111869819D01*
X114112969Y-111869819D02*
X114017731Y-111822200D01*
X114017731Y-111822200D02*
X113970112Y-111774580D01*
X114874874Y-110869819D02*
X115208207Y-111869819D01*
X115208207Y-111869819D02*
X115541540Y-110869819D01*
X136789160Y-89222200D02*
X136932017Y-89269819D01*
X136932017Y-89269819D02*
X137170112Y-89269819D01*
X137170112Y-89269819D02*
X137265350Y-89222200D01*
X137265350Y-89222200D02*
X137312969Y-89174580D01*
X137312969Y-89174580D02*
X137360588Y-89079342D01*
X137360588Y-89079342D02*
X137360588Y-88984104D01*
X137360588Y-88984104D02*
X137312969Y-88888866D01*
X137312969Y-88888866D02*
X137265350Y-88841247D01*
X137265350Y-88841247D02*
X137170112Y-88793628D01*
X137170112Y-88793628D02*
X136979636Y-88746009D01*
X136979636Y-88746009D02*
X136884398Y-88698390D01*
X136884398Y-88698390D02*
X136836779Y-88650771D01*
X136836779Y-88650771D02*
X136789160Y-88555533D01*
X136789160Y-88555533D02*
X136789160Y-88460295D01*
X136789160Y-88460295D02*
X136836779Y-88365057D01*
X136836779Y-88365057D02*
X136884398Y-88317438D01*
X136884398Y-88317438D02*
X136979636Y-88269819D01*
X136979636Y-88269819D02*
X137217731Y-88269819D01*
X137217731Y-88269819D02*
X137360588Y-88317438D01*
X138360588Y-89174580D02*
X138312969Y-89222200D01*
X138312969Y-89222200D02*
X138170112Y-89269819D01*
X138170112Y-89269819D02*
X138074874Y-89269819D01*
X138074874Y-89269819D02*
X137932017Y-89222200D01*
X137932017Y-89222200D02*
X137836779Y-89126961D01*
X137836779Y-89126961D02*
X137789160Y-89031723D01*
X137789160Y-89031723D02*
X137741541Y-88841247D01*
X137741541Y-88841247D02*
X137741541Y-88698390D01*
X137741541Y-88698390D02*
X137789160Y-88507914D01*
X137789160Y-88507914D02*
X137836779Y-88412676D01*
X137836779Y-88412676D02*
X137932017Y-88317438D01*
X137932017Y-88317438D02*
X138074874Y-88269819D01*
X138074874Y-88269819D02*
X138170112Y-88269819D01*
X138170112Y-88269819D02*
X138312969Y-88317438D01*
X138312969Y-88317438D02*
X138360588Y-88365057D01*
X139265350Y-89269819D02*
X138789160Y-89269819D01*
X138789160Y-89269819D02*
X138789160Y-88269819D01*
X102641541Y-118469819D02*
X103260588Y-118469819D01*
X103260588Y-118469819D02*
X102927255Y-118850771D01*
X102927255Y-118850771D02*
X103070112Y-118850771D01*
X103070112Y-118850771D02*
X103165350Y-118898390D01*
X103165350Y-118898390D02*
X103212969Y-118946009D01*
X103212969Y-118946009D02*
X103260588Y-119041247D01*
X103260588Y-119041247D02*
X103260588Y-119279342D01*
X103260588Y-119279342D02*
X103212969Y-119374580D01*
X103212969Y-119374580D02*
X103165350Y-119422200D01*
X103165350Y-119422200D02*
X103070112Y-119469819D01*
X103070112Y-119469819D02*
X102784398Y-119469819D01*
X102784398Y-119469819D02*
X102689160Y-119422200D01*
X102689160Y-119422200D02*
X102641541Y-119374580D01*
X103689160Y-119374580D02*
X103736779Y-119422200D01*
X103736779Y-119422200D02*
X103689160Y-119469819D01*
X103689160Y-119469819D02*
X103641541Y-119422200D01*
X103641541Y-119422200D02*
X103689160Y-119374580D01*
X103689160Y-119374580D02*
X103689160Y-119469819D01*
X104070112Y-118469819D02*
X104689159Y-118469819D01*
X104689159Y-118469819D02*
X104355826Y-118850771D01*
X104355826Y-118850771D02*
X104498683Y-118850771D01*
X104498683Y-118850771D02*
X104593921Y-118898390D01*
X104593921Y-118898390D02*
X104641540Y-118946009D01*
X104641540Y-118946009D02*
X104689159Y-119041247D01*
X104689159Y-119041247D02*
X104689159Y-119279342D01*
X104689159Y-119279342D02*
X104641540Y-119374580D01*
X104641540Y-119374580D02*
X104593921Y-119422200D01*
X104593921Y-119422200D02*
X104498683Y-119469819D01*
X104498683Y-119469819D02*
X104212969Y-119469819D01*
X104212969Y-119469819D02*
X104117731Y-119422200D01*
X104117731Y-119422200D02*
X104070112Y-119374580D01*
X104974874Y-118469819D02*
X105308207Y-119469819D01*
X105308207Y-119469819D02*
X105641540Y-118469819D01*
X179789160Y-108484104D02*
X180265350Y-108484104D01*
X179693922Y-108769819D02*
X180027255Y-107769819D01*
X180027255Y-107769819D02*
X180360588Y-108769819D01*
X180646303Y-107865057D02*
X180693922Y-107817438D01*
X180693922Y-107817438D02*
X180789160Y-107769819D01*
X180789160Y-107769819D02*
X181027255Y-107769819D01*
X181027255Y-107769819D02*
X181122493Y-107817438D01*
X181122493Y-107817438D02*
X181170112Y-107865057D01*
X181170112Y-107865057D02*
X181217731Y-107960295D01*
X181217731Y-107960295D02*
X181217731Y-108055533D01*
X181217731Y-108055533D02*
X181170112Y-108198390D01*
X181170112Y-108198390D02*
X180598684Y-108769819D01*
X180598684Y-108769819D02*
X181217731Y-108769819D01*
X136689160Y-86722200D02*
X136832017Y-86769819D01*
X136832017Y-86769819D02*
X137070112Y-86769819D01*
X137070112Y-86769819D02*
X137165350Y-86722200D01*
X137165350Y-86722200D02*
X137212969Y-86674580D01*
X137212969Y-86674580D02*
X137260588Y-86579342D01*
X137260588Y-86579342D02*
X137260588Y-86484104D01*
X137260588Y-86484104D02*
X137212969Y-86388866D01*
X137212969Y-86388866D02*
X137165350Y-86341247D01*
X137165350Y-86341247D02*
X137070112Y-86293628D01*
X137070112Y-86293628D02*
X136879636Y-86246009D01*
X136879636Y-86246009D02*
X136784398Y-86198390D01*
X136784398Y-86198390D02*
X136736779Y-86150771D01*
X136736779Y-86150771D02*
X136689160Y-86055533D01*
X136689160Y-86055533D02*
X136689160Y-85960295D01*
X136689160Y-85960295D02*
X136736779Y-85865057D01*
X136736779Y-85865057D02*
X136784398Y-85817438D01*
X136784398Y-85817438D02*
X136879636Y-85769819D01*
X136879636Y-85769819D02*
X137117731Y-85769819D01*
X137117731Y-85769819D02*
X137260588Y-85817438D01*
X137689160Y-86769819D02*
X137689160Y-85769819D01*
X137689160Y-85769819D02*
X137927255Y-85769819D01*
X137927255Y-85769819D02*
X138070112Y-85817438D01*
X138070112Y-85817438D02*
X138165350Y-85912676D01*
X138165350Y-85912676D02*
X138212969Y-86007914D01*
X138212969Y-86007914D02*
X138260588Y-86198390D01*
X138260588Y-86198390D02*
X138260588Y-86341247D01*
X138260588Y-86341247D02*
X138212969Y-86531723D01*
X138212969Y-86531723D02*
X138165350Y-86626961D01*
X138165350Y-86626961D02*
X138070112Y-86722200D01*
X138070112Y-86722200D02*
X137927255Y-86769819D01*
X137927255Y-86769819D02*
X137689160Y-86769819D01*
X138641541Y-86484104D02*
X139117731Y-86484104D01*
X138546303Y-86769819D02*
X138879636Y-85769819D01*
X138879636Y-85769819D02*
X139212969Y-86769819D01*
X82036779Y-64669819D02*
X82036779Y-63669819D01*
X82036779Y-63669819D02*
X82274874Y-63669819D01*
X82274874Y-63669819D02*
X82417731Y-63717438D01*
X82417731Y-63717438D02*
X82512969Y-63812676D01*
X82512969Y-63812676D02*
X82560588Y-63907914D01*
X82560588Y-63907914D02*
X82608207Y-64098390D01*
X82608207Y-64098390D02*
X82608207Y-64241247D01*
X82608207Y-64241247D02*
X82560588Y-64431723D01*
X82560588Y-64431723D02*
X82512969Y-64526961D01*
X82512969Y-64526961D02*
X82417731Y-64622200D01*
X82417731Y-64622200D02*
X82274874Y-64669819D01*
X82274874Y-64669819D02*
X82036779Y-64669819D01*
X83417731Y-64622200D02*
X83322493Y-64669819D01*
X83322493Y-64669819D02*
X83132017Y-64669819D01*
X83132017Y-64669819D02*
X83036779Y-64622200D01*
X83036779Y-64622200D02*
X82989160Y-64526961D01*
X82989160Y-64526961D02*
X82989160Y-64146009D01*
X82989160Y-64146009D02*
X83036779Y-64050771D01*
X83036779Y-64050771D02*
X83132017Y-64003152D01*
X83132017Y-64003152D02*
X83322493Y-64003152D01*
X83322493Y-64003152D02*
X83417731Y-64050771D01*
X83417731Y-64050771D02*
X83465350Y-64146009D01*
X83465350Y-64146009D02*
X83465350Y-64241247D01*
X83465350Y-64241247D02*
X82989160Y-64336485D01*
X83846303Y-64622200D02*
X83941541Y-64669819D01*
X83941541Y-64669819D02*
X84132017Y-64669819D01*
X84132017Y-64669819D02*
X84227255Y-64622200D01*
X84227255Y-64622200D02*
X84274874Y-64526961D01*
X84274874Y-64526961D02*
X84274874Y-64479342D01*
X84274874Y-64479342D02*
X84227255Y-64384104D01*
X84227255Y-64384104D02*
X84132017Y-64336485D01*
X84132017Y-64336485D02*
X83989160Y-64336485D01*
X83989160Y-64336485D02*
X83893922Y-64288866D01*
X83893922Y-64288866D02*
X83846303Y-64193628D01*
X83846303Y-64193628D02*
X83846303Y-64146009D01*
X83846303Y-64146009D02*
X83893922Y-64050771D01*
X83893922Y-64050771D02*
X83989160Y-64003152D01*
X83989160Y-64003152D02*
X84132017Y-64003152D01*
X84132017Y-64003152D02*
X84227255Y-64050771D01*
X84703446Y-64669819D02*
X84703446Y-64003152D01*
X84703446Y-63669819D02*
X84655827Y-63717438D01*
X84655827Y-63717438D02*
X84703446Y-63765057D01*
X84703446Y-63765057D02*
X84751065Y-63717438D01*
X84751065Y-63717438D02*
X84703446Y-63669819D01*
X84703446Y-63669819D02*
X84703446Y-63765057D01*
X85608207Y-64003152D02*
X85608207Y-64812676D01*
X85608207Y-64812676D02*
X85560588Y-64907914D01*
X85560588Y-64907914D02*
X85512969Y-64955533D01*
X85512969Y-64955533D02*
X85417731Y-65003152D01*
X85417731Y-65003152D02*
X85274874Y-65003152D01*
X85274874Y-65003152D02*
X85179636Y-64955533D01*
X85608207Y-64622200D02*
X85512969Y-64669819D01*
X85512969Y-64669819D02*
X85322493Y-64669819D01*
X85322493Y-64669819D02*
X85227255Y-64622200D01*
X85227255Y-64622200D02*
X85179636Y-64574580D01*
X85179636Y-64574580D02*
X85132017Y-64479342D01*
X85132017Y-64479342D02*
X85132017Y-64193628D01*
X85132017Y-64193628D02*
X85179636Y-64098390D01*
X85179636Y-64098390D02*
X85227255Y-64050771D01*
X85227255Y-64050771D02*
X85322493Y-64003152D01*
X85322493Y-64003152D02*
X85512969Y-64003152D01*
X85512969Y-64003152D02*
X85608207Y-64050771D01*
X86084398Y-64003152D02*
X86084398Y-64669819D01*
X86084398Y-64098390D02*
X86132017Y-64050771D01*
X86132017Y-64050771D02*
X86227255Y-64003152D01*
X86227255Y-64003152D02*
X86370112Y-64003152D01*
X86370112Y-64003152D02*
X86465350Y-64050771D01*
X86465350Y-64050771D02*
X86512969Y-64146009D01*
X86512969Y-64146009D02*
X86512969Y-64669819D01*
X87370112Y-64622200D02*
X87274874Y-64669819D01*
X87274874Y-64669819D02*
X87084398Y-64669819D01*
X87084398Y-64669819D02*
X86989160Y-64622200D01*
X86989160Y-64622200D02*
X86941541Y-64526961D01*
X86941541Y-64526961D02*
X86941541Y-64146009D01*
X86941541Y-64146009D02*
X86989160Y-64050771D01*
X86989160Y-64050771D02*
X87084398Y-64003152D01*
X87084398Y-64003152D02*
X87274874Y-64003152D01*
X87274874Y-64003152D02*
X87370112Y-64050771D01*
X87370112Y-64050771D02*
X87417731Y-64146009D01*
X87417731Y-64146009D02*
X87417731Y-64241247D01*
X87417731Y-64241247D02*
X86941541Y-64336485D01*
X88274874Y-64669819D02*
X88274874Y-63669819D01*
X88274874Y-64622200D02*
X88179636Y-64669819D01*
X88179636Y-64669819D02*
X87989160Y-64669819D01*
X87989160Y-64669819D02*
X87893922Y-64622200D01*
X87893922Y-64622200D02*
X87846303Y-64574580D01*
X87846303Y-64574580D02*
X87798684Y-64479342D01*
X87798684Y-64479342D02*
X87798684Y-64193628D01*
X87798684Y-64193628D02*
X87846303Y-64098390D01*
X87846303Y-64098390D02*
X87893922Y-64050771D01*
X87893922Y-64050771D02*
X87989160Y-64003152D01*
X87989160Y-64003152D02*
X88179636Y-64003152D01*
X88179636Y-64003152D02*
X88274874Y-64050771D01*
X89512970Y-64669819D02*
X89512970Y-63669819D01*
X89512970Y-64050771D02*
X89608208Y-64003152D01*
X89608208Y-64003152D02*
X89798684Y-64003152D01*
X89798684Y-64003152D02*
X89893922Y-64050771D01*
X89893922Y-64050771D02*
X89941541Y-64098390D01*
X89941541Y-64098390D02*
X89989160Y-64193628D01*
X89989160Y-64193628D02*
X89989160Y-64479342D01*
X89989160Y-64479342D02*
X89941541Y-64574580D01*
X89941541Y-64574580D02*
X89893922Y-64622200D01*
X89893922Y-64622200D02*
X89798684Y-64669819D01*
X89798684Y-64669819D02*
X89608208Y-64669819D01*
X89608208Y-64669819D02*
X89512970Y-64622200D01*
X90322494Y-64003152D02*
X90560589Y-64669819D01*
X90798684Y-64003152D02*
X90560589Y-64669819D01*
X90560589Y-64669819D02*
X90465351Y-64907914D01*
X90465351Y-64907914D02*
X90417732Y-64955533D01*
X90417732Y-64955533D02*
X90322494Y-65003152D01*
X91179637Y-64574580D02*
X91227256Y-64622200D01*
X91227256Y-64622200D02*
X91179637Y-64669819D01*
X91179637Y-64669819D02*
X91132018Y-64622200D01*
X91132018Y-64622200D02*
X91179637Y-64574580D01*
X91179637Y-64574580D02*
X91179637Y-64669819D01*
X91179637Y-64050771D02*
X91227256Y-64098390D01*
X91227256Y-64098390D02*
X91179637Y-64146009D01*
X91179637Y-64146009D02*
X91132018Y-64098390D01*
X91132018Y-64098390D02*
X91179637Y-64050771D01*
X91179637Y-64050771D02*
X91179637Y-64146009D01*
X191836779Y-86569819D02*
X191836779Y-85569819D01*
X191836779Y-85569819D02*
X192074874Y-85569819D01*
X192074874Y-85569819D02*
X192217731Y-85617438D01*
X192217731Y-85617438D02*
X192312969Y-85712676D01*
X192312969Y-85712676D02*
X192360588Y-85807914D01*
X192360588Y-85807914D02*
X192408207Y-85998390D01*
X192408207Y-85998390D02*
X192408207Y-86141247D01*
X192408207Y-86141247D02*
X192360588Y-86331723D01*
X192360588Y-86331723D02*
X192312969Y-86426961D01*
X192312969Y-86426961D02*
X192217731Y-86522200D01*
X192217731Y-86522200D02*
X192074874Y-86569819D01*
X192074874Y-86569819D02*
X191836779Y-86569819D01*
X193360588Y-86569819D02*
X192789160Y-86569819D01*
X193074874Y-86569819D02*
X193074874Y-85569819D01*
X193074874Y-85569819D02*
X192979636Y-85712676D01*
X192979636Y-85712676D02*
X192884398Y-85807914D01*
X192884398Y-85807914D02*
X192789160Y-85855533D01*
X193693922Y-85569819D02*
X194312969Y-85569819D01*
X194312969Y-85569819D02*
X193979636Y-85950771D01*
X193979636Y-85950771D02*
X194122493Y-85950771D01*
X194122493Y-85950771D02*
X194217731Y-85998390D01*
X194217731Y-85998390D02*
X194265350Y-86046009D01*
X194265350Y-86046009D02*
X194312969Y-86141247D01*
X194312969Y-86141247D02*
X194312969Y-86379342D01*
X194312969Y-86379342D02*
X194265350Y-86474580D01*
X194265350Y-86474580D02*
X194217731Y-86522200D01*
X194217731Y-86522200D02*
X194122493Y-86569819D01*
X194122493Y-86569819D02*
X193836779Y-86569819D01*
X193836779Y-86569819D02*
X193741541Y-86522200D01*
X193741541Y-86522200D02*
X193693922Y-86474580D01*
D11*
X190989285Y-60581861D02*
X191167857Y-60641385D01*
X191167857Y-60641385D02*
X191227380Y-60700909D01*
X191227380Y-60700909D02*
X191286904Y-60819957D01*
X191286904Y-60819957D02*
X191286904Y-60998528D01*
X191286904Y-60998528D02*
X191227380Y-61117576D01*
X191227380Y-61117576D02*
X191167857Y-61177100D01*
X191167857Y-61177100D02*
X191048809Y-61236623D01*
X191048809Y-61236623D02*
X190572619Y-61236623D01*
X190572619Y-61236623D02*
X190572619Y-59986623D01*
X190572619Y-59986623D02*
X190989285Y-59986623D01*
X190989285Y-59986623D02*
X191108333Y-60046147D01*
X191108333Y-60046147D02*
X191167857Y-60105671D01*
X191167857Y-60105671D02*
X191227380Y-60224719D01*
X191227380Y-60224719D02*
X191227380Y-60343766D01*
X191227380Y-60343766D02*
X191167857Y-60462814D01*
X191167857Y-60462814D02*
X191108333Y-60522338D01*
X191108333Y-60522338D02*
X190989285Y-60581861D01*
X190989285Y-60581861D02*
X190572619Y-60581861D01*
X186927380Y-62846147D02*
X186808333Y-62786623D01*
X186808333Y-62786623D02*
X186629761Y-62786623D01*
X186629761Y-62786623D02*
X186451190Y-62846147D01*
X186451190Y-62846147D02*
X186332142Y-62965195D01*
X186332142Y-62965195D02*
X186272619Y-63084242D01*
X186272619Y-63084242D02*
X186213095Y-63322338D01*
X186213095Y-63322338D02*
X186213095Y-63500909D01*
X186213095Y-63500909D02*
X186272619Y-63739004D01*
X186272619Y-63739004D02*
X186332142Y-63858052D01*
X186332142Y-63858052D02*
X186451190Y-63977100D01*
X186451190Y-63977100D02*
X186629761Y-64036623D01*
X186629761Y-64036623D02*
X186748809Y-64036623D01*
X186748809Y-64036623D02*
X186927380Y-63977100D01*
X186927380Y-63977100D02*
X186986904Y-63917576D01*
X186986904Y-63917576D02*
X186986904Y-63500909D01*
X186986904Y-63500909D02*
X186748809Y-63500909D01*
D10*
X191789160Y-83822200D02*
X191932017Y-83869819D01*
X191932017Y-83869819D02*
X192170112Y-83869819D01*
X192170112Y-83869819D02*
X192265350Y-83822200D01*
X192265350Y-83822200D02*
X192312969Y-83774580D01*
X192312969Y-83774580D02*
X192360588Y-83679342D01*
X192360588Y-83679342D02*
X192360588Y-83584104D01*
X192360588Y-83584104D02*
X192312969Y-83488866D01*
X192312969Y-83488866D02*
X192265350Y-83441247D01*
X192265350Y-83441247D02*
X192170112Y-83393628D01*
X192170112Y-83393628D02*
X191979636Y-83346009D01*
X191979636Y-83346009D02*
X191884398Y-83298390D01*
X191884398Y-83298390D02*
X191836779Y-83250771D01*
X191836779Y-83250771D02*
X191789160Y-83155533D01*
X191789160Y-83155533D02*
X191789160Y-83060295D01*
X191789160Y-83060295D02*
X191836779Y-82965057D01*
X191836779Y-82965057D02*
X191884398Y-82917438D01*
X191884398Y-82917438D02*
X191979636Y-82869819D01*
X191979636Y-82869819D02*
X192217731Y-82869819D01*
X192217731Y-82869819D02*
X192360588Y-82917438D01*
X193360588Y-83774580D02*
X193312969Y-83822200D01*
X193312969Y-83822200D02*
X193170112Y-83869819D01*
X193170112Y-83869819D02*
X193074874Y-83869819D01*
X193074874Y-83869819D02*
X192932017Y-83822200D01*
X192932017Y-83822200D02*
X192836779Y-83726961D01*
X192836779Y-83726961D02*
X192789160Y-83631723D01*
X192789160Y-83631723D02*
X192741541Y-83441247D01*
X192741541Y-83441247D02*
X192741541Y-83298390D01*
X192741541Y-83298390D02*
X192789160Y-83107914D01*
X192789160Y-83107914D02*
X192836779Y-83012676D01*
X192836779Y-83012676D02*
X192932017Y-82917438D01*
X192932017Y-82917438D02*
X193074874Y-82869819D01*
X193074874Y-82869819D02*
X193170112Y-82869819D01*
X193170112Y-82869819D02*
X193312969Y-82917438D01*
X193312969Y-82917438D02*
X193360588Y-82965057D01*
X193789160Y-83869819D02*
X193789160Y-82869819D01*
X194360588Y-83869819D02*
X193932017Y-83298390D01*
X194360588Y-82869819D02*
X193789160Y-83441247D01*
X129341541Y-105869819D02*
X129960588Y-105869819D01*
X129960588Y-105869819D02*
X129627255Y-106250771D01*
X129627255Y-106250771D02*
X129770112Y-106250771D01*
X129770112Y-106250771D02*
X129865350Y-106298390D01*
X129865350Y-106298390D02*
X129912969Y-106346009D01*
X129912969Y-106346009D02*
X129960588Y-106441247D01*
X129960588Y-106441247D02*
X129960588Y-106679342D01*
X129960588Y-106679342D02*
X129912969Y-106774580D01*
X129912969Y-106774580D02*
X129865350Y-106822200D01*
X129865350Y-106822200D02*
X129770112Y-106869819D01*
X129770112Y-106869819D02*
X129484398Y-106869819D01*
X129484398Y-106869819D02*
X129389160Y-106822200D01*
X129389160Y-106822200D02*
X129341541Y-106774580D01*
X130389160Y-106774580D02*
X130436779Y-106822200D01*
X130436779Y-106822200D02*
X130389160Y-106869819D01*
X130389160Y-106869819D02*
X130341541Y-106822200D01*
X130341541Y-106822200D02*
X130389160Y-106774580D01*
X130389160Y-106774580D02*
X130389160Y-106869819D01*
X130770112Y-105869819D02*
X131389159Y-105869819D01*
X131389159Y-105869819D02*
X131055826Y-106250771D01*
X131055826Y-106250771D02*
X131198683Y-106250771D01*
X131198683Y-106250771D02*
X131293921Y-106298390D01*
X131293921Y-106298390D02*
X131341540Y-106346009D01*
X131341540Y-106346009D02*
X131389159Y-106441247D01*
X131389159Y-106441247D02*
X131389159Y-106679342D01*
X131389159Y-106679342D02*
X131341540Y-106774580D01*
X131341540Y-106774580D02*
X131293921Y-106822200D01*
X131293921Y-106822200D02*
X131198683Y-106869819D01*
X131198683Y-106869819D02*
X130912969Y-106869819D01*
X130912969Y-106869819D02*
X130817731Y-106822200D01*
X130817731Y-106822200D02*
X130770112Y-106774580D01*
X131674874Y-105869819D02*
X132008207Y-106869819D01*
X132008207Y-106869819D02*
X132341540Y-105869819D01*
X195141541Y-107769819D02*
X195760588Y-107769819D01*
X195760588Y-107769819D02*
X195427255Y-108150771D01*
X195427255Y-108150771D02*
X195570112Y-108150771D01*
X195570112Y-108150771D02*
X195665350Y-108198390D01*
X195665350Y-108198390D02*
X195712969Y-108246009D01*
X195712969Y-108246009D02*
X195760588Y-108341247D01*
X195760588Y-108341247D02*
X195760588Y-108579342D01*
X195760588Y-108579342D02*
X195712969Y-108674580D01*
X195712969Y-108674580D02*
X195665350Y-108722200D01*
X195665350Y-108722200D02*
X195570112Y-108769819D01*
X195570112Y-108769819D02*
X195284398Y-108769819D01*
X195284398Y-108769819D02*
X195189160Y-108722200D01*
X195189160Y-108722200D02*
X195141541Y-108674580D01*
X196189160Y-108674580D02*
X196236779Y-108722200D01*
X196236779Y-108722200D02*
X196189160Y-108769819D01*
X196189160Y-108769819D02*
X196141541Y-108722200D01*
X196141541Y-108722200D02*
X196189160Y-108674580D01*
X196189160Y-108674580D02*
X196189160Y-108769819D01*
X196570112Y-107769819D02*
X197189159Y-107769819D01*
X197189159Y-107769819D02*
X196855826Y-108150771D01*
X196855826Y-108150771D02*
X196998683Y-108150771D01*
X196998683Y-108150771D02*
X197093921Y-108198390D01*
X197093921Y-108198390D02*
X197141540Y-108246009D01*
X197141540Y-108246009D02*
X197189159Y-108341247D01*
X197189159Y-108341247D02*
X197189159Y-108579342D01*
X197189159Y-108579342D02*
X197141540Y-108674580D01*
X197141540Y-108674580D02*
X197093921Y-108722200D01*
X197093921Y-108722200D02*
X196998683Y-108769819D01*
X196998683Y-108769819D02*
X196712969Y-108769819D01*
X196712969Y-108769819D02*
X196617731Y-108722200D01*
X196617731Y-108722200D02*
X196570112Y-108674580D01*
X197474874Y-107769819D02*
X197808207Y-108769819D01*
X197808207Y-108769819D02*
X198141540Y-107769819D01*
X192689160Y-98884104D02*
X193165350Y-98884104D01*
X192593922Y-99169819D02*
X192927255Y-98169819D01*
X192927255Y-98169819D02*
X193260588Y-99169819D01*
X193498684Y-98169819D02*
X194117731Y-98169819D01*
X194117731Y-98169819D02*
X193784398Y-98550771D01*
X193784398Y-98550771D02*
X193927255Y-98550771D01*
X193927255Y-98550771D02*
X194022493Y-98598390D01*
X194022493Y-98598390D02*
X194070112Y-98646009D01*
X194070112Y-98646009D02*
X194117731Y-98741247D01*
X194117731Y-98741247D02*
X194117731Y-98979342D01*
X194117731Y-98979342D02*
X194070112Y-99074580D01*
X194070112Y-99074580D02*
X194022493Y-99122200D01*
X194022493Y-99122200D02*
X193927255Y-99169819D01*
X193927255Y-99169819D02*
X193641541Y-99169819D01*
X193641541Y-99169819D02*
X193546303Y-99122200D01*
X193546303Y-99122200D02*
X193498684Y-99074580D01*
X97789160Y-93422200D02*
X97932017Y-93469819D01*
X97932017Y-93469819D02*
X98170112Y-93469819D01*
X98170112Y-93469819D02*
X98265350Y-93422200D01*
X98265350Y-93422200D02*
X98312969Y-93374580D01*
X98312969Y-93374580D02*
X98360588Y-93279342D01*
X98360588Y-93279342D02*
X98360588Y-93184104D01*
X98360588Y-93184104D02*
X98312969Y-93088866D01*
X98312969Y-93088866D02*
X98265350Y-93041247D01*
X98265350Y-93041247D02*
X98170112Y-92993628D01*
X98170112Y-92993628D02*
X97979636Y-92946009D01*
X97979636Y-92946009D02*
X97884398Y-92898390D01*
X97884398Y-92898390D02*
X97836779Y-92850771D01*
X97836779Y-92850771D02*
X97789160Y-92755533D01*
X97789160Y-92755533D02*
X97789160Y-92660295D01*
X97789160Y-92660295D02*
X97836779Y-92565057D01*
X97836779Y-92565057D02*
X97884398Y-92517438D01*
X97884398Y-92517438D02*
X97979636Y-92469819D01*
X97979636Y-92469819D02*
X98217731Y-92469819D01*
X98217731Y-92469819D02*
X98360588Y-92517438D01*
X99360588Y-93374580D02*
X99312969Y-93422200D01*
X99312969Y-93422200D02*
X99170112Y-93469819D01*
X99170112Y-93469819D02*
X99074874Y-93469819D01*
X99074874Y-93469819D02*
X98932017Y-93422200D01*
X98932017Y-93422200D02*
X98836779Y-93326961D01*
X98836779Y-93326961D02*
X98789160Y-93231723D01*
X98789160Y-93231723D02*
X98741541Y-93041247D01*
X98741541Y-93041247D02*
X98741541Y-92898390D01*
X98741541Y-92898390D02*
X98789160Y-92707914D01*
X98789160Y-92707914D02*
X98836779Y-92612676D01*
X98836779Y-92612676D02*
X98932017Y-92517438D01*
X98932017Y-92517438D02*
X99074874Y-92469819D01*
X99074874Y-92469819D02*
X99170112Y-92469819D01*
X99170112Y-92469819D02*
X99312969Y-92517438D01*
X99312969Y-92517438D02*
X99360588Y-92565057D01*
X100265350Y-93469819D02*
X99789160Y-93469819D01*
X99789160Y-93469819D02*
X99789160Y-92469819D01*
X179889160Y-113784104D02*
X180365350Y-113784104D01*
X179793922Y-114069819D02*
X180127255Y-113069819D01*
X180127255Y-113069819D02*
X180460588Y-114069819D01*
X181317731Y-114069819D02*
X180746303Y-114069819D01*
X181032017Y-114069819D02*
X181032017Y-113069819D01*
X181032017Y-113069819D02*
X180936779Y-113212676D01*
X180936779Y-113212676D02*
X180841541Y-113307914D01*
X180841541Y-113307914D02*
X180746303Y-113355533D01*
X109141541Y-78069819D02*
X109760588Y-78069819D01*
X109760588Y-78069819D02*
X109427255Y-78450771D01*
X109427255Y-78450771D02*
X109570112Y-78450771D01*
X109570112Y-78450771D02*
X109665350Y-78498390D01*
X109665350Y-78498390D02*
X109712969Y-78546009D01*
X109712969Y-78546009D02*
X109760588Y-78641247D01*
X109760588Y-78641247D02*
X109760588Y-78879342D01*
X109760588Y-78879342D02*
X109712969Y-78974580D01*
X109712969Y-78974580D02*
X109665350Y-79022200D01*
X109665350Y-79022200D02*
X109570112Y-79069819D01*
X109570112Y-79069819D02*
X109284398Y-79069819D01*
X109284398Y-79069819D02*
X109189160Y-79022200D01*
X109189160Y-79022200D02*
X109141541Y-78974580D01*
X110189160Y-78974580D02*
X110236779Y-79022200D01*
X110236779Y-79022200D02*
X110189160Y-79069819D01*
X110189160Y-79069819D02*
X110141541Y-79022200D01*
X110141541Y-79022200D02*
X110189160Y-78974580D01*
X110189160Y-78974580D02*
X110189160Y-79069819D01*
X110570112Y-78069819D02*
X111189159Y-78069819D01*
X111189159Y-78069819D02*
X110855826Y-78450771D01*
X110855826Y-78450771D02*
X110998683Y-78450771D01*
X110998683Y-78450771D02*
X111093921Y-78498390D01*
X111093921Y-78498390D02*
X111141540Y-78546009D01*
X111141540Y-78546009D02*
X111189159Y-78641247D01*
X111189159Y-78641247D02*
X111189159Y-78879342D01*
X111189159Y-78879342D02*
X111141540Y-78974580D01*
X111141540Y-78974580D02*
X111093921Y-79022200D01*
X111093921Y-79022200D02*
X110998683Y-79069819D01*
X110998683Y-79069819D02*
X110712969Y-79069819D01*
X110712969Y-79069819D02*
X110617731Y-79022200D01*
X110617731Y-79022200D02*
X110570112Y-78974580D01*
X111474874Y-78069819D02*
X111808207Y-79069819D01*
X111808207Y-79069819D02*
X112141540Y-78069819D01*
D11*
X127677382Y-77336623D02*
X127677382Y-76086623D01*
X127677382Y-76086623D02*
X128094048Y-76979480D01*
X128094048Y-76979480D02*
X128510715Y-76086623D01*
X128510715Y-76086623D02*
X128510715Y-77336623D01*
X129105953Y-77336623D02*
X129105953Y-76503290D01*
X129105953Y-76086623D02*
X129046429Y-76146147D01*
X129046429Y-76146147D02*
X129105953Y-76205671D01*
X129105953Y-76205671D02*
X129165476Y-76146147D01*
X129165476Y-76146147D02*
X129105953Y-76086623D01*
X129105953Y-76086623D02*
X129105953Y-76205671D01*
X129701191Y-76503290D02*
X129701191Y-77336623D01*
X129701191Y-76622338D02*
X129760714Y-76562814D01*
X129760714Y-76562814D02*
X129879762Y-76503290D01*
X129879762Y-76503290D02*
X130058333Y-76503290D01*
X130058333Y-76503290D02*
X130177381Y-76562814D01*
X130177381Y-76562814D02*
X130236905Y-76681861D01*
X130236905Y-76681861D02*
X130236905Y-77336623D01*
X130832143Y-77336623D02*
X130832143Y-76503290D01*
X130832143Y-76086623D02*
X130772619Y-76146147D01*
X130772619Y-76146147D02*
X130832143Y-76205671D01*
X130832143Y-76205671D02*
X130891666Y-76146147D01*
X130891666Y-76146147D02*
X130832143Y-76086623D01*
X130832143Y-76086623D02*
X130832143Y-76205671D01*
X132082142Y-76146147D02*
X131963095Y-76086623D01*
X131963095Y-76086623D02*
X131784523Y-76086623D01*
X131784523Y-76086623D02*
X131605952Y-76146147D01*
X131605952Y-76146147D02*
X131486904Y-76265195D01*
X131486904Y-76265195D02*
X131427381Y-76384242D01*
X131427381Y-76384242D02*
X131367857Y-76622338D01*
X131367857Y-76622338D02*
X131367857Y-76800909D01*
X131367857Y-76800909D02*
X131427381Y-77039004D01*
X131427381Y-77039004D02*
X131486904Y-77158052D01*
X131486904Y-77158052D02*
X131605952Y-77277100D01*
X131605952Y-77277100D02*
X131784523Y-77336623D01*
X131784523Y-77336623D02*
X131903571Y-77336623D01*
X131903571Y-77336623D02*
X132082142Y-77277100D01*
X132082142Y-77277100D02*
X132141666Y-77217576D01*
X132141666Y-77217576D02*
X132141666Y-76800909D01*
X132141666Y-76800909D02*
X131903571Y-76800909D01*
X132677381Y-77336623D02*
X132677381Y-76086623D01*
X132677381Y-76086623D02*
X133153571Y-76086623D01*
X133153571Y-76086623D02*
X133272619Y-76146147D01*
X133272619Y-76146147D02*
X133332142Y-76205671D01*
X133332142Y-76205671D02*
X133391666Y-76324719D01*
X133391666Y-76324719D02*
X133391666Y-76503290D01*
X133391666Y-76503290D02*
X133332142Y-76622338D01*
X133332142Y-76622338D02*
X133272619Y-76681861D01*
X133272619Y-76681861D02*
X133153571Y-76741385D01*
X133153571Y-76741385D02*
X132677381Y-76741385D01*
X133867857Y-77277100D02*
X134046428Y-77336623D01*
X134046428Y-77336623D02*
X134344047Y-77336623D01*
X134344047Y-77336623D02*
X134463095Y-77277100D01*
X134463095Y-77277100D02*
X134522619Y-77217576D01*
X134522619Y-77217576D02*
X134582142Y-77098528D01*
X134582142Y-77098528D02*
X134582142Y-76979480D01*
X134582142Y-76979480D02*
X134522619Y-76860433D01*
X134522619Y-76860433D02*
X134463095Y-76800909D01*
X134463095Y-76800909D02*
X134344047Y-76741385D01*
X134344047Y-76741385D02*
X134105952Y-76681861D01*
X134105952Y-76681861D02*
X133986904Y-76622338D01*
X133986904Y-76622338D02*
X133927381Y-76562814D01*
X133927381Y-76562814D02*
X133867857Y-76443766D01*
X133867857Y-76443766D02*
X133867857Y-76324719D01*
X133867857Y-76324719D02*
X133927381Y-76205671D01*
X133927381Y-76205671D02*
X133986904Y-76146147D01*
X133986904Y-76146147D02*
X134105952Y-76086623D01*
X134105952Y-76086623D02*
X134403571Y-76086623D01*
X134403571Y-76086623D02*
X134582142Y-76146147D01*
D10*
X98260588Y-95017438D02*
X98165350Y-94969819D01*
X98165350Y-94969819D02*
X98022493Y-94969819D01*
X98022493Y-94969819D02*
X97879636Y-95017438D01*
X97879636Y-95017438D02*
X97784398Y-95112676D01*
X97784398Y-95112676D02*
X97736779Y-95207914D01*
X97736779Y-95207914D02*
X97689160Y-95398390D01*
X97689160Y-95398390D02*
X97689160Y-95541247D01*
X97689160Y-95541247D02*
X97736779Y-95731723D01*
X97736779Y-95731723D02*
X97784398Y-95826961D01*
X97784398Y-95826961D02*
X97879636Y-95922200D01*
X97879636Y-95922200D02*
X98022493Y-95969819D01*
X98022493Y-95969819D02*
X98117731Y-95969819D01*
X98117731Y-95969819D02*
X98260588Y-95922200D01*
X98260588Y-95922200D02*
X98308207Y-95874580D01*
X98308207Y-95874580D02*
X98308207Y-95541247D01*
X98308207Y-95541247D02*
X98117731Y-95541247D01*
X98736779Y-95969819D02*
X98736779Y-94969819D01*
X98736779Y-94969819D02*
X99308207Y-95969819D01*
X99308207Y-95969819D02*
X99308207Y-94969819D01*
X99784398Y-95969819D02*
X99784398Y-94969819D01*
X99784398Y-94969819D02*
X100022493Y-94969819D01*
X100022493Y-94969819D02*
X100165350Y-95017438D01*
X100165350Y-95017438D02*
X100260588Y-95112676D01*
X100260588Y-95112676D02*
X100308207Y-95207914D01*
X100308207Y-95207914D02*
X100355826Y-95398390D01*
X100355826Y-95398390D02*
X100355826Y-95541247D01*
X100355826Y-95541247D02*
X100308207Y-95731723D01*
X100308207Y-95731723D02*
X100260588Y-95826961D01*
X100260588Y-95826961D02*
X100165350Y-95922200D01*
X100165350Y-95922200D02*
X100022493Y-95969819D01*
X100022493Y-95969819D02*
X99784398Y-95969819D01*
D11*
X122178571Y-121036623D02*
X122178571Y-119786623D01*
X122892856Y-121036623D02*
X122357142Y-120322338D01*
X122892856Y-119786623D02*
X122178571Y-120500909D01*
X123904761Y-120977100D02*
X123785713Y-121036623D01*
X123785713Y-121036623D02*
X123547618Y-121036623D01*
X123547618Y-121036623D02*
X123428571Y-120977100D01*
X123428571Y-120977100D02*
X123369047Y-120858052D01*
X123369047Y-120858052D02*
X123369047Y-120381861D01*
X123369047Y-120381861D02*
X123428571Y-120262814D01*
X123428571Y-120262814D02*
X123547618Y-120203290D01*
X123547618Y-120203290D02*
X123785713Y-120203290D01*
X123785713Y-120203290D02*
X123904761Y-120262814D01*
X123904761Y-120262814D02*
X123964285Y-120381861D01*
X123964285Y-120381861D02*
X123964285Y-120500909D01*
X123964285Y-120500909D02*
X123369047Y-120619957D01*
X124380952Y-120203290D02*
X124678571Y-121036623D01*
X124976190Y-120203290D02*
X124678571Y-121036623D01*
X124678571Y-121036623D02*
X124559523Y-121334242D01*
X124559523Y-121334242D02*
X124500000Y-121393766D01*
X124500000Y-121393766D02*
X124380952Y-121453290D01*
X126345238Y-120977100D02*
X126523809Y-121036623D01*
X126523809Y-121036623D02*
X126821428Y-121036623D01*
X126821428Y-121036623D02*
X126940476Y-120977100D01*
X126940476Y-120977100D02*
X127000000Y-120917576D01*
X127000000Y-120917576D02*
X127059523Y-120798528D01*
X127059523Y-120798528D02*
X127059523Y-120679480D01*
X127059523Y-120679480D02*
X127000000Y-120560433D01*
X127000000Y-120560433D02*
X126940476Y-120500909D01*
X126940476Y-120500909D02*
X126821428Y-120441385D01*
X126821428Y-120441385D02*
X126583333Y-120381861D01*
X126583333Y-120381861D02*
X126464285Y-120322338D01*
X126464285Y-120322338D02*
X126404762Y-120262814D01*
X126404762Y-120262814D02*
X126345238Y-120143766D01*
X126345238Y-120143766D02*
X126345238Y-120024719D01*
X126345238Y-120024719D02*
X126404762Y-119905671D01*
X126404762Y-119905671D02*
X126464285Y-119846147D01*
X126464285Y-119846147D02*
X126583333Y-119786623D01*
X126583333Y-119786623D02*
X126880952Y-119786623D01*
X126880952Y-119786623D02*
X127059523Y-119846147D01*
X127476190Y-120203290D02*
X127714285Y-121036623D01*
X127714285Y-121036623D02*
X127952380Y-120441385D01*
X127952380Y-120441385D02*
X128190476Y-121036623D01*
X128190476Y-121036623D02*
X128428571Y-120203290D01*
X128904762Y-121036623D02*
X128904762Y-120203290D01*
X128904762Y-119786623D02*
X128845238Y-119846147D01*
X128845238Y-119846147D02*
X128904762Y-119905671D01*
X128904762Y-119905671D02*
X128964285Y-119846147D01*
X128964285Y-119846147D02*
X128904762Y-119786623D01*
X128904762Y-119786623D02*
X128904762Y-119905671D01*
X129321428Y-120203290D02*
X129797619Y-120203290D01*
X129500000Y-119786623D02*
X129500000Y-120858052D01*
X129500000Y-120858052D02*
X129559523Y-120977100D01*
X129559523Y-120977100D02*
X129678571Y-121036623D01*
X129678571Y-121036623D02*
X129797619Y-121036623D01*
X130750000Y-120977100D02*
X130630952Y-121036623D01*
X130630952Y-121036623D02*
X130392857Y-121036623D01*
X130392857Y-121036623D02*
X130273809Y-120977100D01*
X130273809Y-120977100D02*
X130214286Y-120917576D01*
X130214286Y-120917576D02*
X130154762Y-120798528D01*
X130154762Y-120798528D02*
X130154762Y-120441385D01*
X130154762Y-120441385D02*
X130214286Y-120322338D01*
X130214286Y-120322338D02*
X130273809Y-120262814D01*
X130273809Y-120262814D02*
X130392857Y-120203290D01*
X130392857Y-120203290D02*
X130630952Y-120203290D01*
X130630952Y-120203290D02*
X130750000Y-120262814D01*
X131285715Y-121036623D02*
X131285715Y-119786623D01*
X131821429Y-121036623D02*
X131821429Y-120381861D01*
X131821429Y-120381861D02*
X131761905Y-120262814D01*
X131761905Y-120262814D02*
X131642857Y-120203290D01*
X131642857Y-120203290D02*
X131464286Y-120203290D01*
X131464286Y-120203290D02*
X131345238Y-120262814D01*
X131345238Y-120262814D02*
X131285715Y-120322338D01*
D10*
X97689160Y-90922200D02*
X97832017Y-90969819D01*
X97832017Y-90969819D02*
X98070112Y-90969819D01*
X98070112Y-90969819D02*
X98165350Y-90922200D01*
X98165350Y-90922200D02*
X98212969Y-90874580D01*
X98212969Y-90874580D02*
X98260588Y-90779342D01*
X98260588Y-90779342D02*
X98260588Y-90684104D01*
X98260588Y-90684104D02*
X98212969Y-90588866D01*
X98212969Y-90588866D02*
X98165350Y-90541247D01*
X98165350Y-90541247D02*
X98070112Y-90493628D01*
X98070112Y-90493628D02*
X97879636Y-90446009D01*
X97879636Y-90446009D02*
X97784398Y-90398390D01*
X97784398Y-90398390D02*
X97736779Y-90350771D01*
X97736779Y-90350771D02*
X97689160Y-90255533D01*
X97689160Y-90255533D02*
X97689160Y-90160295D01*
X97689160Y-90160295D02*
X97736779Y-90065057D01*
X97736779Y-90065057D02*
X97784398Y-90017438D01*
X97784398Y-90017438D02*
X97879636Y-89969819D01*
X97879636Y-89969819D02*
X98117731Y-89969819D01*
X98117731Y-89969819D02*
X98260588Y-90017438D01*
X98689160Y-90969819D02*
X98689160Y-89969819D01*
X98689160Y-89969819D02*
X98927255Y-89969819D01*
X98927255Y-89969819D02*
X99070112Y-90017438D01*
X99070112Y-90017438D02*
X99165350Y-90112676D01*
X99165350Y-90112676D02*
X99212969Y-90207914D01*
X99212969Y-90207914D02*
X99260588Y-90398390D01*
X99260588Y-90398390D02*
X99260588Y-90541247D01*
X99260588Y-90541247D02*
X99212969Y-90731723D01*
X99212969Y-90731723D02*
X99165350Y-90826961D01*
X99165350Y-90826961D02*
X99070112Y-90922200D01*
X99070112Y-90922200D02*
X98927255Y-90969819D01*
X98927255Y-90969819D02*
X98689160Y-90969819D01*
X99641541Y-90684104D02*
X100117731Y-90684104D01*
X99546303Y-90969819D02*
X99879636Y-89969819D01*
X99879636Y-89969819D02*
X100212969Y-90969819D01*
X191136779Y-81469819D02*
X191136779Y-80469819D01*
X191136779Y-80469819D02*
X191470112Y-81184104D01*
X191470112Y-81184104D02*
X191803445Y-80469819D01*
X191803445Y-80469819D02*
X191803445Y-81469819D01*
X192470112Y-80469819D02*
X192660588Y-80469819D01*
X192660588Y-80469819D02*
X192755826Y-80517438D01*
X192755826Y-80517438D02*
X192851064Y-80612676D01*
X192851064Y-80612676D02*
X192898683Y-80803152D01*
X192898683Y-80803152D02*
X192898683Y-81136485D01*
X192898683Y-81136485D02*
X192851064Y-81326961D01*
X192851064Y-81326961D02*
X192755826Y-81422200D01*
X192755826Y-81422200D02*
X192660588Y-81469819D01*
X192660588Y-81469819D02*
X192470112Y-81469819D01*
X192470112Y-81469819D02*
X192374874Y-81422200D01*
X192374874Y-81422200D02*
X192279636Y-81326961D01*
X192279636Y-81326961D02*
X192232017Y-81136485D01*
X192232017Y-81136485D02*
X192232017Y-80803152D01*
X192232017Y-80803152D02*
X192279636Y-80612676D01*
X192279636Y-80612676D02*
X192374874Y-80517438D01*
X192374874Y-80517438D02*
X192470112Y-80469819D01*
X193279636Y-81422200D02*
X193422493Y-81469819D01*
X193422493Y-81469819D02*
X193660588Y-81469819D01*
X193660588Y-81469819D02*
X193755826Y-81422200D01*
X193755826Y-81422200D02*
X193803445Y-81374580D01*
X193803445Y-81374580D02*
X193851064Y-81279342D01*
X193851064Y-81279342D02*
X193851064Y-81184104D01*
X193851064Y-81184104D02*
X193803445Y-81088866D01*
X193803445Y-81088866D02*
X193755826Y-81041247D01*
X193755826Y-81041247D02*
X193660588Y-80993628D01*
X193660588Y-80993628D02*
X193470112Y-80946009D01*
X193470112Y-80946009D02*
X193374874Y-80898390D01*
X193374874Y-80898390D02*
X193327255Y-80850771D01*
X193327255Y-80850771D02*
X193279636Y-80755533D01*
X193279636Y-80755533D02*
X193279636Y-80660295D01*
X193279636Y-80660295D02*
X193327255Y-80565057D01*
X193327255Y-80565057D02*
X193374874Y-80517438D01*
X193374874Y-80517438D02*
X193470112Y-80469819D01*
X193470112Y-80469819D02*
X193708207Y-80469819D01*
X193708207Y-80469819D02*
X193851064Y-80517438D01*
X194279636Y-81469819D02*
X194279636Y-80469819D01*
X191836779Y-91569819D02*
X191836779Y-90569819D01*
X191836779Y-90569819D02*
X192074874Y-90569819D01*
X192074874Y-90569819D02*
X192217731Y-90617438D01*
X192217731Y-90617438D02*
X192312969Y-90712676D01*
X192312969Y-90712676D02*
X192360588Y-90807914D01*
X192360588Y-90807914D02*
X192408207Y-90998390D01*
X192408207Y-90998390D02*
X192408207Y-91141247D01*
X192408207Y-91141247D02*
X192360588Y-91331723D01*
X192360588Y-91331723D02*
X192312969Y-91426961D01*
X192312969Y-91426961D02*
X192217731Y-91522200D01*
X192217731Y-91522200D02*
X192074874Y-91569819D01*
X192074874Y-91569819D02*
X191836779Y-91569819D01*
X193360588Y-91569819D02*
X192789160Y-91569819D01*
X193074874Y-91569819D02*
X193074874Y-90569819D01*
X193074874Y-90569819D02*
X192979636Y-90712676D01*
X192979636Y-90712676D02*
X192884398Y-90807914D01*
X192884398Y-90807914D02*
X192789160Y-90855533D01*
X194312969Y-91569819D02*
X193741541Y-91569819D01*
X194027255Y-91569819D02*
X194027255Y-90569819D01*
X194027255Y-90569819D02*
X193932017Y-90712676D01*
X193932017Y-90712676D02*
X193836779Y-90807914D01*
X193836779Y-90807914D02*
X193741541Y-90855533D01*
X109689160Y-71422200D02*
X109832017Y-71469819D01*
X109832017Y-71469819D02*
X110070112Y-71469819D01*
X110070112Y-71469819D02*
X110165350Y-71422200D01*
X110165350Y-71422200D02*
X110212969Y-71374580D01*
X110212969Y-71374580D02*
X110260588Y-71279342D01*
X110260588Y-71279342D02*
X110260588Y-71184104D01*
X110260588Y-71184104D02*
X110212969Y-71088866D01*
X110212969Y-71088866D02*
X110165350Y-71041247D01*
X110165350Y-71041247D02*
X110070112Y-70993628D01*
X110070112Y-70993628D02*
X109879636Y-70946009D01*
X109879636Y-70946009D02*
X109784398Y-70898390D01*
X109784398Y-70898390D02*
X109736779Y-70850771D01*
X109736779Y-70850771D02*
X109689160Y-70755533D01*
X109689160Y-70755533D02*
X109689160Y-70660295D01*
X109689160Y-70660295D02*
X109736779Y-70565057D01*
X109736779Y-70565057D02*
X109784398Y-70517438D01*
X109784398Y-70517438D02*
X109879636Y-70469819D01*
X109879636Y-70469819D02*
X110117731Y-70469819D01*
X110117731Y-70469819D02*
X110260588Y-70517438D01*
X111260588Y-71374580D02*
X111212969Y-71422200D01*
X111212969Y-71422200D02*
X111070112Y-71469819D01*
X111070112Y-71469819D02*
X110974874Y-71469819D01*
X110974874Y-71469819D02*
X110832017Y-71422200D01*
X110832017Y-71422200D02*
X110736779Y-71326961D01*
X110736779Y-71326961D02*
X110689160Y-71231723D01*
X110689160Y-71231723D02*
X110641541Y-71041247D01*
X110641541Y-71041247D02*
X110641541Y-70898390D01*
X110641541Y-70898390D02*
X110689160Y-70707914D01*
X110689160Y-70707914D02*
X110736779Y-70612676D01*
X110736779Y-70612676D02*
X110832017Y-70517438D01*
X110832017Y-70517438D02*
X110974874Y-70469819D01*
X110974874Y-70469819D02*
X111070112Y-70469819D01*
X111070112Y-70469819D02*
X111212969Y-70517438D01*
X111212969Y-70517438D02*
X111260588Y-70565057D01*
X112165350Y-71469819D02*
X111689160Y-71469819D01*
X111689160Y-71469819D02*
X111689160Y-70469819D01*
D11*
X182447618Y-62846147D02*
X182328571Y-62786623D01*
X182328571Y-62786623D02*
X182149999Y-62786623D01*
X182149999Y-62786623D02*
X181971428Y-62846147D01*
X181971428Y-62846147D02*
X181852380Y-62965195D01*
X181852380Y-62965195D02*
X181792857Y-63084242D01*
X181792857Y-63084242D02*
X181733333Y-63322338D01*
X181733333Y-63322338D02*
X181733333Y-63500909D01*
X181733333Y-63500909D02*
X181792857Y-63739004D01*
X181792857Y-63739004D02*
X181852380Y-63858052D01*
X181852380Y-63858052D02*
X181971428Y-63977100D01*
X181971428Y-63977100D02*
X182149999Y-64036623D01*
X182149999Y-64036623D02*
X182269047Y-64036623D01*
X182269047Y-64036623D02*
X182447618Y-63977100D01*
X182447618Y-63977100D02*
X182507142Y-63917576D01*
X182507142Y-63917576D02*
X182507142Y-63500909D01*
X182507142Y-63500909D02*
X182269047Y-63500909D01*
X183042857Y-64036623D02*
X183042857Y-62786623D01*
X183042857Y-62786623D02*
X183757142Y-64036623D01*
X183757142Y-64036623D02*
X183757142Y-62786623D01*
X184352381Y-64036623D02*
X184352381Y-62786623D01*
X184352381Y-62786623D02*
X184650000Y-62786623D01*
X184650000Y-62786623D02*
X184828571Y-62846147D01*
X184828571Y-62846147D02*
X184947619Y-62965195D01*
X184947619Y-62965195D02*
X185007142Y-63084242D01*
X185007142Y-63084242D02*
X185066666Y-63322338D01*
X185066666Y-63322338D02*
X185066666Y-63500909D01*
X185066666Y-63500909D02*
X185007142Y-63739004D01*
X185007142Y-63739004D02*
X184947619Y-63858052D01*
X184947619Y-63858052D02*
X184828571Y-63977100D01*
X184828571Y-63977100D02*
X184650000Y-64036623D01*
X184650000Y-64036623D02*
X184352381Y-64036623D01*
D10*
X192689160Y-101284104D02*
X193165350Y-101284104D01*
X192593922Y-101569819D02*
X192927255Y-100569819D01*
X192927255Y-100569819D02*
X193260588Y-101569819D01*
X193784398Y-100569819D02*
X193879636Y-100569819D01*
X193879636Y-100569819D02*
X193974874Y-100617438D01*
X193974874Y-100617438D02*
X194022493Y-100665057D01*
X194022493Y-100665057D02*
X194070112Y-100760295D01*
X194070112Y-100760295D02*
X194117731Y-100950771D01*
X194117731Y-100950771D02*
X194117731Y-101188866D01*
X194117731Y-101188866D02*
X194070112Y-101379342D01*
X194070112Y-101379342D02*
X194022493Y-101474580D01*
X194022493Y-101474580D02*
X193974874Y-101522200D01*
X193974874Y-101522200D02*
X193879636Y-101569819D01*
X193879636Y-101569819D02*
X193784398Y-101569819D01*
X193784398Y-101569819D02*
X193689160Y-101522200D01*
X193689160Y-101522200D02*
X193641541Y-101474580D01*
X193641541Y-101474580D02*
X193593922Y-101379342D01*
X193593922Y-101379342D02*
X193546303Y-101188866D01*
X193546303Y-101188866D02*
X193546303Y-100950771D01*
X193546303Y-100950771D02*
X193593922Y-100760295D01*
X193593922Y-100760295D02*
X193641541Y-100665057D01*
X193641541Y-100665057D02*
X193689160Y-100617438D01*
X193689160Y-100617438D02*
X193784398Y-100569819D01*
X158385714Y-116669104D02*
X158861904Y-116669104D01*
X158290476Y-116954819D02*
X158623809Y-115954819D01*
X158623809Y-115954819D02*
X158957142Y-116954819D01*
X159814285Y-116954819D02*
X159242857Y-116954819D01*
X159528571Y-116954819D02*
X159528571Y-115954819D01*
X159528571Y-115954819D02*
X159433333Y-116097676D01*
X159433333Y-116097676D02*
X159338095Y-116192914D01*
X159338095Y-116192914D02*
X159242857Y-116240533D01*
X179533333Y-72634819D02*
X179200000Y-72158628D01*
X178961905Y-72634819D02*
X178961905Y-71634819D01*
X178961905Y-71634819D02*
X179342857Y-71634819D01*
X179342857Y-71634819D02*
X179438095Y-71682438D01*
X179438095Y-71682438D02*
X179485714Y-71730057D01*
X179485714Y-71730057D02*
X179533333Y-71825295D01*
X179533333Y-71825295D02*
X179533333Y-71968152D01*
X179533333Y-71968152D02*
X179485714Y-72063390D01*
X179485714Y-72063390D02*
X179438095Y-72111009D01*
X179438095Y-72111009D02*
X179342857Y-72158628D01*
X179342857Y-72158628D02*
X178961905Y-72158628D01*
X179866667Y-71634819D02*
X180485714Y-71634819D01*
X180485714Y-71634819D02*
X180152381Y-72015771D01*
X180152381Y-72015771D02*
X180295238Y-72015771D01*
X180295238Y-72015771D02*
X180390476Y-72063390D01*
X180390476Y-72063390D02*
X180438095Y-72111009D01*
X180438095Y-72111009D02*
X180485714Y-72206247D01*
X180485714Y-72206247D02*
X180485714Y-72444342D01*
X180485714Y-72444342D02*
X180438095Y-72539580D01*
X180438095Y-72539580D02*
X180390476Y-72587200D01*
X180390476Y-72587200D02*
X180295238Y-72634819D01*
X180295238Y-72634819D02*
X180009524Y-72634819D01*
X180009524Y-72634819D02*
X179914286Y-72587200D01*
X179914286Y-72587200D02*
X179866667Y-72539580D01*
X189033333Y-114054819D02*
X188700000Y-113578628D01*
X188461905Y-114054819D02*
X188461905Y-113054819D01*
X188461905Y-113054819D02*
X188842857Y-113054819D01*
X188842857Y-113054819D02*
X188938095Y-113102438D01*
X188938095Y-113102438D02*
X188985714Y-113150057D01*
X188985714Y-113150057D02*
X189033333Y-113245295D01*
X189033333Y-113245295D02*
X189033333Y-113388152D01*
X189033333Y-113388152D02*
X188985714Y-113483390D01*
X188985714Y-113483390D02*
X188938095Y-113531009D01*
X188938095Y-113531009D02*
X188842857Y-113578628D01*
X188842857Y-113578628D02*
X188461905Y-113578628D01*
X189985714Y-114054819D02*
X189414286Y-114054819D01*
X189700000Y-114054819D02*
X189700000Y-113054819D01*
X189700000Y-113054819D02*
X189604762Y-113197676D01*
X189604762Y-113197676D02*
X189509524Y-113292914D01*
X189509524Y-113292914D02*
X189414286Y-113340533D01*
X129633333Y-115854819D02*
X129300000Y-115378628D01*
X129061905Y-115854819D02*
X129061905Y-114854819D01*
X129061905Y-114854819D02*
X129442857Y-114854819D01*
X129442857Y-114854819D02*
X129538095Y-114902438D01*
X129538095Y-114902438D02*
X129585714Y-114950057D01*
X129585714Y-114950057D02*
X129633333Y-115045295D01*
X129633333Y-115045295D02*
X129633333Y-115188152D01*
X129633333Y-115188152D02*
X129585714Y-115283390D01*
X129585714Y-115283390D02*
X129538095Y-115331009D01*
X129538095Y-115331009D02*
X129442857Y-115378628D01*
X129442857Y-115378628D02*
X129061905Y-115378628D01*
X130538095Y-114854819D02*
X130061905Y-114854819D01*
X130061905Y-114854819D02*
X130014286Y-115331009D01*
X130014286Y-115331009D02*
X130061905Y-115283390D01*
X130061905Y-115283390D02*
X130157143Y-115235771D01*
X130157143Y-115235771D02*
X130395238Y-115235771D01*
X130395238Y-115235771D02*
X130490476Y-115283390D01*
X130490476Y-115283390D02*
X130538095Y-115331009D01*
X130538095Y-115331009D02*
X130585714Y-115426247D01*
X130585714Y-115426247D02*
X130585714Y-115664342D01*
X130585714Y-115664342D02*
X130538095Y-115759580D01*
X130538095Y-115759580D02*
X130490476Y-115807200D01*
X130490476Y-115807200D02*
X130395238Y-115854819D01*
X130395238Y-115854819D02*
X130157143Y-115854819D01*
X130157143Y-115854819D02*
X130061905Y-115807200D01*
X130061905Y-115807200D02*
X130014286Y-115759580D01*
X115788333Y-109064819D02*
X115455000Y-108588628D01*
X115216905Y-109064819D02*
X115216905Y-108064819D01*
X115216905Y-108064819D02*
X115597857Y-108064819D01*
X115597857Y-108064819D02*
X115693095Y-108112438D01*
X115693095Y-108112438D02*
X115740714Y-108160057D01*
X115740714Y-108160057D02*
X115788333Y-108255295D01*
X115788333Y-108255295D02*
X115788333Y-108398152D01*
X115788333Y-108398152D02*
X115740714Y-108493390D01*
X115740714Y-108493390D02*
X115693095Y-108541009D01*
X115693095Y-108541009D02*
X115597857Y-108588628D01*
X115597857Y-108588628D02*
X115216905Y-108588628D01*
X116645476Y-108064819D02*
X116455000Y-108064819D01*
X116455000Y-108064819D02*
X116359762Y-108112438D01*
X116359762Y-108112438D02*
X116312143Y-108160057D01*
X116312143Y-108160057D02*
X116216905Y-108302914D01*
X116216905Y-108302914D02*
X116169286Y-108493390D01*
X116169286Y-108493390D02*
X116169286Y-108874342D01*
X116169286Y-108874342D02*
X116216905Y-108969580D01*
X116216905Y-108969580D02*
X116264524Y-109017200D01*
X116264524Y-109017200D02*
X116359762Y-109064819D01*
X116359762Y-109064819D02*
X116550238Y-109064819D01*
X116550238Y-109064819D02*
X116645476Y-109017200D01*
X116645476Y-109017200D02*
X116693095Y-108969580D01*
X116693095Y-108969580D02*
X116740714Y-108874342D01*
X116740714Y-108874342D02*
X116740714Y-108636247D01*
X116740714Y-108636247D02*
X116693095Y-108541009D01*
X116693095Y-108541009D02*
X116645476Y-108493390D01*
X116645476Y-108493390D02*
X116550238Y-108445771D01*
X116550238Y-108445771D02*
X116359762Y-108445771D01*
X116359762Y-108445771D02*
X116264524Y-108493390D01*
X116264524Y-108493390D02*
X116216905Y-108541009D01*
X116216905Y-108541009D02*
X116169286Y-108636247D01*
X179533333Y-79534819D02*
X179200000Y-79058628D01*
X178961905Y-79534819D02*
X178961905Y-78534819D01*
X178961905Y-78534819D02*
X179342857Y-78534819D01*
X179342857Y-78534819D02*
X179438095Y-78582438D01*
X179438095Y-78582438D02*
X179485714Y-78630057D01*
X179485714Y-78630057D02*
X179533333Y-78725295D01*
X179533333Y-78725295D02*
X179533333Y-78868152D01*
X179533333Y-78868152D02*
X179485714Y-78963390D01*
X179485714Y-78963390D02*
X179438095Y-79011009D01*
X179438095Y-79011009D02*
X179342857Y-79058628D01*
X179342857Y-79058628D02*
X178961905Y-79058628D01*
X180390476Y-78868152D02*
X180390476Y-79534819D01*
X180152381Y-78487200D02*
X179914286Y-79201485D01*
X179914286Y-79201485D02*
X180533333Y-79201485D01*
X179533333Y-65884819D02*
X179200000Y-65408628D01*
X178961905Y-65884819D02*
X178961905Y-64884819D01*
X178961905Y-64884819D02*
X179342857Y-64884819D01*
X179342857Y-64884819D02*
X179438095Y-64932438D01*
X179438095Y-64932438D02*
X179485714Y-64980057D01*
X179485714Y-64980057D02*
X179533333Y-65075295D01*
X179533333Y-65075295D02*
X179533333Y-65218152D01*
X179533333Y-65218152D02*
X179485714Y-65313390D01*
X179485714Y-65313390D02*
X179438095Y-65361009D01*
X179438095Y-65361009D02*
X179342857Y-65408628D01*
X179342857Y-65408628D02*
X178961905Y-65408628D01*
X179914286Y-64980057D02*
X179961905Y-64932438D01*
X179961905Y-64932438D02*
X180057143Y-64884819D01*
X180057143Y-64884819D02*
X180295238Y-64884819D01*
X180295238Y-64884819D02*
X180390476Y-64932438D01*
X180390476Y-64932438D02*
X180438095Y-64980057D01*
X180438095Y-64980057D02*
X180485714Y-65075295D01*
X180485714Y-65075295D02*
X180485714Y-65170533D01*
X180485714Y-65170533D02*
X180438095Y-65313390D01*
X180438095Y-65313390D02*
X179866667Y-65884819D01*
X179866667Y-65884819D02*
X180485714Y-65884819D01*
D13*
%TO.C,A1*%
X147352500Y-120860000D02*
X147352500Y-75140000D01*
X150002500Y-72490000D02*
X167782500Y-72490000D01*
X150002500Y-123510000D02*
X167782500Y-123510000D01*
X170432500Y-120860000D02*
X170432500Y-75140000D01*
X170752500Y-116050000D02*
X170752500Y-118050000D01*
X147352500Y-75140000D02*
G75*
G02*
X150002500Y-72490000I2650000J0D01*
G01*
X150002500Y-123510000D02*
G75*
G02*
X147352500Y-120860000I0J2650000D01*
G01*
X167782500Y-72490000D02*
G75*
G02*
X170432500Y-75140000I0J-2650000D01*
G01*
X170432500Y-120860000D02*
G75*
G02*
X167782500Y-123510000I-2650000J0D01*
G01*
%TO.C,R3*%
X179774775Y-75871380D02*
G75*
G02*
X179883272Y-74100000I-1344775J971380D01*
G01*
%TO.C,J14*%
X179490000Y-59345000D02*
X180820000Y-59345000D01*
X179490000Y-60675000D02*
X179490000Y-59345000D01*
X182090000Y-59345000D02*
X189770000Y-59345000D01*
X182090000Y-62005000D02*
X182090000Y-59345000D01*
X182090000Y-62005000D02*
X189770000Y-62005000D01*
X189770000Y-62005000D02*
X189770000Y-59345000D01*
%TO.C,J4*%
X119620000Y-82340000D02*
X121000000Y-82340000D01*
X119620000Y-83720000D02*
X119620000Y-82340000D01*
X119620000Y-84990000D02*
X119620000Y-97800000D01*
X119620000Y-84990000D02*
X122380000Y-84990000D01*
X119620000Y-97800000D02*
X122380000Y-97800000D01*
X122380000Y-84990000D02*
X122380000Y-97800000D01*
%TO.C,J10*%
X194970000Y-74530000D02*
X194970000Y-105070000D01*
X194970000Y-74530000D02*
X197630000Y-74530000D01*
X194970000Y-105070000D02*
X197630000Y-105070000D01*
X196300000Y-71930000D02*
X197630000Y-71930000D01*
X197630000Y-71930000D02*
X197630000Y-73260000D01*
X197630000Y-74530000D02*
X197630000Y-105070000D01*
%TO.C,J3*%
X112670000Y-77350000D02*
X112670000Y-59510000D01*
X112670000Y-79950000D02*
X112670000Y-78620000D01*
X114000000Y-79950000D02*
X112670000Y-79950000D01*
X115330000Y-59510000D02*
X112670000Y-59510000D01*
X115330000Y-77350000D02*
X112670000Y-77350000D01*
X115330000Y-77350000D02*
X115330000Y-59510000D01*
%TO.C,R1*%
X187371380Y-113395225D02*
G75*
G02*
X185600000Y-113286728I-971380J-1344775D01*
G01*
%TO.C,R5*%
X127571380Y-115195225D02*
G75*
G02*
X125800000Y-115086728I-971380J-1344775D01*
G01*
%TO.C,J8*%
X125270000Y-107730000D02*
X125270000Y-110330000D01*
X125270000Y-107730000D02*
X127930000Y-107730000D01*
X125270000Y-110330000D02*
X127930000Y-110330000D01*
X126600000Y-105130000D02*
X127930000Y-105130000D01*
X127930000Y-105130000D02*
X127930000Y-106460000D01*
X127930000Y-107730000D02*
X127930000Y-110330000D01*
%TO.C,J12*%
X100970000Y-96910000D02*
X100970000Y-89230000D01*
X100970000Y-99510000D02*
X100970000Y-98180000D01*
X102300000Y-99510000D02*
X100970000Y-99510000D01*
X103630000Y-89230000D02*
X100970000Y-89230000D01*
X103630000Y-96910000D02*
X100970000Y-96910000D01*
X103630000Y-96910000D02*
X103630000Y-89230000D01*
%TO.C,J13*%
X140270000Y-117270000D02*
X140270000Y-119870000D01*
X140270000Y-117270000D02*
X142930000Y-117270000D01*
X140270000Y-119870000D02*
X142930000Y-119870000D01*
X141600000Y-114670000D02*
X142930000Y-114670000D01*
X142930000Y-114670000D02*
X142930000Y-116000000D01*
X142930000Y-117270000D02*
X142930000Y-119870000D01*
%TO.C,J5*%
X139820000Y-95190000D02*
X139820000Y-82380000D01*
X142580000Y-82380000D02*
X139820000Y-82380000D01*
X142580000Y-95190000D02*
X139820000Y-95190000D01*
X142580000Y-95190000D02*
X142580000Y-82380000D01*
X142580000Y-96460000D02*
X142580000Y-97840000D01*
X142580000Y-97840000D02*
X141200000Y-97840000D01*
%TO.C,R6*%
X115880225Y-104918620D02*
G75*
G02*
X115771728Y-106690000I1344775J-971380D01*
G01*
%TO.C,R4*%
X179774775Y-82771380D02*
G75*
G02*
X179883272Y-81000000I-1344775J971380D01*
G01*
%TO.C,J1*%
X185020000Y-103480000D02*
X186400000Y-103480000D01*
X185020000Y-104860000D02*
X185020000Y-103480000D01*
X185020000Y-106130000D02*
X185020000Y-108780000D01*
X185020000Y-106130000D02*
X187780000Y-106130000D01*
X185020000Y-108780000D02*
X187780000Y-108780000D01*
X187780000Y-106130000D02*
X187780000Y-108780000D01*
%TO.C,J7*%
X102645000Y-115180000D02*
X102645000Y-112580000D01*
X102645000Y-117780000D02*
X102645000Y-116450000D01*
X103975000Y-117780000D02*
X102645000Y-117780000D01*
X105305000Y-112580000D02*
X102645000Y-112580000D01*
X105305000Y-115180000D02*
X102645000Y-115180000D01*
X105305000Y-115180000D02*
X105305000Y-112580000D01*
%TO.C,J11*%
X194970000Y-112170000D02*
X194970000Y-114770000D01*
X194970000Y-112170000D02*
X197630000Y-112170000D01*
X194970000Y-114770000D02*
X197630000Y-114770000D01*
X196300000Y-109570000D02*
X197630000Y-109570000D01*
X197630000Y-109570000D02*
X197630000Y-110900000D01*
X197630000Y-112170000D02*
X197630000Y-114770000D01*
%TO.C,R2*%
X179774775Y-69121380D02*
G75*
G02*
X179883272Y-67350000I-1344775J971380D01*
G01*
%TO.C,J6*%
X112470000Y-115270000D02*
X112470000Y-112670000D01*
X112470000Y-117870000D02*
X112470000Y-116540000D01*
X113800000Y-117870000D02*
X112470000Y-117870000D01*
X115130000Y-112670000D02*
X112470000Y-112670000D01*
X115130000Y-115270000D02*
X112470000Y-115270000D01*
X115130000Y-115270000D02*
X115130000Y-112670000D01*
D14*
%TO.C,G\u002A\u002A\u002A*%
G36*
X123990238Y-61556274D02*
G01*
X124015452Y-61888852D01*
X123894703Y-62320551D01*
X123813230Y-62901718D01*
X123940011Y-63225671D01*
X124386388Y-63358580D01*
X124845131Y-63270979D01*
X125425010Y-63138660D01*
X125641982Y-63283058D01*
X125422458Y-63653880D01*
X125415545Y-63660830D01*
X124797872Y-64015550D01*
X124041273Y-64135449D01*
X123401894Y-63992625D01*
X123271268Y-63894414D01*
X123043530Y-63374537D01*
X123038013Y-62811852D01*
X123248197Y-62174235D01*
X123568936Y-61689490D01*
X123886486Y-61507600D01*
X123990238Y-61556274D01*
G37*
G36*
X131543711Y-55165395D02*
G01*
X131869386Y-55296296D01*
X132020247Y-55747793D01*
X132038250Y-56566430D01*
X131953011Y-57377422D01*
X131763217Y-58391046D01*
X131501546Y-59093945D01*
X131055832Y-59714314D01*
X130536264Y-60259734D01*
X129680008Y-61255058D01*
X129273557Y-62093558D01*
X129247437Y-62217304D01*
X128978130Y-62939195D01*
X128489138Y-63627658D01*
X127897866Y-64176587D01*
X127321718Y-64479879D01*
X126878099Y-64431431D01*
X126837624Y-64395163D01*
X126656168Y-63989008D01*
X126519788Y-63323997D01*
X126519446Y-63321205D01*
X126344119Y-62852260D01*
X127108294Y-62852260D01*
X127121707Y-62969280D01*
X127336275Y-63491433D01*
X127703377Y-63530129D01*
X128154383Y-63095012D01*
X128338557Y-62798323D01*
X128632844Y-62074105D01*
X128562894Y-61687029D01*
X128158334Y-61683356D01*
X127757345Y-61890779D01*
X127229219Y-62345083D01*
X127108294Y-62852260D01*
X126344119Y-62852260D01*
X126155961Y-62348996D01*
X125405283Y-61486746D01*
X124419040Y-60886079D01*
X123940011Y-60741770D01*
X123203214Y-60568848D01*
X122858490Y-60394521D01*
X122837933Y-60339067D01*
X125519128Y-60339067D01*
X125585474Y-60753361D01*
X126003276Y-61205353D01*
X126270057Y-61385921D01*
X126407339Y-61478839D01*
X126806335Y-61534470D01*
X127360829Y-61353475D01*
X128163508Y-60952813D01*
X129476602Y-60184574D01*
X130359457Y-59447836D01*
X130904465Y-58636549D01*
X131204014Y-57644665D01*
X131242008Y-57419170D01*
X131334141Y-56603950D01*
X131339575Y-56027986D01*
X131296179Y-55869503D01*
X130961011Y-55817584D01*
X130274156Y-55856293D01*
X129746512Y-55923674D01*
X128590784Y-56237567D01*
X127667043Y-56841513D01*
X126864802Y-57827443D01*
X126330959Y-58765586D01*
X125930447Y-59544450D01*
X125618220Y-60148880D01*
X125519128Y-60339067D01*
X122837933Y-60339067D01*
X122763366Y-60137922D01*
X122762002Y-60083156D01*
X123781773Y-60083156D01*
X124079827Y-60206287D01*
X124536300Y-60099599D01*
X124995937Y-59782496D01*
X125186922Y-59537123D01*
X125400115Y-59019622D01*
X125373031Y-58735543D01*
X125023723Y-58715014D01*
X124506954Y-58972860D01*
X124018892Y-59387662D01*
X123797395Y-59710799D01*
X123781773Y-60083156D01*
X122762002Y-60083156D01*
X122761750Y-60073028D01*
X122966438Y-59659534D01*
X123471917Y-59114380D01*
X123621879Y-58990649D01*
X124115309Y-58583528D01*
X124733738Y-58212938D01*
X124907919Y-58149774D01*
X125440497Y-57868401D01*
X126165796Y-57316124D01*
X126810239Y-56725127D01*
X127191413Y-56365883D01*
X127552952Y-56025146D01*
X128167776Y-55613851D01*
X128884319Y-55374638D01*
X129788085Y-55212846D01*
X130786372Y-55120122D01*
X131543711Y-55165395D01*
G37*
D13*
%TO.C,J9*%
X132870000Y-117270000D02*
X132870000Y-119870000D01*
X132870000Y-117270000D02*
X135530000Y-117270000D01*
X132870000Y-119870000D02*
X135530000Y-119870000D01*
X134200000Y-114670000D02*
X135530000Y-114670000D01*
X135530000Y-114670000D02*
X135530000Y-116000000D01*
X135530000Y-117270000D02*
X135530000Y-119870000D01*
%TO.C,J2*%
X176220000Y-112210000D02*
X176220000Y-107020000D01*
X178980000Y-107020000D02*
X176220000Y-107020000D01*
X178980000Y-112210000D02*
X176220000Y-112210000D01*
X178980000Y-112210000D02*
X178980000Y-107020000D01*
X178980000Y-113480000D02*
X178980000Y-114860000D01*
X178980000Y-114860000D02*
X177600000Y-114860000D01*
%TD*%
M02*
